<svg width="76" height="22" viewBox="0 0 76 22" fill="none" xmlns="http://www.w3.org/2000/svg"><path d="M.952 15h6.426v-1.12H2.17v-3.304h4.186v-1.12H2.17V6.32h5.026V5.2H.952V15Zm10.929-7.14c-1.274 0-1.82.532-2.156 1.078L9.571 7.86h-.994V15h1.148v-3.64c0-1.134.406-2.38 1.904-2.38h.574V7.86h-.322Zm4.621 0c-1.274 0-1.82.532-2.156 1.078l-.154-1.078h-.994V15h1.148v-3.64c0-1.134.406-2.38 1.904-2.38h.574V7.86h-.322Zm4.197 7.224c2.086 0 3.542-1.484 3.542-3.654s-1.456-3.654-3.542-3.654-3.542 1.484-3.542 3.654 1.456 3.654 3.542 3.654Zm0-1.022c-1.414 0-2.366-1.106-2.366-2.632s.952-2.632 2.366-2.632c1.414 0 2.366 1.106 2.366 2.632s-.952 2.632-2.366 2.632Zm8.162-6.202c-1.274 0-1.82.532-2.156 1.078l-.154-1.078h-.994V15h1.148v-3.64c0-1.134.406-2.38 1.904-2.38h.574V7.86h-.322Zm4.38 4.746h5.138V15h1.176v-2.394h1.582v-1.078h-1.582V5.2h-1.316l-4.998 6.356v1.05Zm5.138-5.964v4.886h-3.822l3.822-4.886Zm3.498 3.682c0 2.926 1.512 4.76 3.724 4.76 2.198 0 3.71-1.834 3.71-4.76v-.448c0-2.786-1.512-4.76-3.71-4.76-2.212 0-3.724 1.974-3.724 4.76v.448Zm6.244-.042c0 2.324-1.008 3.724-2.52 3.724-1.526 0-2.534-1.4-2.534-3.724v-.364c0-2.324 1.008-3.724 2.534-3.724 1.512 0 2.52 1.4 2.52 3.724v.364Zm1.977 2.324h5.138V15h1.176v-2.394h1.582v-1.078h-1.582V5.2h-1.316l-4.998 6.356v1.05Zm5.138-5.964v4.886h-3.822l3.822-4.886Z" fill="#757575"/><path stroke="#BFBCB4" d="M0 21.5h76"/></svg>