<svg width="80" height="80" viewBox="0 0 80 80" fill="none" xmlns="http://www.w3.org/2000/svg"><path d="M26.904 73.076c7.293 4.21 19.07 4.174 26.256-.002 3.614-2.1 5.61-4.938 5.617-7.99l.016-5.012c0-.02.004-.039.004-.06.016-2.694-1.563-5.264-4.433-7.275-.366-1.862-.853-3.69-1.449-4.956-.901-1.927-2.274-3.622-3.958-4.984.215-.263.433-.526.624-.81 2.849-4.222 5.015-10.27 5.463-15.169 2.405-1.909 3.727-4.226 3.733-6.692l.016-5.124c-.005-3.08-2.027-5.944-5.694-8.061-4.402-2.54-10.651-3.647-16.712-2.962a.755.755 0 0 0 .17 1.5c5.753-.653 11.655.385 15.787 2.77 6.604 3.811 6.543 9.707.073 13.468-6.798 3.95-17.899 3.95-24.743-.001-2.566-1.482-4.921-3.816-4.942-6.734-.018-2.378 1.542-4.673 4.407-6.466a.754.754 0 1 0-.8-1.28c-3.276 2.05-5.074 4.752-5.108 7.624-.002.022-.013.042-.013.065l-.016 5.093c-.008 2.483 1.315 4.819 3.734 6.747.45 4.914 2.623 10.981 5.478 15.221.191.285.408.547.623.81-1.663 1.335-3.03 3.02-3.942 4.954-.596 1.275-1.075 3.09-1.438 4.92-2.861 2.009-4.445 4.565-4.445 7.234 0 3.255-.005 2.92-.01 5.072-.01 3.095 2.016 5.973 5.702 8.1Zm30.364-7.996c-.007 2.495-1.735 4.87-4.866 6.688-6.797 3.954-17.898 3.952-24.743.002-3.198-1.847-4.955-4.257-4.947-6.788l.002-.643c.836 1.176 2.306 2.55 4.205 3.647 6.387 3.682 16.365 4.178 23.696 1.226 2.513-1.011 5.047-2.544 6.655-4.776l-.002.644ZM22.712 20.023l.002-.643c.024.028.012.015.032.04 1.073 1.488 2.59 2.69 4.173 3.603 7.246 4.183 19.028 4.2 26.258-.001 1.37-.797 2.635-1.765 3.703-3.07.13-.158.273-.313.39-.474l-.002.644c-.006 2.144-1.29 4.197-3.636 5.887-6.948 5.02-20.42 5.013-27.3-.068-2.347-1.705-3.627-3.767-3.62-5.918Zm3.873 7.907.318.19c7.27 4.194 19.045 4.194 26.258-.005l.235-.141c-.653 4.402-2.595 9.506-5.066 13.17-1.803 2.676-5.032 4.315-8.325 4.315-3.436 0-6.609-1.746-8.34-4.316-2.476-3.678-4.424-8.798-5.08-13.213Zm1.876 20.461a12.616 12.616 0 0 1 3.582-4.505c2.074 1.93 5.021 3.083 7.962 3.083 2.71 0 5.658-.992 7.868-3.015.024-.022.052-.042.077-.065a12.682 12.682 0 0 1 3.599 4.533c1.134 2.41 1.89 7.303 2.046 9.949-.048.15.65 3.019-3.78 5.605-5.38 3.131-14.168 3.131-19.59 0-4.007-2.325-3.972-4.433-3.725-6.834.287-2.735.991-6.675 1.961-8.75Zm-3.2 6.511c-.023.152-.18 1.337-.244 1.938-.331 3.059-.058 5.825 4.452 8.442 5.807 3.353 15.28 3.391 21.105-.001 5.45-3.181 4.473-6.864 4.524-7.036a40.53 40.53 0 0 0-.318-3.02c-.013-.092-.021-.179-.035-.271 4.816 4.39 2.35 9.571-3.653 12.417-6.848 3.24-17.003 3.007-23.418-.696-2.552-1.474-4.955-3.838-4.947-6.786l-.002-.01c.008-1.75.894-3.475 2.536-4.977Z" fill="#1C1C1C"/><path d="M30.197 7a23.013 23.013 0 0 1 2.64-.843.755.755 0 1 0-.374-1.463c-.978.25-1.925.553-2.814.9A.755.755 0 1 0 30.197 7ZM31.196 20.537c4.897 2.826 12.828 2.816 17.675-.002 5.163-2.999 5.143-8.109-.052-11.11-4.892-2.823-12.826-2.823-17.686.002-5.137 2.987-5.155 8.096.063 11.11Zm.696-9.805c4.447-2.583 11.702-2.58 16.173.001 4.187 2.419 4.196 6.087.048 8.498-4.441 2.58-11.691 2.581-16.162-.002-4.19-2.418-4.205-6.086-.06-8.497ZM32.49 61.895c4.172 2.408 10.927 2.402 15.06.002 4.4-2.556 4.555-7.074-.298-9.734-4.258-2.308-10.75-2.208-14.81.143-4.443 2.584-4.423 7.01.048 9.589Zm.71-8.283c3.55-2.058 9.517-2.192 13.33-.124 3.734 2.054 3.715 5.1.262 7.102-3.722 2.164-9.8 2.16-13.547-.001-3.465-2-3.472-4.985-.045-6.977Z" fill="#1C1C1C"/><path d="m34.878 55.192.6.27c-.108.22-.181.45-.181.691-.001.629.38 1.21 1.045 1.598 1.147.665 2.882.667 4.038 0 .672-.387 1.848-.389 2.515 0 .225.132.301.257.301.294 0 .025-.052.15-.306.297-.676.388-1.855.39-2.523 0a.756.756 0 0 0-.76 1.306c.575.334 1.296.5 2.018.5a4.24 4.24 0 0 0 1.6-.334l1.273.572a.755.755 0 0 0 .62-1.377l-.596-.268c.109-.22.183-.45.184-.693 0-.63-.383-1.214-1.052-1.603-1.128-.654-2.899-.654-4.03 0-.675.39-1.855.39-2.522 0-.224-.13-.296-.252-.296-.29 0-.04.075-.167.308-.302.672-.386 1.848-.386 2.516 0a.755.755 0 0 0 .758-1.306c-1.006-.584-2.5-.617-3.618-.16l-1.273-.571a.755.755 0 0 0-.62 1.377Z" fill="#1C1C1C"/></svg>