<svg width="80" height="80" viewBox="0 0 80 80" fill="none" xmlns="http://www.w3.org/2000/svg"><path d="m10.632 42.183 5.636 3.205c.005.003.011.002.017.005l.008.005c1.133.653 2.412.977 3.79.976 1.935 0 4.066-.64 6.26-1.906 7.455-4.304 13.5-14.787 13.475-23.368-.012-4.283-1.51-7.5-4.22-9.06-.012-.007-.025-.01-.037-.017l-.062-.035-5.513-3.138c-2.73-1.587-6.303-1.263-10.066.911-1.394.803-2.504 1.695-3.506 2.55-.543.478-1.072.988-1.585 1.522a.702.702 0 0 0 1.013.971c.485-.507.987-.989 1.49-1.434 1.089-.927 2.064-1.689 3.29-2.393 3.309-1.914 6.383-2.238 8.664-.91l1.802 1.025c-.023.001-.047.008-.07.01-3.495.301-6.92 2.488-9.48 4.887-5.497 5.146-9.489 13.364-9.474 20.325.008 1.771.348 3.97 1.15 5.65.015.031.024.066.04.096l-1.921-1.093c-2.241-1.308-3.485-4.101-3.501-7.863-.009-4.034 1.46-8.794 4.028-13.061a.7.7 0 1 0-1.201-.723c-2.737 4.545-4.24 9.441-4.23 13.789.019 4.28 1.51 7.502 4.203 9.074Zm27.783-21.078c.023 8.132-5.706 18.068-12.773 22.148-6.854 3.956-12.147.84-12.17-6.942-.014-5.266 2.401-11.285 6.025-15.984 8.027-10.407 18.886-10.774 18.918.777Z" fill="#1C1C1C"/><path d="M13.124 18.109c.31-.44.633-.87.964-1.29a.7.7 0 1 0-1.1-.87c-.346.44-.683.89-1.01 1.349a.702.702 0 0 0 1.146.811ZM25.578 28.09c-2.686 1.55-4.782 5.183-4.773 8.27l.001.523a.702.702 0 0 0 1.052.606l8.875-5.124a.702.702 0 0 0 .35-.61v-.524c-.01-3.323-2.544-4.848-5.505-3.142Zm4.101 3.263-7.428 4.289c.294-2.405 2.017-5.176 4.029-6.338 1.981-1.143 3.394-.353 3.4 1.931v.118ZM26.271 26.703c1.474-.851 2.626-2.842 2.62-4.534-.005-1.989-1.615-2.901-3.336-1.907-1.47.85-2.618 2.842-2.614 4.538.006 1.976 1.61 2.897 3.33 1.903Zm-.014-5.225c.756-.438 1.229-.238 1.232.696.003 1.194-.875 2.712-1.92 3.314-.803.462-1.222.176-1.225-.692-.003-1.199.872-2.718 1.913-3.318ZM69.546 37.808c-.013-.007-.028-.012-.041-.02-.02-.01-.039-.022-.059-.033l-5.513-3.137c-4.413-2.569-9.7.16-13.572 3.46-5.894 5.206-10 13.758-9.985 20.797.019 4.282 1.509 7.504 4.204 9.075l5.635 3.206c.006.004.013.002.019.005l.006.005c3.135 1.803 6.904.886 10.05-.93 7.455-4.304 13.5-14.787 13.475-23.368-.011-4.284-1.51-7.5-4.219-9.06ZM45.28 66.734c-2.242-1.307-3.485-4.1-3.501-7.863-.015-6.665 3.897-14.783 9.501-19.733 3.369-2.87 8.114-5.538 11.954-3.304l1.801 1.025c-.023.002-.046.009-.07.01-4.157.358-8.15 3.323-10.976 6.416-4.707 5.152-7.991 12.486-7.978 18.797.01 2.333.542 4.428 1.19 5.745l-1.921-1.093Zm14.309 2.287c-3.306 1.907-6.377 2.235-8.649.929-2.65-1.525-3.511-4.827-3.52-7.871-.014-5.024 2.18-10.738 5.528-15.334 8.165-11.204 19.383-11.486 19.414.127.024 8.133-5.706 18.069-12.773 22.148Z" fill="#1C1C1C"/><path d="M59.525 53.857c-2.686 1.551-4.783 5.184-4.774 8.27l.001.524a.702.702 0 0 0 1.052.606l8.875-5.124a.701.701 0 0 0 .35-.61V57c-.01-3.352-2.566-4.837-5.504-3.142Zm4.1 3.264-7.427 4.289c.293-2.405 2.016-5.176 4.028-6.338 1.977-1.142 3.394-.357 3.4 1.931v.118ZM60.217 52.472c1.474-.852 2.626-2.843 2.62-4.534-.005-1.994-1.62-2.9-3.336-1.907-1.471.848-2.62 2.841-2.614 4.537.005 1.963 1.596 2.903 3.33 1.904Zm-.014-5.226c.752-.436 1.229-.235 1.232.696.003 1.194-.875 2.712-1.92 3.314-.772.45-1.223.206-1.225-.692-.004-1.199.872-2.718 1.913-3.318ZM44.276 14.59c9.088 2.122 9.869 8.717 9.937 14.12l-2.353-1.997a.702.702 0 0 0-.908 1.07l3.547 3.011a.702.702 0 0 0 1.033-.139l2.434-3.56a.7.7 0 1 0-1.158-.792l-1.203 1.76c-.136-5.56-1.284-12.569-11.01-14.839a.701.701 0 1 0-.32 1.366ZM28.785 53.403a.701.701 0 0 0 .017-.992l-3.059-3.159a.701.701 0 0 0-1.083.092l-2.433 3.56a.7.7 0 1 0 1.158.792l1.203-1.76c.136 5.56 1.284 12.568 11.01 14.839a.702.702 0 0 0 .32-1.366c-8.96-2.092-9.846-8.532-9.934-13.891l1.81 1.869a.7.7 0 0 0 .991.016Z" fill="#1C1C1C"/></svg>