<svg width="80" height="80" viewBox="0 0 80 80" fill="none" xmlns="http://www.w3.org/2000/svg"><path d="M58.334 27.17c-.4-2.206-.932-3.336-1.632-4.469-3.107-4.9-9.002-4.616-13.98-1.741-7.575 4.373-13.55 14.108-14.752 22.748-.008.058-.024.119-.031.177a.757.757 0 0 0 1.126.757L57.97 27.959c.324-.35.425-.465.365-.79Zm-28.64 15.362c.481-2.419 1.313-4.756 2.34-6.944l19.217-11.094 4.832 2.807-26.389 15.23Zm21.492-22.015c1.668.335 3.159 1.322 4.189 2.913.436.67.776 1.36 1.079 2.34l-4.52-2.625a12.93 12.93 0 0 0-.776-2.63c.01.001.02 0 .028.002Zm-7.71 1.75c2.092-1.208 4.112-1.83 5.937-1.884.44.823.772 1.78.991 2.857L33.33 33.098c2.616-4.578 6.24-8.575 10.147-10.83ZM26.709 17.417a51.227 51.227 0 0 1 1.854-1.988.754.754 0 1 0-1.076-1.058c-.65.66-1.287 1.343-1.909 2.046a.754.754 0 1 0 1.13 1Z" fill="#1C1C1C"/><path d="M3.811 71.661c0 .269.144.516.375.65l6.336 3.682.002.002c.23.132.518.135.754 0l64.57-37.28a.755.755 0 0 0 .378-.656l-.037-13.347c0-.013-.01-.024-.01-.037a.75.75 0 0 0-.367-.618l-6.34-3.683a.752.752 0 0 0-.755-.002l-.664.382c-.943-5.276-3.39-9.257-7.15-11.42-.02-.012-.042-.018-.062-.03l-6.22-3.622c-4.91-2.859-11.397-2.254-18.266 1.706-2.322 1.34-4.62 3.03-6.827 5.025a.756.756 0 0 0 1.013 1.12c2.128-1.924 4.338-3.551 6.567-4.837 11.553-6.66 17.177-1.233 17.82-1.087-.029-.002-.059 0-.088-.001-4.175-.2-8.519 1.365-12.147 3.46-7.361 4.25-13.46 11.353-17.651 18.598-4.697 8.12-7.275 16.828-7.257 24.525l.009 2.044-4.827-2.799V50.5c-.017-7.438 2.488-15.87 7.053-23.745a58.655 58.655 0 0 1 4.91-7.218.755.755 0 0 0-1.182-.94 60.182 60.182 0 0 0-5.034 7.402c-4.697 8.1-7.274 16.803-7.256 24.502v2.94L4.15 57.658a.758.758 0 0 0-.378.653v.003l.038 13.346Zm1.476-12.034 4.822 2.802.033 11.598-4.823-2.803-.032-11.597Zm63.02-37.277.785-.452 4.835 2.809-5.42 3.131-.002-2.057c0-1.344-.18-3.27-.199-3.431Zm-1.316 3.437.005 3.36c0 .606.657.932 1.137.654l6.55-3.781.032 11.606-4.678 2.701-.008-2.914a.755.755 0 0 0-.754-.752h-.003a.755.755 0 0 0-.752.757l.01 3.779-3.715 2.145-.003-1.08a.755.755 0 0 0-.755-.753h-.002a.755.755 0 0 0-.753.757l.006 1.946-3.716 2.145-.008-2.913a.755.755 0 0 0-.755-.753h-.002a.755.755 0 0 0-.752.757l.01 3.78-3.715 2.145-.003-1.08a.755.755 0 0 0-.755-.753c-.427-.044-.756.339-.755.757l.006 1.946-3.716 2.145-.008-2.914a.755.755 0 0 0-.755-.753h-.002a.755.755 0 0 0-.752.757l.01 3.78-3.716 2.145-.003-1.08a.755.755 0 0 0-.755-.753h-.002a.755.755 0 0 0-.753.757l.006 1.946-3.716 2.145-.008-2.913a.755.755 0 0 0-.755-.753h-.002a.755.755 0 0 0-.752.758l.01 3.779-3.715 2.145-.003-1.08a.755.755 0 0 0-.755-.753.765.765 0 0 0-.755.757l.006 1.946-3.716 2.145-.008-2.914a.755.755 0 0 0-.755-.752h-.002a.755.755 0 0 0-.753.757l.011 3.779-3.715 2.145-.003-1.08a.755.755 0 0 0-.755-.752h-.002a.755.755 0 0 0-.753.757l.005 1.945-3.715 2.145-.008-2.913a.755.755 0 0 0-.755-.753h-.002a.755.755 0 0 0-.753.757l.01 3.78-4.652 2.685-.032-11.605 7.31-4.221a.779.779 0 0 0 .384-.665l-.015-3.355c-.022-7.424 2.483-15.863 7.05-23.761C30.415 23.383 36.36 16.47 43.456 12.38c5.159-2.988 11.582-4.71 16.732-1.708l.007.002c5.083 2.96 6.78 9.277 6.796 15.113ZM12.207 54.75l4.84 2.803-6.183 3.57-4.83-2.808 6.173-3.565Z" fill="#1C1C1C"/></svg>