<svg width="80" height="80" viewBox="0 0 80 80" fill="none" xmlns="http://www.w3.org/2000/svg"><path d="M68.73 49.341a.796.796 0 0 0-.399-.692h-.003l-4.95-2.866a.795.795 0 0 0-.8.001l-2.817 1.638c-1.407-1.013-2.532-3.064-2.52-4.712l.112-39.023c0-.011.009-.02.009-.032a.798.798 0 0 0-.398-.69l-.004-.001-.005-.005-.007-.002-4.937-2.85a.793.793 0 0 0-.799.002L46.47 2.865a.796.796 0 0 0 .8 1.376l4.344-2.525 3.353 1.936-33.649 19.554-3.356-1.932 22.49-13.071a.796.796 0 0 0-.8-1.376L15.983 20.582c-.004.002-.008 0-.012.003a.795.795 0 0 0-.399.688L15.46 60.33c-.016 5.453 3.834 12.12 8.583 14.864 2.07 1.196 4.517 1.764 6.597.585 1.038-.508-4.062 2.377 35.296-20.495 1.792-1.042 2.785-3.153 2.793-5.944Zm-5.75-1.948 3.364 1.947-33.652 19.555-3.356-1.937L62.98 47.393Zm-4.705.89L27.336 66.27a.795.795 0 0 0-.396.677c-.019 1.386-.752 1.943-2.087 1.183-1.457-.838-2.848-3.09-2.848-4.944l.11-38.589 33.642-19.55L55.65 42.7c-.016 1.948 1.078 4.189 2.625 5.581ZM24.84 73.814c-4.308-2.488-7.801-8.535-7.787-13.479l.108-37.684 3.362 1.94-.11 38.592c0 2.371 1.602 5.15 3.652 6.33 1.746.989 3.644.63 4.271-1.29l3.519 2.026c-.101 1.972-.778 3.447-1.98 4.138-1.308.75-3.096.548-5.035-.573ZM65.135 53.91l-32.02 18.607c.12-.397.33-1.511.362-2.233l33.54-19.491c-.253 1.462-.9 2.546-1.882 3.117Z" fill="#1C1C1C"/><path d="m42.889 6.787 2.085-1.212a.796.796 0 1 0-.8-1.376L42.087 5.41a.796.796 0 1 0 .8 1.376ZM26.006 36.08c.242.14.546.142.795-.001l6.964-4.02a.796.796 0 0 0 .398-.692l-.02-7.103a.798.798 0 0 0-1.194-.687l-6.964 4.02a.797.797 0 0 0-.398.692l.02 7.103c0 .283.153.545.399.688Zm6.549-10.436.014 5.266-5.374 3.102-.014-5.266 5.374-3.102ZM26.04 47.972c.242.14.546.143.796 0l6.963-4.021a.796.796 0 0 0 .398-.692l-.02-7.092a.798.798 0 0 0-1.194-.687l-6.964 4.021a.796.796 0 0 0-.398.692l.02 7.09c.001.285.154.547.4.689Zm6.549-10.425.015 5.255-5.374 3.102-.015-5.255 5.374-3.102ZM33.812 47.372a.798.798 0 0 0-.796 0l-6.964 4.02a.797.797 0 0 0-.398.693l.02 7.102a.798.798 0 0 0 1.194.687l6.965-4.02a.796.796 0 0 0 .398-.692l-.02-7.102a.799.799 0 0 0-.4-.688Zm-6.55 10.436-.014-5.267 5.374-3.102.015 5.267-5.374 3.102ZM52.095 16.557l-15.65 9.095a.796.796 0 0 0 .8 1.376l15.65-9.095a.796.796 0 1 0-.8-1.376ZM52.095 29.277l-15.65 9.094a.796.796 0 0 0 .8 1.377l15.65-9.095a.796.796 0 1 0-.8-1.376ZM52.095 41.419l-15.65 9.095a.796.796 0 0 0 .8 1.376l15.65-9.095a.796.796 0 1 0-.8-1.376Z" fill="#1C1C1C"/></svg>