<svg width="80" height="80" viewBox="0 0 80 80" fill="none" xmlns="http://www.w3.org/2000/svg"><path d="m69.201 56.087-1.894 1.102a.754.754 0 1 0 .76 1.304l1.893-1.101a.754.754 0 1 0-.759-1.305Z" fill="#1C1C1C"/><path d="m4.147 53.98 35.581 20.543a.757.757 0 0 0 .754 0l.002-.001 25.513-14.827a.755.755 0 1 0-.759-1.304L40.864 72.555l.008-2.892L74.71 50l-.008 2.892-3.28 1.906a.753.753 0 1 0 .757 1.304l3.655-2.123a.753.753 0 0 0 .376-.65l.013-4.62c0-.01.007-.017.007-.027a.755.755 0 0 0-.377-.653l-7.99-4.615.08-17.883v-.002c0-.303-.085-.697-.375-.865L41.002 9.223a.753.753 0 0 0-.182-.076l-13.887-3.76c-.29-.018-.57-.056-.816.296L12.306 25.427c-.055.152-.135.277-.136.43l-.077 17.562-7.939 4.611a.755.755 0 0 0-.376.653c0 .008.006.014.006.022l-.013 4.62c0 .27.143.52.377.655Zm1.142-3.99 34.074 19.668-.008 2.906L5.28 52.892l.008-2.901ZM26.956 7.118l25.256 14.68L39.269 40.3l-1.037-.603-24.22-14.077L26.957 7.117ZM66.33 48.94c-.727.42-.998.574-13.726 7.928l-.027-13.244a.755.755 0 0 0-1.132-.652l-8.437 4.86a.755.755 0 0 0-.378.657l.043 14.116-2.528 1.46.098-22.327 26.185-15.111-.097 22.313ZM53.617 22.424l11.622 3.146-23.181 13.378 11.559-16.524ZM44.14 48.922l6.93-3.992.026 12.797-6.916 4.003-.04-12.808ZM13.674 27.169l25.06 14.565c-.005.852-.087 19.728-.098 22.334l-25.06-14.58.098-22.32Zm48.186-4.077-8.265-2.237-21.53-12.514 8.264 2.236L61.86 23.092ZM12.064 49.916c-.002.27.141.52.375.656L39.005 66.03c.243.14.53.13.755.003 5.278-3.049 18.349-10.6 27.714-16.008.218-.132.506-.57.365-.872l.022-3.997 6.103 3.526-33.846 19.67L6.043 48.678l6.042-3.51-.021 4.748Z" fill="#1C1C1C"/><path d="M54.373 50.482a.755.755 0 0 0 1.132.651c10.664-6.137-.373.215 9.028-5.21a.754.754 0 0 0 .377-.652l-.016-8.516a.754.754 0 0 0-1.132-.65l-9.027 5.223a.755.755 0 0 0-.377.653l.015 8.5Zm1.501-3.826 3.002-1.727.01 2.517-3.008 1.73-.004-2.52Zm7.526-1.82-3.006 1.739-.005-2.517 3.011-1.73v2.507ZM63.4 40.58l-3.013 1.737-.004-2.516 3.007-1.738.01 2.517Zm-4.527.095v2.514l-3 1.726-.004-2.5 3.004-1.74ZM31.114 54.393a.755.755 0 0 0 1.131-.652l.03-10.068c.001-.27-.143-.52-.376-.655l-10.704-6.19a.754.754 0 0 0-1.13.655l-.032 10.08c0 .27.143.52.378.656l10.703 6.174Zm-9.56-10.564 3.85 2.22-.006 3.305-3.854-2.224.01-3.3Zm9.185 8.606-3.833-2.211.006-3.304 3.837 2.213-.01 3.302Zm.015-5.042-3.839-2.215.006-3.296 3.843 2.224-.01 3.287Zm-9.18-8.605 3.84 2.222-.007 3.299-3.847-2.22.014-3.301Z" fill="#1C1C1C"/></svg>