<svg width="80" height="82" viewBox="0 0 80 82" fill="none" xmlns="http://www.w3.org/2000/svg"><path d="M18.35 72.93c.002.271.143.521.376.657l7.047 4.135.002.001a.75.75 0 0 0 .754 0l34.889-20.338a.762.762 0 0 0 .377-.663l-.117-42.389c0-.011.008-.02.008-.032a.762.762 0 0 0-.37-.66C50.03 6.885 46.267 4.716 46.363 4.773a.75.75 0 0 0-.756-.002l-6.005 3.5a.765.765 0 0 0-.276 1.042.752.752 0 0 0 1.03.279l5.627-3.28 5.544 3.252-25.52 14.876-5.541-3.252 12.63-7.363a.765.765 0 0 0 .275-1.04.748.748 0 0 0-1.03-.28l-13.76 8.02a.765.765 0 0 0-.376.66v.003l.146 51.741Zm1.508-.441-.14-49.976 5.535 3.247.14 49.977-5.535-3.248Zm7.045 3.256-.14-49.984L52.28 10.886l.023 8.013c0 .576.623.953 1.132.658l6.736-3.927.114 40.655-33.382 19.46Zm26.906-58.177-.018-6.66 5.646 3.38-5.628 3.28Z" fill="#1C1C1C"/><path d="M37.235 9.653 34.923 11a.765.765 0 0 0-.275 1.041.752.752 0 0 0 1.03.28l2.311-1.348a.765.765 0 0 0 .276-1.04.75.75 0 0 0-1.03-.28ZM30.656 30.237l19.061-11.11a.765.765 0 0 0 .276-1.042.75.75 0 0 0-1.03-.279L29.9 28.916a.765.765 0 0 0-.275 1.042.75.75 0 0 0 1.03.279ZM56.392 52.063l-3.047 1.776a.765.765 0 0 0-.276 1.041.75.75 0 0 0 1.03.28l3.047-1.777a.765.765 0 0 0 .276-1.04.748.748 0 0 0-1.03-.28ZM50.25 55.643l-20.349 11.86a.765.765 0 0 0-.275 1.042.75.75 0 0 0 1.03.279l20.35-11.861a.765.765 0 0 0 .275-1.041.75.75 0 0 0-1.03-.28ZM43.116 27.844c-6.169 3.597-11.172 12.342-11.153 19.496.022 7.483 5.456 10.712 11.979 6.91 6.166-3.595 11.163-12.348 11.142-19.513-.021-7.506-5.495-10.663-11.968-6.893Zm10.459 6.898c.019 6.678-4.64 14.837-10.388 18.187-5.462 3.185-9.696.76-9.714-5.593-.02-6.667 4.646-14.818 10.398-18.171 5.443-3.174 9.685-.77 9.704 5.577Z" fill="#1C1C1C"/><path d="M43.15 40.383c-.618.358-.933.212-.936-.532-.003-1.057.765-2.399 1.676-2.93.624-.364.927-.196.93.534.002.42.34.76.755.76a.76.76 0 0 0 .755-.763c-.003-1.339-.806-2.327-2.063-2.225v-1.181a.758.758 0 0 0-.754-.763.758.758 0 0 0-.755.762v1.819c-1.18.894-2.056 2.553-2.053 3.991.006 1.912 1.56 2.802 3.2 1.848.617-.359.925-.204.928.535.003 1.034-.776 2.4-1.67 2.92-.614.358-.932.218-.936-.525a.758.758 0 0 0-.754-.76h-.003a.758.758 0 0 0-.752.764c.004 1.28.741 2.227 1.891 2.227.048 0 .1-.018.149-.022v1.21c0 .42.337.761.755.761.417 0 .754-.34.754-.762v-1.817c1.192-.888 2.081-2.556 2.076-4-.003-1.905-1.555-2.806-3.193-1.851Z" fill="#1C1C1C"/></svg>