<svg width="40" height="40" viewBox="0 0 40 40" fill="none" xmlns="http://www.w3.org/2000/svg"><rect width="40" height="40" rx="4" fill="#D6D8C1"/><path fill-rule="evenodd" clip-rule="evenodd" d="M15.195 17.086c-.567.378-.82.831-.82 1.247v.209h6.25v-.209c0-.416-.253-.87-.82-1.247-.563-.375-1.376-.628-2.305-.628-.93 0-1.742.253-2.305.628Zm-.693-1.04c.794-.53 1.856-.838 2.998-.838 1.142 0 2.204.308 2.998.838.79.527 1.377 1.323 1.377 2.287v.834c0 .345-.28.625-.625.625h-7.5a.625.625 0 0 1-.625-.625v-.834c0-.964.586-1.76 1.377-2.287Z" fill="#1C1B1E"/><path fill-rule="evenodd" clip-rule="evenodd" d="M18.603 12.194c1.022-.724 2.402-1.152 3.897-1.152 1.495 0 2.875.428 3.897 1.152 1.02.723 1.728 1.78 1.728 3.014v13.125a.625.625 0 1 1-1.25 0V15.208c0-.721-.412-1.435-1.2-1.994-.788-.558-1.908-.922-3.175-.922s-2.387.364-3.174.922c-.79.559-1.201 1.273-1.201 1.994v.625a.625.625 0 1 1-1.25 0v-.625c0-1.234.707-2.291 1.728-3.014ZM17.5 21.042c.345 0 .625.28.625.625v.416a.625.625 0 1 1-1.25 0v-.416c0-.346.28-.625.625-.625ZM14.45 21.092a.625.625 0 0 1 .374.801l-.143.392a.625.625 0 1 1-1.174-.428l.142-.392a.625.625 0 0 1 .801-.373ZM11.95 27.342a.625.625 0 0 1 .374.801l-.143.392a.625.625 0 1 1-1.174-.428l.142-.392a.625.625 0 0 1 .801-.373ZM17.5 27.292c.345 0 .625.28.625.625v.416a.625.625 0 1 1-1.25 0v-.416c0-.346.28-.625.625-.625ZM17.5 23.958c.345 0 .625.28.625.625v.834a.625.625 0 1 1-1.25 0v-.834c0-.345.28-.625.625-.625ZM13.272 24.021a.625.625 0 0 1 .374.801l-.285.783a.625.625 0 1 1-1.175-.427l.285-.783a.625.625 0 0 1 .801-.374Z" fill="#1C1B1E"/></svg>