<svg width="40" height="40" viewBox="0 0 40 40" fill="none" xmlns="http://www.w3.org/2000/svg"><rect width="40" height="40" rx="4" fill="#D6D8C1"/><path d="m20 16.575-.892 1.55c-.2.342-.033.625.359.625h1.058c.4 0 .558.283.358.625L20 20.925" stroke="#1C1C1C" stroke-width="1.5" stroke-linecap="round" stroke-linejoin="round"/><path d="M16.917 25.033v-.966c-1.916-1.159-3.491-3.417-3.491-5.817 0-4.125 3.791-7.358 8.075-6.425 1.883.417 3.533 1.667 4.391 3.392 1.742 3.5-.091 7.216-2.783 8.841v.967c0 .242.092.8-.8.8h-4.592c-.916.008-.8-.35-.8-.792ZM17.082 28.333a10.673 10.673 0 0 1 5.833 0" stroke="#1C1C1C" stroke-width="1.5" stroke-linecap="round" stroke-linejoin="round"/></svg>