<svg width="40" height="40" viewBox="0 0 40 40" fill="none" xmlns="http://www.w3.org/2000/svg"><rect width="40" height="40" rx="4" fill="#D6D8C1"/><path fill-rule="evenodd" clip-rule="evenodd" d="M19.61 11.179a.625.625 0 0 1 .782 0l8.333 6.666a.625.625 0 0 1 .235.488v10c0 .346-.28.625-.625.625h-5a.625.625 0 0 1-.625-.625v-6.875h-5.417v6.875c0 .346-.28.625-.625.625h-5a.625.625 0 0 1-.625-.625v-10c0-.19.086-.37.235-.488l8.333-6.666Zm-7.317 7.455v9.074h3.75v-6.875c0-.345.28-.625.625-.625h6.667c.345 0 .625.28.625.625v6.875h3.75v-9.074L20 12.467l-7.708 6.167Z" fill="#1C1B1E"/><path fill-rule="evenodd" clip-rule="evenodd" d="M20 23.542c.345 0 .625.28.625.625v4.166a.625.625 0 1 1-1.25 0v-4.166c0-.346.28-.625.625-.625Z" fill="#1C1B1E"/></svg>