<svg width="40" height="40" viewBox="0 0 40 40" fill="none" xmlns="http://www.w3.org/2000/svg"><rect width="40" height="40" rx="4" fill="#D6D8C1"/><path fill-rule="evenodd" clip-rule="evenodd" d="M11.043 18.75c0-.345.28-.625.625-.625h3.333c.346 0 .625.28.625.625v5.833c0 .346-.28.625-.625.625h-3.333a.625.625 0 0 1-.625-.625V18.75Zm1.25.625v4.583h2.083v-4.583h-2.083ZM24.375 18.75c0-.345.28-.625.625-.625h3.333c.346 0 .625.28.625.625v5.833c0 .346-.28.625-.625.625H25a.625.625 0 0 1-.625-.625V18.75Zm1.25.625v4.583h2.083v-4.583h-2.083Z" fill="#1C1B1E"/><path fill-rule="evenodd" clip-rule="evenodd" d="M14.375 21.25c0-.345.28-.625.625-.625h10c.345 0 .625.28.625.625v3.333c0 .346-.28.625-.625.625H15a.625.625 0 0 1-.625-.625V21.25Zm1.25.625v2.083h8.75v-2.083h-8.75ZM12.71 13.333c0-.345.28-.625.626-.625h13.333c.345 0 .625.28.625.625v5a.625.625 0 0 1-1.25 0v-4.375H13.961v4.375a.625.625 0 1 1-1.25 0v-5ZM13.336 24.375c.345 0 .625.28.625.625v1.667a.625.625 0 0 1-1.25 0V25c0-.345.28-.625.625-.625ZM26.668 24.375c.345 0 .625.28.625.625v1.667a.625.625 0 0 1-1.25 0V25c0-.345.28-.625.625-.625Z" fill="#1C1B1E"/></svg>