<svg width="40" height="40" viewBox="0 0 40 40" fill="none" xmlns="http://www.w3.org/2000/svg"><rect width="40" height="40" rx="4" fill="#D6D8C1"/><path fill-rule="evenodd" clip-rule="evenodd" d="M11.875 25.417c0-.346.28-.625.625-.625h15c.345 0 .625.28.625.625v2.916c0 .346-.28.625-.625.625h-15a.625.625 0 0 1-.625-.625v-2.916Zm1.25.625v1.666h13.75v-1.666h-13.75Z" fill="#1C1B1E"/><path fill-rule="evenodd" clip-rule="evenodd" d="M11.1 13.908a.625.625 0 0 1 .568-.366h13.333c.327 0 .598.251.623.577l.834 10.833a.625.625 0 0 1-1.246.096l-.79-10.256H13.04l1.835 2.11c.33.38.495.877.455 1.38l-.539 6.767a.625.625 0 1 1-1.246-.099l.539-6.768a.625.625 0 0 0-.152-.46l-2.736-3.145a.625.625 0 0 1-.097-.67Z" fill="#1C1B1E"/><path fill-rule="evenodd" clip-rule="evenodd" d="M18.125 17.5c0-.345.28-.625.625-.625h2.083a.625.625 0 1 1 0 1.25H18.75a.625.625 0 0 1-.625-.625ZM18.125 20c0-.345.28-.625.625-.625h2.083a.625.625 0 1 1 0 1.25H18.75a.625.625 0 0 1-.625-.625ZM18.125 22.5c0-.345.28-.625.625-.625h2.083a.625.625 0 1 1 0 1.25H18.75a.625.625 0 0 1-.625-.625ZM24.375 14.167c0-.346.28-.625.625-.625h3.333c.346 0 .625.28.625.625v6.666c0 .346-.28.625-.625.625h-2.5a.625.625 0 0 1 0-1.25h1.875v-5.416H25a.625.625 0 0 1-.625-.625ZM17.293 11.667c0-.346.28-.625.625-.625h3.75c.345 0 .625.28.625.625v2.083a.625.625 0 0 1-1.25 0v-1.458h-2.5v1.458a.625.625 0 0 1-1.25 0v-2.083Z" fill="#1C1B1E"/></svg>