<svg width="40" height="40" viewBox="0 0 40 40" fill="none" xmlns="http://www.w3.org/2000/svg"><rect width="40" height="40" rx="4" fill="#D6D8C1"/><path fill-rule="evenodd" clip-rule="evenodd" d="M15.415 12.292a.208.208 0 0 0-.208.208v15c0 .115.093.208.208.208h9.167a.208.208 0 0 0 .208-.208v-15a.208.208 0 0 0-.208-.208h-9.167Zm-1.458.208c0-.806.653-1.458 1.458-1.458h9.167c.805 0 1.458.652 1.458 1.458v15c0 .805-.653 1.458-1.458 1.458h-9.167a1.458 1.458 0 0 1-1.458-1.458v-15Z" fill="#1C1B1E"/><path fill-rule="evenodd" clip-rule="evenodd" d="M19.999 23.125a1.042 1.042 0 1 0 0 2.083 1.042 1.042 0 0 0 0-2.083Zm-2.292 1.042a2.292 2.292 0 1 1 4.583 0 2.292 2.292 0 0 1-4.583 0ZM16.875 14.167c0-.346.28-.625.625-.625h5c.345 0 .625.28.625.625V17.5c0 .345-.28.625-.625.625h-5a.625.625 0 0 1-.625-.625v-3.333Zm1.25.625v2.083h3.75v-2.083h-3.75ZM18.957 20c0-.345.28-.625.625-.625h.833a.625.625 0 0 1 0 1.25h-.833a.625.625 0 0 1-.625-.625Z" fill="#1C1B1E"/></svg>