<svg width="211" height="211" viewBox="0 0 211 211" fill="none" xmlns="http://www.w3.org/2000/svg"><g clip-path="url(#a)"><path d="M124.322 3.35a105.49 105.49 0 0 0-19.063-1.728C50.396 1.622 5.365 43.68.631 97.302l4.247-1.051c5.21-50.839 48.159-90.499 100.376-90.499 5.57 0 11.04.455 16.366 1.318l2.697-3.726.005.006ZM120.729 206.388l-1.65 4.407c51.481-6.766 91.213-50.811 91.213-104.135 0-3.533-.178-7.02-.515-10.465l-3.954 2.17c.222 2.736.338 5.499.338 8.295 0 50.467-37.052 92.281-85.432 99.728Z" fill="#C86445"/><path d="M77.476 115.535H62.532l-2.85 6.899h-7.636l14.346-32.185h7.358l14.39 32.185h-7.818l-2.851-6.899h.005Zm-2.347-5.658-5.105-12.32-5.105 12.32h10.21ZM106.621 122.982c-3.344 0-6.362-.72-9.058-2.159-2.669-1.44-4.767-3.416-6.3-5.93-1.501-2.547-2.254-5.393-2.254-8.554 0-3.162.753-5.991 2.253-8.505 1.534-2.547 3.632-4.534 6.301-5.98 2.696-1.439 5.714-2.159 9.058-2.159 3.344 0 6.345.72 9.014 2.16 2.669 1.44 4.767 3.432 6.301 5.98 1.534 2.513 2.298 5.348 2.298 8.504 0 3.156-.764 6.007-2.298 8.554-1.534 2.514-3.632 4.49-6.301 5.93-2.669 1.439-5.67 2.159-9.014 2.159Zm0-6.345c1.899 0 3.616-.426 5.149-1.284a9.423 9.423 0 0 0 3.588-3.677c.892-1.561 1.335-3.338 1.335-5.332 0-1.993-.443-3.77-1.335-5.332-.858-1.56-2.054-2.773-3.588-3.632-1.533-.886-3.25-1.334-5.149-1.334s-3.615.443-5.149 1.334c-1.534.859-2.746 2.071-3.632 3.632-.858 1.562-1.285 3.339-1.285 5.332 0 1.994.427 3.771 1.285 5.332.891 1.562 2.098 2.791 3.632 3.677 1.534.858 3.25 1.284 5.149 1.284ZM151.58 105.835h6.805v13.056c-1.749 1.317-3.77 2.331-6.068 3.034a23.618 23.618 0 0 1-6.943 1.057c-3.339 0-6.345-.703-9.014-2.115-2.669-1.439-4.767-3.416-6.301-5.93-1.5-2.547-2.253-5.409-2.253-8.598 0-3.189.753-6.041 2.253-8.555 1.534-2.546 3.649-4.523 6.345-5.93 2.697-1.439 5.731-2.159 9.103-2.159 2.818 0 5.381.477 7.679 1.423 2.298.953 4.23 2.331 5.792 4.136l-4.784 4.413c-2.298-2.42-5.072-3.632-8.322-3.632-2.054 0-3.876.426-5.47 1.284a9.256 9.256 0 0 0-3.726 3.633c-.886 1.561-1.335 3.355-1.335 5.381 0 2.027.443 3.771 1.335 5.332a9.653 9.653 0 0 0 3.676 3.677c1.595.858 3.399 1.284 5.426 1.284 2.148 0 4.075-.459 5.791-1.379v-9.423l.011.011ZM18.969 125.186a8.25 8.25 0 0 1-2.713 3.688c-1.263.98-2.774 1.611-4.535 1.882-1.766.271-3.394.133-4.894-.426a8.31 8.31 0 0 1-3.716-2.691c-.98-1.24-1.6-2.697-1.854-4.369-.233-1.495-.122-2.884.326-4.169.449-1.284 1.218-2.381 2.304-3.294l-3.527.548-.355-2.309 25.17-3.892.371 2.408-10.719 1.661c1.268.571 2.292 1.39 3.073 2.459.78 1.074 1.28 2.331 1.506 3.781.26 1.672.116 3.25-.432 4.723h-.005Zm-14.213.847c.736.93 1.678 1.6 2.83 2.01 1.15.41 2.408.515 3.764.305 1.357-.211 2.525-.687 3.494-1.429.974-.742 1.672-1.666 2.087-2.774.421-1.107.532-2.281.343-3.527-.193-1.268-.658-2.358-1.395-3.277-.73-.92-1.672-1.584-2.829-1.994-1.152-.409-2.409-.515-3.765-.304-1.357.21-2.525.686-3.494 1.428-.974.742-1.672 1.661-2.093 2.758-.42 1.096-.531 2.275-.337 3.543.193 1.246.653 2.331 1.39 3.261h.005ZM28.586 148.341l-16.55 7.219-.935-2.137 3.023-1.317a6.687 6.687 0 0 1-3.4-1.401c-1.002-.786-1.794-1.838-2.37-3.162-.94-2.159-1.085-4.13-.42-5.902.659-1.772 2.16-3.167 4.484-4.186l9.596-4.185.974 2.236-9.373 4.092c-1.745.759-2.874 1.766-3.4 3.018-.526 1.251-.443 2.674.255 4.268.758 1.739 1.888 2.885 3.388 3.428 1.5.542 3.19.404 5.077-.421l8.682-3.787.974 2.231-.005.006ZM32.152 153.578l1.357 2.027-15.005 10.043-1.357-2.026 15.005-10.044Zm3.688-2.508c.094-.476.343-.847.741-1.113.383-.254.809-.332 1.285-.238.476.094.853.349 1.135.77.282.421.377.864.294 1.334a1.573 1.573 0 0 1-.698 1.085c-.421.277-.864.371-1.34.277a1.726 1.726 0 0 1-1.135-.769 1.71 1.71 0 0 1-.277-1.34l-.005-.006ZM43.092 156.07l1.556 1.877-19.617 16.245-1.555-1.877 19.616-16.251v.006ZM60.289 172.487l-16.372 19.511-1.788-1.5 2.292-2.735c-1.34.459-2.675.548-4.009.265-1.334-.282-2.575-.908-3.732-1.877-1.295-1.09-2.22-2.369-2.774-3.853-.553-1.479-.675-3.001-.376-4.574.299-1.566 1.024-3.039 2.176-4.407 1.151-1.367 2.47-2.336 3.959-2.907a8.228 8.228 0 0 1 4.556-.409c1.545.293 2.968.985 4.264 2.076 1.124.941 1.938 2.026 2.453 3.244.514 1.224.68 2.525.509 3.904l6.97-8.311 1.866 1.567.006.006Zm-18.886 13.664a6.225 6.225 0 0 0 3.439-.36c1.14-.448 2.148-1.201 3.034-2.247.88-1.052 1.445-2.176 1.688-3.378.244-1.201.166-2.347-.238-3.449-.404-1.102-1.09-2.06-2.054-2.868-.98-.825-2.048-1.34-3.206-1.545-1.157-.21-2.303-.089-3.438.36-1.14.448-2.148 1.201-3.034 2.253-.88 1.052-1.445 2.176-1.689 3.378-.243 1.201-.166 2.347.238 3.449.404 1.102 1.096 2.065 2.082 2.89.963.809 2.026 1.318 3.178 1.528v-.011ZM70.615 197.025l-13.587-6.594c-.698 1.75-.709 3.427-.039 5.039.67 1.611 1.9 2.845 3.693 3.715 1.008.487 2.021.758 3.04.808a6.749 6.749 0 0 0 2.962-.526l.548 2.021a7.72 7.72 0 0 1-3.66.664c-1.3-.072-2.602-.42-3.897-1.052-1.667-.808-2.974-1.882-3.915-3.216a8.55 8.55 0 0 1-1.578-4.408c-.11-1.605.216-3.2.986-4.789.77-1.583 1.805-2.84 3.1-3.759 1.301-.92 2.719-1.44 4.264-1.556 1.544-.117 3.067.188 4.573.919 1.5.731 2.68 1.733 3.538 3.012.853 1.279 1.318 2.707 1.395 4.28.072 1.578-.277 3.167-1.057 4.772l-.36.665-.006.005Zm-9.091-11.261c-1.545.487-2.78 1.495-3.704 3.028l11.522 5.587c.636-1.678.664-3.272.088-4.784-.576-1.511-1.655-2.652-3.244-3.422-1.567-.758-3.123-.897-4.662-.415v.006ZM83.77 191.312c1.252-.322 2.686-.277 4.303.138l-.582 2.298-.559-.177c-1.844-.466-3.427-.266-4.756.598-1.329.869-2.253 2.319-2.774 4.363l-2.264 8.919-2.365-.598 4.44-17.501 2.265.575-.869 3.428c.853-1.036 1.905-1.711 3.156-2.032l.006-.011ZM90.996 209.898c-1.29-.548-2.286-1.173-2.978-1.888l1.273-1.81c.698.664 1.595 1.234 2.696 1.722a11.37 11.37 0 0 0 3.5.902c1.639.155 2.879.017 3.71-.421.835-.437 1.295-1.124 1.383-2.059.061-.659-.105-1.202-.503-1.617-.399-.415-.92-.753-1.562-1.008-.642-.254-1.5-.526-2.58-.814-1.434-.409-2.58-.802-3.438-1.168a5.228 5.228 0 0 1-2.137-1.666c-.56-.742-.787-1.717-.67-2.929.144-1.506.886-2.675 2.231-3.511 1.345-.836 3.134-1.151 5.365-.941 1.163.111 2.309.377 3.444.792 1.135.415 2.054.913 2.757 1.484l-1.246 1.849c-1.384-1.168-3.1-1.844-5.149-2.038-1.55-.143-2.74.017-3.582.488-.836.47-1.301 1.151-1.384 2.043-.067.686.105 1.251.51 1.705.403.454.93.808 1.572 1.063.642.255 1.533.543 2.674.858 1.412.41 2.536.792 3.372 1.146a5.08 5.08 0 0 1 2.087 1.612c.554.719.775 1.661.665 2.823-.15 1.573-.925 2.758-2.32 3.555-1.396.797-3.256 1.085-5.581.869a13.806 13.806 0 0 1-4.125-1.03l.016-.011ZM149.896 14.119c.736 1.727.626 3.754-.332 6.08l-3.987 9.683-2.253-.93 3.892-9.457c.715-1.733.825-3.24.332-4.502-.492-1.267-1.544-2.23-3.15-2.895-1.799-.742-3.444-.792-4.928-.155-1.489.636-2.619 1.899-3.394 3.781l-3.61 8.76-2.253-.93L139.908 0l2.253.93-4.025 9.778c1.013-.72 2.17-1.124 3.466-1.207 1.296-.083 2.641.16 4.042.737 2.093.863 3.51 2.159 4.247 3.88h.005ZM152.902 33.381a8.621 8.621 0 0 1-.703-4.596c.183-1.6.797-3.106 1.844-4.523 1.046-1.417 2.309-2.453 3.782-3.095a8.49 8.49 0 0 1 4.589-.665c1.584.205 3.079.82 4.48 1.855 1.401 1.036 2.43 2.276 3.089 3.732a8.42 8.42 0 0 1 .703 4.574c-.193 1.594-.814 3.095-1.86 4.512-1.046 1.417-2.303 2.453-3.765 3.106a8.53 8.53 0 0 1-4.584.692c-1.595-.194-3.09-.808-4.485-1.838-1.401-1.035-2.425-2.281-3.079-3.748l-.011-.006Zm7.663 3.35c1.163.133 2.298-.061 3.4-.587 1.096-.526 2.054-1.34 2.873-2.447.814-1.108 1.313-2.26 1.49-3.466.177-1.207.033-2.348-.443-3.422-.471-1.074-1.224-1.993-2.254-2.752-1.03-.764-2.131-1.212-3.294-1.345a6.22 6.22 0 0 0-3.411.576c-1.107.52-2.07 1.328-2.884 2.436-.814 1.107-1.307 2.264-1.479 3.477a6.217 6.217 0 0 0 .454 3.427c.471 1.074 1.224 1.993 2.254 2.752 1.03.758 2.131 1.207 3.294 1.345v.006ZM195.824 57.388c-.31 1.81-1.495 3.455-3.56 4.934l-8.516 6.09-1.417-1.982 8.321-5.952c1.528-1.09 2.425-2.292 2.702-3.599.272-1.307-.066-2.63-1.024-3.97-1.091-1.528-2.42-2.392-3.986-2.591-1.567-.205-3.179.288-4.834 1.473l-7.707 5.514-1.418-1.982 8.322-5.952c1.528-1.09 2.425-2.292 2.702-3.599.271-1.306-.072-2.64-1.046-3.997-1.08-1.506-2.403-2.37-3.976-2.58-1.572-.21-3.189.276-4.844 1.461l-7.708 5.515-1.417-1.982 14.683-10.504 1.357 1.9-2.68 1.915a6.564 6.564 0 0 1 3.627.698c1.151.587 2.159 1.484 3.023 2.69.88 1.23 1.378 2.481 1.506 3.755.122 1.273-.166 2.502-.87 3.682 1.357-.155 2.669.083 3.943.703 1.273.62 2.375 1.583 3.311 2.885 1.317 1.843 1.821 3.67 1.511 5.48l-.005-.005ZM197.545 85.92l-4.584-14.39c-1.744.703-2.973 1.849-3.677 3.443-.703 1.595-.753 3.339-.149 5.238.343 1.069.841 1.988 1.511 2.763a6.73 6.73 0 0 0 2.425 1.788l-1.085 1.788c-1.157-.47-2.159-1.201-3.006-2.192-.847-.991-1.484-2.176-1.921-3.55-.565-1.765-.687-3.449-.366-5.054a8.52 8.52 0 0 1 2.11-4.186c1.085-1.185 2.469-2.049 4.147-2.586 1.677-.537 3.3-.647 4.861-.343 1.561.305 2.918.98 4.064 2.021 1.146 1.04 1.977 2.353 2.48 3.948.51 1.589.593 3.14.255 4.64a8.235 8.235 0 0 1-2.143 3.958c-1.09 1.14-2.486 1.983-4.185 2.525l-.731.2-.006-.012Zm1.894-14.352c-1.418-.786-3.001-.986-4.745-.592l3.887 12.203c1.65-.698 2.829-1.772 3.526-3.234.698-1.461.781-3.028.25-4.706-.526-1.656-1.501-2.88-2.918-3.665v-.006Z" fill="#000"/></g><defs><clipPath id="a"><path fill="#fff" d="M0 0h210.291v211H0z"/></clipPath></defs></svg>