<svg width="48" height="48" viewBox="0 0 48 48" fill="none" xmlns="http://www.w3.org/2000/svg"><rect width="48" height="48" rx="4" fill="#D6D8C1"/><path fill-rule="evenodd" clip-rule="evenodd" d="M19.744 17.916a.812.812 0 0 1 .746-.095l14.625 5.417c.319.118.53.422.53.762v10.833a.813.813 0 0 1-.812.813H20.208a.813.813 0 0 1-.813-.813v-16.25c0-.265.13-.515.349-.666Zm1.276 1.835v14.27h13v-9.455l-13-4.815Z" fill="#1C1C1C"/><path fill-rule="evenodd" clip-rule="evenodd" d="M20.853 18.088a.812.812 0 0 1-.149 1.14L13.979 24.4v9.62h6.23a.813.813 0 0 1 0 1.626h-7.042a.813.813 0 0 1-.813-.813V24c0-.252.118-.49.318-.644l7.041-5.417a.812.812 0 0 1 1.14.149ZM24.608 26.05a.812.812 0 0 1 .732-.112l4.875 1.625c.332.11.555.42.555.77v6.5a.813.813 0 0 1-1.625 0V28.92l-3.25-1.083v6.997a.813.813 0 0 1-1.625 0v-8.125c0-.26.126-.506.338-.659Z" fill="#1C1C1C"/><path fill-rule="evenodd" clip-rule="evenodd" d="M19.395 34.833c0-.448.364-.812.813-.812h14.625a.812.812 0 1 1 0 1.625H20.208a.813.813 0 0 1-.813-.813Z" fill="#1C1C1C"/></svg>