<svg width="48" height="48" viewBox="0 0 48 48" fill="none" xmlns="http://www.w3.org/2000/svg"><rect width="48" height="48" rx="4" fill="#D6D8C1"/><path d="M24.857 15.668c.608-.003 1.216.003 1.824.018l.161.006c.187.006.371.015.594.025.886.041 1.491.181 2.022.387.55.212 1.014.498 1.477.962.424.416.751.92.96 1.476.207.53.347 1.136.388 2.023l.025.593.005.162c.015.608.021 1.215.02 1.823v1.714c.002.608-.004 1.216-.019 1.824l-.005.162-.025.593c-.042.887-.183 1.491-.388 2.022a4.07 4.07 0 0 1-.961 1.477c-.417.424-.92.752-1.477.96-.53.207-1.136.347-2.022.388-.223.01-.407.019-.594.025l-.161.005c-.608.015-1.216.022-1.825.02h-1.712a66.036 66.036 0 0 1-1.824-.019l-.162-.005a51.075 51.075 0 0 1-.593-.025c-.887-.041-1.492-.183-2.024-.388a4.075 4.075 0 0 1-1.475-.961 4.085 4.085 0 0 1-.962-1.477c-.206-.53-.346-1.135-.387-2.022-.01-.198-.018-.396-.026-.593l-.004-.162a66.037 66.037 0 0 1-.02-1.824v-1.714c-.003-.608.003-1.215.018-1.823l.006-.162c.006-.186.015-.371.025-.593.041-.888.181-1.492.387-2.023.21-.557.538-1.06.963-1.475a4.08 4.08 0 0 1 1.476-.963c.531-.206 1.135-.346 2.023-.387l.593-.025.162-.005a65.975 65.975 0 0 1 1.823-.02h1.713ZM24 19.834a4.166 4.166 0 1 0 0 8.333 4.167 4.167 0 1 0 0-8.333Zm0 1.667a2.5 2.5 0 1 1 0 4.999 2.5 2.5 0 1 1 0-5Zm4.375-2.917a1.042 1.042 0 0 0 0 2.082 1.042 1.042 0 0 0 0-2.084v.002Z" fill="#1F1F1F"/></svg>