<svg width="48" height="48" viewBox="0 0 48 48" fill="none" xmlns="http://www.w3.org/2000/svg"><rect width="48" height="48" rx="4" fill="#D6D8C1"/><path d="M15.667 30.25h16.667v-12.5H15.667v12.5Z" fill="#1C1B1E"/><path fill-rule="evenodd" clip-rule="evenodd" d="M15.042 17.75c0-.345.28-.625.625-.625h16.667c.345 0 .625.28.625.625v12.5c0 .345-.28.625-.625.625H15.667a.625.625 0 0 1-.625-.625v-12.5Zm1.25.625v11.25h15.417v-11.25H16.292Z" fill="#1C1B1E"/><path fill-rule="evenodd" clip-rule="evenodd" d="M15.167 17.375a.625.625 0 0 1 .875-.125L24 23.219l7.959-5.969a.625.625 0 0 1 .75 1l-8.334 6.25a.625.625 0 0 1-.75 0l-8.333-6.25a.625.625 0 0 1-.125-.875Z" fill="#F2EFE4"/><path fill-rule="evenodd" clip-rule="evenodd" d="M15.042 17.75c0-.345.28-.625.625-.625H24a.625.625 0 1 1 0 1.25h-7.708V24a.625.625 0 1 1-1.25 0v-6.25Z" fill="#1C1B1E"/><path fill-rule="evenodd" clip-rule="evenodd" d="M23.375 17.75c0-.345.28-.625.625-.625h8.333c.346 0 .625.28.625.625V24a.625.625 0 1 1-1.25 0v-5.625H24a.625.625 0 0 1-.625-.625Z" fill="#1C1B1E"/></svg>