<svg width="48" height="48" viewBox="0 0 48 48" fill="none" xmlns="http://www.w3.org/2000/svg"><rect width="48" height="48" rx="4" fill="#D6D8C1"/><path d="M20.814 17.84c.285 0 .547.155.686.404l.96 1.729c.125.226.13.5.015.731l-.924 1.849s.268 1.377 1.389 2.497c1.12 1.122 2.493 1.385 2.493 1.385l1.848-.924a.785.785 0 0 1 .732.016l1.733.963c.249.139.403.4.403.686v1.99c0 1.012-.94 1.744-1.9 1.42-1.973-.665-5.033-1.932-6.973-3.872-1.94-1.94-3.207-5-3.872-6.972-.324-.96.408-1.901 1.42-1.901h1.99Z" fill="#1C1B1E"/><path fill-rule="evenodd" clip-rule="evenodd" d="M18.825 18.43c-.645 0-1.048.578-.864 1.124.662 1.96 1.894 4.907 3.731 6.744 1.837 1.838 4.785 3.07 6.744 3.731.547.184 1.125-.218 1.125-.864v-1.99a.196.196 0 0 0-.1-.17l-1.734-.964a.196.196 0 0 0-.183-.004l-1.848.924a.588.588 0 0 1-.374.052l.111-.578-.11.578h-.002l-.003-.001-.005-.001-.018-.004a3.055 3.055 0 0 1-.257-.066 5.809 5.809 0 0 1-.662-.237 5.896 5.896 0 0 1-1.852-1.237 5.922 5.922 0 0 1-1.24-1.854 5.882 5.882 0 0 1-.291-.862 2.617 2.617 0 0 1-.014-.059l-.003-.017-.002-.006v-.003l.577-.113-.577.113a.59.59 0 0 1 .05-.376l.925-1.849a.196.196 0 0 0-.004-.183l-.96-1.728a.196.196 0 0 0-.17-.1h-1.99Zm3.35 4.19v.001c.037.127.098.312.19.53.188.436.498.99.99 1.484m0 0a4.723 4.723 0 0 0 1.482.987 4.635 4.635 0 0 0 .527.189l1.654-.826a1.373 1.373 0 0 1 1.281.028l1.733.963c.436.242.706.701.706 1.2v1.99c0 1.38-1.304 2.441-2.678 1.978-1.984-.67-5.157-1.971-7.2-4.014-2.042-2.042-3.344-5.216-4.013-7.2-.464-1.373.597-2.677 1.978-2.677h1.99c.498 0 .957.27 1.2.706l.959 1.728c.22.396.23.875.027 1.28l-.826 1.653" fill="#1C1B1E"/></svg>