<svg width="48" height="48" viewBox="0 0 48 48" fill="none" xmlns="http://www.w3.org/2000/svg"><rect width="48" height="48" rx="4" fill="#D6D8C1"/><path fill-rule="evenodd" clip-rule="evenodd" d="M23.406 12.185a.841.841 0 0 1 1.19 0l3.927 3.927a.841.841 0 0 1 0 1.19l-3.927 3.927a.841.841 0 0 1-1.19 0l-3.927-3.927a.841.841 0 0 1 0-1.19l3.927-3.927Zm-2.142 4.522L24 19.444l2.736-2.737-2.736-2.737-2.737 2.737ZM30.699 20.04a.841.841 0 0 1 1.19 0l3.927 3.926a.841.841 0 0 1 0 1.19l-3.927 3.927a.841.841 0 0 1-1.19 0l-3.927-3.927a.841.841 0 0 1 0-1.19l3.927-3.927Zm-2.142 4.521 2.737 2.737 2.737-2.737-2.737-2.737-2.737 2.737ZM23.406 26.77a.841.841 0 0 1 1.19 0l3.927 3.928a.841.841 0 0 1 0 1.19l-3.927 3.927a.841.841 0 0 1-1.19 0l-3.927-3.927a.841.841 0 0 1 0-1.19l3.927-3.927Zm-2.142 4.523L24 34.029l2.736-2.736-2.736-2.737-2.737 2.737ZM16.113 19.478a.841.841 0 0 1 1.19 0l3.927 3.927a.841.841 0 0 1 0 1.19l-3.927 3.927a.841.841 0 0 1-1.19 0l-3.927-3.927a.841.841 0 0 1 0-1.19l3.927-3.927ZM13.97 24l2.737 2.737L19.445 24l-2.737-2.737L13.97 24Z" fill="#1C1B1E"/></svg>