<svg width="48" height="48" viewBox="0 0 48 48" fill="none" xmlns="http://www.w3.org/2000/svg"><rect width="48" height="48" rx="4" fill="#D6D8C1"/><path fill-rule="evenodd" clip-rule="evenodd" d="M32.333 24a8.333 8.333 0 1 1-16.667 0 8.333 8.333 0 0 1 16.667 0Zm-7.781-2.198c-.821.337-2.462 1.035-4.922 2.093-.4.157-.61.31-.628.46-.033.255.289.354.727.49l.185.058c.43.139 1.01.3 1.312.307.273.006.578-.106.915-.334 2.3-1.532 3.486-2.307 3.56-2.323.053-.012.126-.027.175.016.05.044.045.126.04.148-.032.134-1.295 1.293-1.948 1.893-.204.187-.349.32-.378.35a7.414 7.414 0 0 1-.199.193c-.4.381-.7.667.017 1.134.345.224.62.41.896.594.3.203.6.404.988.655.098.064.193.13.285.195.35.246.664.467 1.052.432.225-.02.458-.23.577-.854.28-1.476.829-4.674.956-5.992a1.443 1.443 0 0 0-.014-.328.35.35 0 0 0-.12-.225.56.56 0 0 0-.327-.097c-.318.005-.805.172-3.149 1.135Z" fill="#1C1C1C"/></svg>