<svg width="715" height="478" viewBox="0 0 715 478" fill="none" xmlns="http://www.w3.org/2000/svg"><mask id="a" style="mask-type:alpha" maskUnits="userSpaceOnUse" x="0" y="0" width="715" height="478"><path d="M165 0 0 146v243.5L330.053 478l126.382-24.155 77.21-23.724 79.366-104.383L715 182.5 533.645 8.704 165 0Z" fill="#D9D9D9"/></mask><g mask="url(#a)" fill="#BFBCB4"><path d="M807.279 522.752h-8.237l-4.61-12.188a.475.475 0 0 0-.516-.316.455.455 0 0 0-.198.082l-8.812 6.167h-5.174v-8.336l16.434-6.575 3.329-2.367 7.427 3.592a.444.444 0 0 0 .201.048.47.47 0 0 0 .302-.111.52.52 0 0 0 .13-.615.491.491 0 0 0-.228-.233l-6.888-3.371 6.928-5.101a.523.523 0 0 0 .11-.707.471.471 0 0 0-.677-.116l-7.611 5.587-3.454 2.486-16.657 6.646h-.023l-3.086 1.515h-5.281l2.102-10.079 6.925-20.326a.527.527 0 0 0-.173-.592.473.473 0 0 0-.581.018l-9.172 7.623a.487.487 0 0 0-.153.228l-2.884 8.652h-4.14l-1.587-1.598v-7.534l12.709-22.489h5.528c.127 0 .25-.053.34-.147a.51.51 0 0 0 .141-.356.514.514 0 0 0-.141-.356.472.472 0 0 0-.34-.147h-5.322v-8.957l7.039 2.503c.12.04.251.03.363-.03a.493.493 0 0 0 .239-.288.52.52 0 0 0-.022-.38.488.488 0 0 0-.271-.254l-7.169-2.551 7.452-17.086a.524.524 0 0 0 0-.374.488.488 0 0 0-.247-.271.464.464 0 0 0-.358-.018.494.494 0 0 0-.271.246l-7.406 16.976-2.834-2.589.765-.956a.526.526 0 0 0 .111-.322v-7.623a.54.54 0 0 0-.029-.178l-9.478-26.581 3.1-7.043a.238.238 0 0 0 .017-.071s0-.014.014-.023l2.621-11.727a.525.525 0 0 0-.076-.361.482.482 0 0 0-.291-.21.47.47 0 0 0-.351.052.502.502 0 0 0-.222.288l-2.533 11.339h-4.534l-6.166-3.622a.446.446 0 0 0-.235-.068l-34.633-.195-16.239-9.144a.462.462 0 0 0-.367-.038.485.485 0 0 0-.286.244.527.527 0 0 0-.037.384.498.498 0 0 0 .234.298l16.343 9.203c.07.038.148.059.227.059l3.332.021-1.912 8.945v.021l-1.868 11.016-6.613 8.774-2.833-1.394a.468.468 0 0 0-.482.045l-4.313 3.154-4.25-2.154a.464.464 0 0 0-.21-.05h-4.318l-2.68-21.193a.508.508 0 0 0-.186-.332.467.467 0 0 0-.675.092.504.504 0 0 0-.094.373l2.663 21.06h-7.191l-3.624-3.099a.473.473 0 0 0-.68.072.514.514 0 0 0 .068.707l3.757 3.213a.465.465 0 0 0 .306.116h7.492l.997 7.874a.51.51 0 0 0 .159.313.468.468 0 0 0 .317.125h.065a.48.48 0 0 0 .318-.194.52.52 0 0 0 .096-.371l-.98-7.744h4.08l4.412 2.228c.065.033.137.05.209.05a.458.458 0 0 0 .284-.092l4.318-3.154 2.105 1.036-3.663 2.252-33.937 20.882h-.034a.304.304 0 0 0-.051.056.439.439 0 0 0-.065.071.55.55 0 0 0-.04.089.488.488 0 0 0-.031.086.444.444 0 0 0 0 .103.412.412 0 0 0 0 .086.556.556 0 0 0 .034.107c0 .02 0 .044.023.068v.02l29.717 45.866.85 6.336a.532.532 0 0 0 .119.263l15.301 17.84v6.51h-4.094a.467.467 0 0 0-.241.068l-7.999 4.865h-8.543a.48.48 0 0 0-.329.133l-9.067 8.806a.508.508 0 0 0-.139.243l-1.839 7.353-.345.385-21.2-22.332 4.72-13.573 14.023-19.489a.504.504 0 0 0 .128-.39.52.52 0 0 0-.194-.359.459.459 0 0 0-.57 0 .499.499 0 0 0-.135.157l-13.765 19.131-4.459-3.776a.468.468 0 0 0-.536-.053l-5.134 2.932a.485.485 0 0 0-.184.184l-13.151 22.983-5.411 11.561-22.668-13.02a.457.457 0 0 0-.554.07.499.499 0 0 0-.115.167l-3.086 7.326-6.463-3.471v-52.228h4.336l4.887 5.066a.468.468 0 0 0 .683-.003.516.516 0 0 0 0-.71l-4.199-4.353h9.6a.47.47 0 0 0 .382-.195l5.489-7.427a.528.528 0 0 0 .099-.296v-4.738h9.758v10.816c.001.134.05.262.139.358l1.133 1.184v1.402l-1.983 3.181a.524.524 0 0 0 .119.681l1.7 1.287-3.63 5.326-6.851 13.322-14.068 11.727a.517.517 0 0 0 .031.79c.078.06.172.094.269.098.11 0 .216-.04.301-.113l14.147-11.792a.464.464 0 0 0 .125-.156l6.831-13.367 3.729-5.456h3.134a.47.47 0 0 0 .258-.082.495.495 0 0 0 .175-.214l5.285-11.541a.514.514 0 0 0 .048-.219v-5.163h1.468v20.802c0 .134.051.262.141.356.09.094.213.147.341.147.127 0 .25-.053.34-.147a.515.515 0 0 0 .141-.356v-28.978l4.534-3.234 25.13-24.081h8.5a.47.47 0 0 0 .341-.148.514.514 0 0 0 0-.711.472.472 0 0 0-.341-.147h-8.693a.473.473 0 0 0-.326.13l-7.724 7.397-10.753-11.404a.47.47 0 0 0-.681-.007.514.514 0 0 0-.007.711l10.73 11.381-16.771 16.124-4.316 3.081L640 456.333a.532.532 0 0 0 .141.047.48.48 0 0 0 .388-.201l13.799-19.258a.496.496 0 0 0 .099-.18.52.52 0 0 0-.173-.56.47.47 0 0 0-.699.148l-13.799 19.255a.503.503 0 0 0-.088.343l-11.787-14.7-1.238-21.306a.497.497 0 0 0-.318-.441l-8.421-3.213-2.179-4.93-2.456-10.463-3.069-9.869 1.077-3.154h2.655c.127 0 .25-.053.34-.148a.51.51 0 0 0 .141-.355v-11.467a.51.51 0 0 0-.141-.355.469.469 0 0 0-.681 0 .514.514 0 0 0-.141.355v10.964h-2.513c-.1 0-.197.032-.278.092a.506.506 0 0 0-.176.242l-1.246 3.649a.546.546 0 0 0 0 .325l3.116 9.996 2.477 10.516 2.295 5.211a.49.49 0 0 0 .283.264l8.314 3.172 1.227 21.146a.504.504 0 0 0 .113.295l2.944 3.676v2.459l-11.564 6.989h-11.537a.472.472 0 0 0-.341.147.519.519 0 0 0-.141.356v21.092h-67.122l-6.001-3.317v-3.021a.519.519 0 0 0-.141-.356.474.474 0 0 0-.341-.147h-6.075l4.171-16.938a.518.518 0 0 0-.178-.529.478.478 0 0 0-.535-.031.502.502 0 0 0-.222.309l-4.786 19.447h-11.351a.463.463 0 0 0-.209.05.499.499 0 0 0-.258.565l.875 3.968h-31.726l-3.641-12.993a.5.5 0 0 0-.284-.323l-7.539-3.323v-7.211a.514.514 0 0 0-.1-.296l-4.533-6.235V441.2l4.395-2.527a.497.497 0 0 0 .246-.385.522.522 0 0 0-.161-.435l-3.429-3.139 1.717-7.51h3.738c.127 0 .25-.053.34-.148a.514.514 0 0 0 .141-.355v-2.738a.504.504 0 0 0-.102-.295l-2.734-3.688 1.088-1.136 3.029 3.516a.46.46 0 0 0 .283.156l14.952 2.794v3.489a.554.554 0 0 0 .041.2.497.497 0 0 0 .112.166l3.775 3.661-1.896 1.977a.532.532 0 0 0-.127.473.495.495 0 0 0 .32.361l6.296 2.166 3.275 4.566c.059.08.138.139.229.172.09.033.188.037.281.011l8.379-2.311v3.389a.509.509 0 0 0 .283.455l8.019 3.909a.473.473 0 0 0 .564-.123.52.52 0 0 0 .048-.599l-2.516-4.205 1.346-3.187 3.805-5.548a.52.52 0 0 0-.109-.706.472.472 0 0 0-.676.114l-3.853 5.622-1.499 3.522a.513.513 0 0 0 .034.47l1.788 2.989-6.265-3.054v-3.687a.51.51 0 0 0-.188-.397.465.465 0 0 0-.416-.088l-8.67 2.391-3.174-4.421a.48.48 0 0 0-.235-.175l-5.695-1.959 1.7-1.775a.512.512 0 0 0 .145-.362.512.512 0 0 0-.145-.363l-4.015-3.888v-3.699a.524.524 0 0 0-.112-.324.483.483 0 0 0-.285-.173l-15.184-2.835-3.259-3.782a.457.457 0 0 0-.345-.165.476.476 0 0 0-.355.148l-1.745 1.822a.512.512 0 0 0-.04.663l2.893 3.906v2.072h-3.635a.46.46 0 0 0-.3.108.507.507 0 0 0-.17.279l-1.7 7.377-5.478-5.013v-4.346a.508.508 0 0 0-.053-.234l-3.996-7.936a.48.48 0 0 0-.425-.27h-12.096l-8.387-20.625h24.651l25.045 9.322a.467.467 0 0 0 .471-.089.517.517 0 0 0 .106-.638.488.488 0 0 0-.254-.22l-24.804-9.233v-14.91h26.986v13.434c0 .133.051.261.141.355a.467.467 0 0 0 .681 0 .51.51 0 0 0 .142-.355V379.77h19.961a.47.47 0 0 0 .341-.148.515.515 0 0 0 0-.711.47.47 0 0 0-.341-.148h-19.961V365.27l14.717-.468a.472.472 0 0 0 .336-.157.506.506 0 0 0 .131-.36.53.53 0 0 0-.151-.352.471.471 0 0 0-.345-.137l-14.688.468v-12.769h6.259a.47.47 0 0 0 .34-.147.51.51 0 0 0 .141-.356.51.51 0 0 0-.141-.355.467.467 0 0 0-.34-.148h-6.259v-13.827h5.04a.481.481 0 0 0 .319-.161.519.519 0 0 0 0-.688.481.481 0 0 0-.319-.161h-5.052v-13.23h3.318a.472.472 0 0 0 .341-.147.515.515 0 0 0 0-.711.47.47 0 0 0-.341-.148h-3.318v-12.842a.517.517 0 0 0-.089-.291.479.479 0 0 0-.234-.183l-4.168-1.521v-13.472h4.31a.475.475 0 0 0 .318-.161.52.52 0 0 0 0-.688.474.474 0 0 0-.318-.16h-14.014v-27.611h9.917l.164 2.453a.513.513 0 0 0 .153.333.474.474 0 0 0 .329.134h.034a.464.464 0 0 0 .329-.171.522.522 0 0 0 .116-.364l-1.134-16.9 19.718 17.32a.47.47 0 0 0 .672-.067.513.513 0 0 0 .112-.362.51.51 0 0 0-.163-.341l-20.571-18.077-6.8-6.436 3.941-4.716a.517.517 0 0 0 .119-.332v-12.629l13.142 16.47a.466.466 0 0 0 .326.179.474.474 0 0 0 .47-.268.516.516 0 0 0-.057-.556l-14.972-18.764-.98-8.951h25.15l22.744-3.903 15.471.391a.563.563 0 0 0 .198-.039l7.132-3.119 8.894 3.223 6.1 6.178c.089.092.21.143.335.142h22.101a.49.49 0 0 0 .156-.026l12.039-4.303a.464.464 0 0 0 .174-.092.509.509 0 0 0 .179-.354.532.532 0 0 0-.024-.202.485.485 0 0 0-.449-.34.473.473 0 0 0-.192.038l-11.962 4.27H566.27l-6.041-6.104a.45.45 0 0 0-.179-.116l-9.169-3.323a.467.467 0 0 0-.345 0l-7.206 3.143-15.457-.382-22.758 3.903H479.94l-1.273-11.632 4.225-7.146 8.047-6.158 18.2-1.163a.48.48 0 0 0 .391-.257l14.362-26.972 8.818-5.362a.504.504 0 0 0 .204-.244.525.525 0 0 0 .019-.323.5.5 0 0 0-.173-.268.458.458 0 0 0-.293-.103H516.44l-7.282-3.131a.48.48 0 0 0-.167-.039l-27.317-.911a.424.424 0 0 0-.397.195l-11.184 15.183-8.171 5.818a.504.504 0 0 0-.154.182.531.531 0 0 0-.056.235v7.3l-2.139 4.108-6.381 5.758-13.958-17.488-13.884-16.897c.34-2.071.618-3.846.748-4.713l7.186-9.046 5.038-5.279a.518.518 0 0 0 .14-.357.518.518 0 0 0-.14-.357l-13.057-13.635 1.859-1.71a.506.506 0 0 0 .163-.346.502.502 0 0 0-.27-.484.467.467 0 0 0-.531.075l-17.434 16.026-18.899-23.001a.474.474 0 0 0-.66-.028.518.518 0 0 0-.074.685l18.908 23.007-3.919 3.601-19.112-22.539a.467.467 0 0 0-.68-.044.507.507 0 0 0-.162.346.53.53 0 0 0 .12.364l19.109 22.539-4.769 4.406-18.877-22.489a.47.47 0 0 0-.681-.046.514.514 0 0 0-.163.347.512.512 0 0 0 .119.365l18.879 22.46-5.383 4.953-18.588-22.397a.472.472 0 0 0-.68-.051.516.516 0 0 0-.048.711l18.593 22.403-15.411 14.162-9.572-11.487a.489.489 0 0 0-.147-.121.481.481 0 0 0-.181-.051.487.487 0 0 0-.352.122l-9.721 8.838-10.297-13.783 12.425-11.836a.517.517 0 0 0-.119-.829.463.463 0 0 0-.369-.018.47.47 0 0 0-.161.101l-12.371 11.777-3.165-4.237 6.8-6.806a.515.515 0 0 0-.004-.692.47.47 0 0 0-.662-.033l-6.715 6.732-1.983-2.637 4.25-.935a.457.457 0 0 0 .229-.124l8.869-8.614a.515.515 0 0 0 .027-.712.472.472 0 0 0-.335-.161.473.473 0 0 0-.346.133l-8.784 8.522-4.834 1.06h-11.504l7.724-1.063a.472.472 0 0 0 .283-.142l8.526-8.904a.51.51 0 0 0 .141-.356.51.51 0 0 0-.142-.355.474.474 0 0 0-.341-.147.471.471 0 0 0-.34.148l-8.399 8.795-14.405 1.982-2.803-13.582h23.518a.472.472 0 0 0 .341-.147.519.519 0 0 0 0-.712.472.472 0 0 0-.341-.147h-34.817a.472.472 0 0 0-.341.147.519.519 0 0 0-.141.356v14.144h-13.011V105.35a.51.51 0 0 0-.108-.32l-17.797-22.613-2.967-7.874a.5.5 0 0 0-.263-.281l-4.639-1.989-1.547-6.835.485-6.214 9.571-20.338a.52.52 0 0 0-.017-.346.497.497 0 0 0-.228-.252.461.461 0 0 0-.329-.039.482.482 0 0 0-.276.193l-9.614 20.418a.51.51 0 0 0-.045.18l-.499 6.386a.516.516 0 0 0 0 .157l1.59 7.03-2.454 7.946a.496.496 0 0 0-.02.213l1.134 9.966-.499 34.917v10.611h-12.955V124.4a.51.51 0 0 0-.141-.355.469.469 0 0 0-.681 0 .514.514 0 0 0-.141.355v11.866h-12.385v-12.428a.514.514 0 0 0-.141-.355.467.467 0 0 0-.681 0 .51.51 0 0 0-.142.355v12.428h-5.465v-12.667a.521.521 0 0 0-.154-.333.472.472 0 0 0-.659 0 .521.521 0 0 0-.154.333v12.667h-19.196v-7.14l4.655-15.218a.497.497 0 0 0 0-.323l-1.683-4.888a.51.51 0 0 0-.198-.258l-9.223-5.965-4.622-13.316a.504.504 0 0 0-.199-.255.473.473 0 0 0-.308-.074l-9.741 1.151-2.834-2.041s-.031 0-.045-.018a.485.485 0 0 0-.145-.056h-.028l-17.23-2.17a.447.447 0 0 0-.284.057l-16.357 9.318-5.021-.201-9.277-4.069a.465.465 0 0 0-.536.124.497.497 0 0 0-.101.172l-3.058 8.472a.565.565 0 0 0-.031.204l.873 17.852a.52.52 0 0 0 .15.339c.09.089.208.139.332.141h6.516v14.81h-1.272a.472.472 0 0 0-.34.147.51.51 0 0 0-.141.356v17.754h-12.267v-10.265h1.902a.459.459 0 0 0 .195-.044.502.502 0 0 0 .162-.121l6.25-7.25a.51.51 0 0 0 .085-.559.493.493 0 0 0-.278-.261.47.47 0 0 0-.523.148l-6.118 7.081h-2.156a.471.471 0 0 0-.341.148.514.514 0 0 0-.141.355v10.768h-27.453a.47.47 0 0 0-.341.148.514.514 0 0 0 0 .711c.09.094.213.147.341.147h27.467v12.482h-27.467a.472.472 0 0 0-.341.147.517.517 0 0 0 0 .712c.09.094.213.147.341.147h27.467v13.979h-27.467a.472.472 0 0 0-.341.147.515.515 0 0 0 0 .711.47.47 0 0 0 .341.148h27.467v28.052h-13.26v-13.701a.581.581 0 0 0-.02-.094.488.488 0 0 0-.02-.101l-4.041-9.567a.47.47 0 0 0-.442-.296H99.66a.47.47 0 0 0-.34.148.513.513 0 0 0-.142.355c0 .134.051.262.141.356.09.094.213.147.34.147h10.547l3.616 8.561H76.635a.461.461 0 0 0-.283.089l-6.45 4.655-9.27 3.473a.492.492 0 0 0-.26.261.524.524 0 0 0-.014.375.497.497 0 0 0 .239.281.46.46 0 0 0 .358.03l9.33-3.494a.684.684 0 0 0 .114-.062l6.378-4.602h37.308v13.198h-12.246a.474.474 0 0 0-.341.147.515.515 0 0 0 0 .711.471.471 0 0 0 .341.148h12.246v14.109h-11.104a.472.472 0 0 0-.341.147.515.515 0 0 0 0 .711.47.47 0 0 0 .341.148h11.104v15.257l-12.252.157-13.215.21a.485.485 0 0 0-.371-.196.47.47 0 0 0-.38.208l-13.932.222v-5.031h10.824l17.173-3.551a.493.493 0 0 0 .38-.395.51.51 0 0 0-.205-.517.463.463 0 0 0-.362-.076l-17.08 3.53H73.453a.472.472 0 0 0-.34.147.517.517 0 0 0-.141.356v5.56l-36.034.574v-17.565L44 212.563a.531.531 0 0 0 .08-.278v-7.782a.517.517 0 0 0-.154-.333.475.475 0 0 0-.659 0 .517.517 0 0 0-.154.333v7.631l-7.058 11.159a.517.517 0 0 0-.08.275v18.208c.004.04.012.079.024.118a.348.348 0 0 0 0 .05l2.81 8.286-5.066 14.615h-6.146a.478.478 0 0 0-.388.204l-3.494 4.95a.528.528 0 0 0-.079.184L21 281.768v23.844a.447.447 0 0 0 .037.124.539.539 0 0 0-.037.192v13.106c0 .126.046.248.128.341l15.584 17.852a.463.463 0 0 0 .674.032l11.9 15.571v10.014c0 .096.027.19.077.271.05.081.122.145.207.184l3.941 1.903 8.696 10.733v4.379a.518.518 0 0 0 .139.356.47.47 0 0 0 .68.001.516.516 0 0 0 .142-.354v-3.82l10.155 4.285a.49.49 0 0 0 .181.035h13.538l3.84 1.971a.453.453 0 0 0 .493-.045l6.817-5.131h3.919a.47.47 0 0 0 .34-.147.512.512 0 0 0 0-.711.467.467 0 0 0-.34-.148h-4.075c-.101 0-.2.033-.283.095l-6.707 5.051-3.683-1.879a.452.452 0 0 0-.213-.053H73.59l-10.62-4.48-8.804-10.863a.509.509 0 0 0-.165-.133l-3.757-1.814v-9.869a.518.518 0 0 0-.105-.313L38.406 336.99l3.837-1.938 2.108 2.198c.09.095.212.148.34.148h14.368v15.133a.514.514 0 0 0 .085.296l3.137 4.776a.48.48 0 0 0 .812-.011.509.509 0 0 0 .067-.379.509.509 0 0 0-.074-.181l-3.052-4.646v-14.979h27.74v8.623a.525.525 0 0 0 .127.383.485.485 0 0 0 .356.162.487.487 0 0 0 .458-.34.526.526 0 0 0 .025-.205v-8.623h13.382c.086 0 .17-.023.244-.068l4.981-3.024h6.749v12.668l1.094 18.385-13.362.627a.472.472 0 0 0-.338.156.514.514 0 0 0 .016.711.472.472 0 0 0 .344.139h.023l13.816-.654h.088l12.543-2.122v1.625c0 .133.051.261.142.356a.47.47 0 0 0 .34.147h17.593c.1 0 .197-.032.278-.092a.491.491 0 0 0 .175-.242l1.159-3.394 4.231-.974a.49.49 0 0 0 .235-.133l7.696-7.91c3.176.409 10.041 1.264 10.651 1.139.654-.136 1.153-1.183 1.453-2.071l4.157 1.533a.461.461 0 0 0 .544-.169l2.244-3.059 4.25 2.459a.34.34 0 0 0 .068.023c.026.011.053.02.08.027.04.004.081.004.121 0h.057l5.1-1.054-4.899 12.429a.533.533 0 0 0-.022.296l.872 3.911a.512.512 0 0 0 .25.332l8.732 4.69a.454.454 0 0 0 .221.056.517.517 0 0 0 .151-.023l6.8-2.32h11.654a.472.472 0 0 0 .341-.148.505.505 0 0 0 .141-.355v-5.475a.623.623 0 0 0-.02-.142l-3.216-11.496 1.638-13.002 27.592 15.183h.065l.057.024 41.173 9.321v11.449l-2.641 1.674a.495.495 0 0 0-.159.166l-5.74 9.765a.501.501 0 0 0-.068.296l1.246 16.275a.553.553 0 0 0 .077.237l3.29 5.217v9.034a.513.513 0 0 0 .192.401.473.473 0 0 0 .423.084l5.788-1.702 4.69 2.888a.47.47 0 0 0 .36.057l8.389-2.16 3.219 2.524 2.519 5.261v10.173c0 .134.051.262.141.356a.47.47 0 0 0 .681 0 .512.512 0 0 0 .142-.356v-9.791h4.836l-.918.967a.515.515 0 0 0 .146.843.468.468 0 0 0 .537-.136l8.027-8.442 4.871 1.663a.482.482 0 0 0 .385-.038l5.951-3.445 8.463.77a.491.491 0 0 0 .383-.148l4.457-4.655 13.371 5.356c.07.026.144.037.218.033l7.146-.728v5.545l-6.233 2.418a.475.475 0 0 0-.225.179.52.52 0 0 0-.09.279l-1.133 38.782 1.499 11.727a.488.488 0 0 0 .141.296l7.716 7.868v5.457c0 .071.014.142.042.207l8.88 20.417v7.904l-14.629 5.983a.485.485 0 0 0-.221.185.525.525 0 0 0-.085.283v4.143l-1.527 1.183h-4.468l-3.429-4.793a.476.476 0 0 0-.283-.193l-3.942-.811a.474.474 0 0 0-.402.107l-3.072 2.663-5.086 1.879a.782.782 0 0 0-.104.053l-3.401 2.329h-9.024a.486.486 0 0 0-.371.184l-4.534 5.696a.511.511 0 0 0-.113.322v11.263l-14.063 12.579-9.792 1.435-8.809 2.577-6.424-9.424a.49.49 0 0 0-.343-.21.457.457 0 0 0-.38.133l-1.824 1.775a.492.492 0 0 0-.153.367v5.738l-5.951 8.229-5.95.559a.462.462 0 0 0-.205.071.495.495 0 0 0-.155.157l-2.833 4.575c-1.27.174-7.384 1.059-9.506 2.045-2.228 1.035-2.358 4.767-2.347 5.844l-5.035 3.574a.526.526 0 0 0-.144.16l-2.899 5.101-15.544-14.585a.455.455 0 0 0-.187-.106h-.023a.382.382 0 0 0-.158 0l-25.133 3.192a.478.478 0 0 0-.302.165.514.514 0 0 0-.121.333v7.167l-9.769 5.03v-5.415a.515.515 0 0 0-.141-.356.474.474 0 0 0-.341-.147h-2.057a.466.466 0 0 0-.271.088.507.507 0 0 0-.177.231l-4.672 12.461a.516.516 0 0 0 .122.548c.047.045.101.08.161.103a.466.466 0 0 0 .447-.052.498.498 0 0 0 .177-.232l4.55-12.132h1.247v5.72a.518.518 0 0 0 .226.428.468.468 0 0 0 .468.024l10.733-5.539a.51.51 0 0 0 .269-.45v-7.033l23.884-3.051-11.116 28.365a.533.533 0 0 0 .001.386.48.48 0 0 0 .447.31c.095 0 .189-.03.268-.086a.492.492 0 0 0 .176-.228l11.162-28.496 15.317 14.375v24.561l-3.751 3.459a.502.502 0 0 0-.162.346.509.509 0 0 0 .269.483.462.462 0 0 0 .53-.074l3.825-3.528 10.241-2.586a.484.484 0 0 0 .298-.227.522.522 0 0 0-.16-.693.466.466 0 0 0-.365-.059l-9.761 2.468v-24.229l3.074-5.416 5.165-3.663a.503.503 0 0 0 .21-.444c-.057-1.183.15-4.406 1.771-5.16 2.193-1.021 9.384-1.989 9.455-1.998a.478.478 0 0 0 .343-.225l2.834-4.563 5.933-.559a.479.479 0 0 0 .34-.198l3.085-4.27 5.019 1.479v6.806a.518.518 0 0 0 .153.333.472.472 0 0 0 .659 0 .524.524 0 0 0 .154-.333v-7.199a.52.52 0 0 0-.098-.304.485.485 0 0 0-.254-.181l-5.012-1.48 2.459-3.406a.514.514 0 0 0 .1-.296v-5.678l1.272-1.243 6.301 9.25a.49.49 0 0 0 .234.181.467.467 0 0 0 .291.011l9.067-2.663 9.634-1.408 3.83 3.861 2.301 6.561-26.326 8.448a.477.477 0 0 0-.285.244.51.51 0 0 0-.035.383.508.508 0 0 0 .175.257.479.479 0 0 0 .429.077l26.535-8.525 2.967 2.891-7.149 7.28a.505.505 0 0 0-.145.354.518.518 0 0 0 .138.357.466.466 0 0 0 .681.008l7.03-7.161 2.165 4.681a.537.537 0 0 0 .13.175l2.885 2.435 1.983 5.38-4.905 4.814a.505.505 0 0 0-.151.351.513.513 0 0 0 .283.475.469.469 0 0 0 .529-.092l4.794-4.708 20.254 21.95-4.868 1.589a.492.492 0 0 0-.259.251.52.52 0 0 0 .194.654.462.462 0 0 0 .348.054l5.327-1.737 7.367 7.99 3.862 6.859-2.882 2.663a.519.519 0 0 0-.042.71.475.475 0 0 0 .331.17.486.486 0 0 0 .349-.125l2.731-2.513c.519.968 1.556 2.912 1.681 3.158.093.399.059 3.551-.029 6.374a.513.513 0 0 0 .227.444.472.472 0 0 0 .484.011l10.637-6.048 5.883 9.105a.457.457 0 0 0 .164.154l7.316 4.302 12.963 22.054-5.879 3.513-4.511-7.525a.486.486 0 0 0-.301-.223.464.464 0 0 0-.364.065.52.52 0 0 0-.151.694l4.494 7.486-3.95 2.367a.494.494 0 0 0-.207.243.52.52 0 0 0 .15.594.464.464 0 0 0 .536.036l4.032-2.411 12.467 15.337-3.967 6.163-3.4-3.441-.043-.044-7.786-7.886-17.508-27.023-7.809-12.049a.482.482 0 0 0-.309-.225.473.473 0 0 0-.504.22.516.516 0 0 0 .017.57l7.537 11.629-10.722 7.516-4.338-4.773a.474.474 0 0 0-.405-.151l-8.835 1.11-2.029-2.787a.472.472 0 0 0-.676-.097.516.516 0 0 0-.092.706l1.882 2.583-6.883 4.617a.518.518 0 0 0-.102.068l-29.955 20.101-1.913-2.664a.495.495 0 0 0-.318-.195.458.458 0 0 0-.358.096.507.507 0 0 0-.187.333.518.518 0 0 0 .092.373l7.591 10.543 30.939 52.518a.487.487 0 0 0 .175.177.469.469 0 0 0 .48-.006.493.493 0 0 0 .177-.188.531.531 0 0 0-.01-.509l-22.759-38.628 11.779-7.62 3.559 1.92a.452.452 0 0 0 .221.057h.025l12.414-.687-5.894 3.601a.524.524 0 0 0-.173.69.483.483 0 0 0 .417.248.493.493 0 0 0 .244-.068l12.603-7.693a.52.52 0 0 0 .174-.688.466.466 0 0 0-.659-.182l-5.607 3.426a.516.516 0 0 0-.181-.266.483.483 0 0 0-.298-.101l-12.96.719-2.93-1.58 15.318-9.91a.499.499 0 0 0 .214-.313.528.528 0 0 0-.06-.381.49.49 0 0 0-.3-.224.459.459 0 0 0-.364.063l-15.806 10.215-.668-.361-4.361-2.533a.443.443 0 0 0-.116-.05l-12.705-3.347a.483.483 0 0 0-.284.018l-2.023.796-4.896-6.806 29.576-19.841c1.416 2.057 8.39 13.576 13.053 21.353a.489.489 0 0 0 .176.174.465.465 0 0 0 .49-.014.503.503 0 0 0 .212-.314.527.527 0 0 0-.061-.379c-2.723-4.542-11.091-18.465-13.068-21.359l6.517-4.379 12.532 21.859a.48.48 0 0 0 .484.239.48.48 0 0 0 .397-.376.518.518 0 0 0-.054-.381l-12.407-21.637 8.129-1.024 4.409 4.853 11.43 21.341a.497.497 0 0 0 .178.189.469.469 0 0 0 .622-.123.502.502 0 0 0 .1-.371.488.488 0 0 0-.059-.186l-11.251-20.986 10.696-7.495 17.301 26.688 7.407 7.51-15.797 8.395a.472.472 0 0 0-.034.029s-.025 0-.037.018l-12.526 9.839a.49.49 0 0 0-.24.333.527.527 0 0 0 .083.408.488.488 0 0 0 .348.202.472.472 0 0 0 .375-.141l12.091-9.493 6.622 12.133a.497.497 0 0 0 .328.248l1.848.364a.431.431 0 0 0 .088 0 .477.477 0 0 0 .402-.222l11.15-17.355 10.265 10.407a.48.48 0 0 0 .343.142.47.47 0 0 0 .339-.152.512.512 0 0 0 .136-.358.522.522 0 0 0-.146-.354l-10.393-10.528 3.927-6.111 19.129 20.741-52.088 30.466a.593.593 0 0 0-.13.11l-11.714 14.094-4.48 4.438a.522.522 0 0 0-.147.424l1.25 11.075a.455.455 0 0 0 .039.151l31.942 73.625c.038.088.1.163.178.216a.47.47 0 0 0 .261.08.425.425 0 0 0 .198-.047.485.485 0 0 0 .254-.28.515.515 0 0 0-.013-.386l-12.167-28.043h9.731a.47.47 0 0 0 .225-.06.516.516 0 0 0 .222-.633l-15.74-40.498 40.077-6.154h25.892v5.492c0 .133.051.261.141.355a.469.469 0 0 0 .681 0 .51.51 0 0 0 .141-.355v-5.492h4.596l4.86 3.932a.47.47 0 0 0 .283.107h6.364c0 7.267 0 12.807-.096 13.33a.684.684 0 0 0 0 .128h-12.521v-8.357a.519.519 0 0 0-.141-.356.474.474 0 0 0-.341-.147h-3.485a.474.474 0 0 0-.341.147.519.519 0 0 0-.141.356v2.101h-4.508a.474.474 0 0 0-.341.147.519.519 0 0 0-.141.356v5.753h-13.002v-15.388a.524.524 0 0 0-.127-.38.482.482 0 0 0-.354-.161.463.463 0 0 0-.353.161.517.517 0 0 0-.127.38v20.208c0 .133.051.261.141.356.09.094.213.147.341.147h18.964c.128 0 .25-.053.341-.147a.519.519 0 0 0 0-.712.474.474 0 0 0-.341-.147h-18.485v-3.305h45.817v28.815c0 .134.05.262.141.356.09.094.213.147.34.147a.472.472 0 0 0 .341-.147.515.515 0 0 0 .141-.356v-28.815h13.626a.47.47 0 0 0 .341-.148.514.514 0 0 0 0-.711.469.469 0 0 0-.341-.147H461.42l1.417-7.256 2.55-6.51a.514.514 0 0 0-.044-.471.477.477 0 0 0-.401-.222h-14.363c0-4.367-.025-9.102-.045-13.298h11.869a.472.472 0 0 0 .341-.147.515.515 0 0 0 0-.711.47.47 0 0 0-.341-.148h-11.897c-.023-4.356-.046-8.019-.057-9.871l24.81-25.448a.506.506 0 0 0 .143-.355.52.52 0 0 0-.139-.357.475.475 0 0 0-.524-.113.484.484 0 0 0-.157.108l-24.955 25.591v.014l-8.829 10.416h-7.237l3.378-29.451h15.544a.47.47 0 0 0 .341-.148.514.514 0 0 0 0-.711.472.472 0 0 0-.341-.147h-15.49v-8.582a.514.514 0 0 0-.141-.355.467.467 0 0 0-.681 0 .51.51 0 0 0-.142.355v9.049l-3.434 29.984h-60.741a.468.468 0 0 0-.249.072l-10.796 6.862-5.083-9.138 11.447-13.78 52.473-30.668h12.601a.464.464 0 0 0 .364-.133.511.511 0 0 0 .114-.57.486.486 0 0 0-.478-.301h-11.408l7.855-6.921a.519.519 0 0 0 .065-.715.488.488 0 0 0-.332-.177.467.467 0 0 0-.354.123l-8.517 7.504-19.395-21.027 9.254-14.402a.522.522 0 0 0 .072-.378.502.502 0 0 0-.206-.32.46.46 0 0 0-.361-.076.482.482 0 0 0-.307.215l-9.11 14.177-12.184-14.976 6.234-3.726a.522.522 0 0 0 .173-.701l-13.034-22.167 28.575-17.278 7.141 11.378a.49.49 0 0 0 .174.165c.07.04.148.06.228.06a.481.481 0 0 0 .264-.08.513.513 0 0 0 .138-.698l-7.109-11.328 4.432-2.681 6.517 11.138a.484.484 0 0 0 .297.202c.12.025.245.002.35-.064a.51.51 0 0 0 .214-.296.526.526 0 0 0-.037-.368l-6.505-11.115 10.52-6.362a.493.493 0 0 0 .21-.26l3.4-9.552a.51.51 0 0 0 .028-.178v-28.913h4.761c.122 0 .24-.05.328-.139h5.313l3.117 3.255v7.777c0 .07.014.139.041.204a.483.483 0 0 0 .118.168l4.383 4.143-4.534 18.551a.532.532 0 0 0 .052.379.479.479 0 0 0 .416.248c.107 0 .21-.037.295-.106a.507.507 0 0 0 .17-.273l4.474-18.317 14.45 5.099v3.666c0 .119.039.234.113.324a.469.469 0 0 0 .287.17.375.375 0 0 0 .082 0c.1 0 .198-.034.28-.094a.51.51 0 0 0 .176-.246l10.167-30.724 6.517 1.811-6.078 18.278a.516.516 0 0 0-.028.166v3.675l-9.943 6.362a.505.505 0 0 0-.217.567c.028.106.089.2.173.266a.466.466 0 0 0 .545.028l21.702-13.884 6.047-1.053-2.661 8.963-15.4 8.995a.503.503 0 0 0-.231.305.527.527 0 0 0 .043.386.488.488 0 0 0 .291.242.466.466 0 0 0 .37-.045l14.513-8.481-7.262 24.487-17.451-1.444a.483.483 0 0 0-.468.272.536.536 0 0 0-.029.384.489.489 0 0 0 .42.347l32.642 2.702v6.85h-16.151l-18.959-1.631a.474.474 0 0 0-.47.272.52.52 0 0 0 .063.557.481.481 0 0 0 .328.177l18.701 1.604v5.546c0 .133.051.261.141.355a.47.47 0 0 0 .341.148h15.995v11.904l-3.372 5.874a.517.517 0 0 0 .025.558.469.469 0 0 0 .503.187.487.487 0 0 0 .296-.227l3.443-5.995a.505.505 0 0 0 .068-.258V644.17h9.88l2.672 1.967v5.25a.525.525 0 0 0 .218.423l7.056 4.823.059.03H518.404l2.485.864 5.514 8.877a.494.494 0 0 0 .174.169.463.463 0 0 0 .495-.021.52.52 0 0 0 .141-.695l-5.587-8.984a.503.503 0 0 0-.252-.204l-2.318-.805v-2.767l1.558-1.885 9.331 7.17h.02v5.303a.506.506 0 0 0 .13.346c.084.094.2.15.323.157l13.238.811-7.169 7.332h-2.833a.47.47 0 0 0-.341.148.514.514 0 0 0 0 .711c.09.094.213.147.341.147h2.55v19.974h-9.376a.474.474 0 0 0-.341.147.519.519 0 0 0 0 .712.474.474 0 0 0 .341.147h9.376v6.685h-9.376a.474.474 0 0 0-.364.132.516.516 0 0 0 0 .738.462.462 0 0 0 .364.133h9.376v16.589h-5.758a.448.448 0 0 0-.195.026.483.483 0 0 0-.283.274.52.52 0 0 0 .114.57.483.483 0 0 0 .364.133h5.758v11.114h-5.758a.47.47 0 0 0-.34.147.514.514 0 0 0-.141.356c0 .134.05.261.141.356a.47.47 0 0 0 .34.147h5.758v14.221c0 .134.051.262.141.356a.469.469 0 0 0 .681 0 .515.515 0 0 0 .141-.356v-14.215h19.999v7.043c0 .133.051.261.141.355a.469.469 0 0 0 .681 0 .514.514 0 0 0 .141-.355v-7.043h26.986v27.922h-27.467a.472.472 0 0 0-.341.147.519.519 0 0 0 0 .712c.09.094.213.147.341.147h27.949c.128 0 .25-.053.341-.147a.519.519 0 0 0 .141-.356v-28.425h13.133v28.034c0 .134.05.262.141.356.09.094.213.147.34.147h6.447v13.849h-6.203a.474.474 0 0 0-.341.147.519.519 0 0 0 0 .712.474.474 0 0 0 .341.147h6.203v13.458h-6.311a.472.472 0 0 0-.34.147.514.514 0 0 0-.141.356c0 .133.05.261.141.356.09.094.213.147.34.147h6.322v13.588h-6.446a.47.47 0 0 0-.341.148.514.514 0 0 0 0 .711c.09.094.213.147.341.147h6.446v13.766h-6.568a.474.474 0 0 0-.341.147.519.519 0 0 0 0 .712.474.474 0 0 0 .341.147h6.568v14.204h-6.605a.474.474 0 0 0-.341.147.515.515 0 0 0 0 .711.471.471 0 0 0 .341.148h14.76c.127 0 .25-.053.34-.148a.51.51 0 0 0 .141-.355.51.51 0 0 0-.141-.356.472.472 0 0 0-.34-.147h-7.192v-14.204h19.917v14.698a.523.523 0 0 0 .127.38.465.465 0 0 0 .546.119.502.502 0 0 0 .287-.499v-14.686h5.9v14.698c0 .133.05.261.141.355a.469.469 0 0 0 .681 0 .514.514 0 0 0 .141-.355v-14.698h5.65v14.698c0 .133.051.261.141.355a.469.469 0 0 0 .681 0 .51.51 0 0 0 .141-.355v-14.698h10.158l7.302 5.326a.463.463 0 0 0 .361.083.485.485 0 0 0 .311-.207.52.52 0 0 0-.119-.701l-7.424-5.424a.47.47 0 0 0-.283-.092h-10.292v-13.781h17.256v17.021c0 .134.051.261.141.356a.474.474 0 0 0 .341.147c.128 0 .25-.053.341-.147a.517.517 0 0 0 .141-.356v-28.265a.519.519 0 0 0-.141-.356.474.474 0 0 0-.341-.147h-17.738v-2.832h17.738c.128 0 .25-.053.341-.147a.519.519 0 0 0 0-.712.474.474 0 0 0-.341-.147h-17.738v-13.458h14.992a.472.472 0 0 0 .341-.147.519.519 0 0 0 0-.712.472.472 0 0 0-.341-.147h-14.992v-13.849h13.746c.127 0 .25-.053.34-.147a.51.51 0 0 0 .141-.356.51.51 0 0 0-.141-.355.469.469 0 0 0-.34-.148h-13.746v-13.591h13.746a.448.448 0 0 0 .195-.026.483.483 0 0 0 .283-.274.53.53 0 0 0 0-.403.522.522 0 0 0-.114-.167.464.464 0 0 0-.364-.133h-13.746v-12.94h13.746c.127 0 .25-.053.34-.147a.514.514 0 0 0 .141-.356.514.514 0 0 0-.141-.356.472.472 0 0 0-.34-.147h-13.746v-14.242h13.746c.127 0 .25-.053.34-.147a.514.514 0 0 0 .141-.356.51.51 0 0 0-.141-.356.472.472 0 0 0-.34-.147h-13.746v-13.458h13.746a.473.473 0 0 0 .339-.146.513.513 0 0 0 .142-.354v-13.426a.505.505 0 0 0 .187-.387.496.496 0 0 0-.187-.388v-13.967h6.146v28.168c0 .133.051.261.141.355a.467.467 0 0 0 .681 0 .51.51 0 0 0 .141-.355v-28.168h5.903v27.644c0 .133.05.261.141.356a.47.47 0 0 0 .681 0 .519.519 0 0 0 .141-.356v-27.644h6.273v28.168a.51.51 0 0 0 .153.33.471.471 0 0 0 .655 0 .51.51 0 0 0 .153-.33v-28.168h5.933c.128 0 .25-.053.341-.147a.519.519 0 0 0 0-.712.474.474 0 0 0-.341-.147h-5.933v-32.13l5.451.959v9.978c0 .134.051.262.141.356a.474.474 0 0 0 .341.147c.128 0 .25-.053.341-.147a.515.515 0 0 0 .141-.356v-9.765l12.901 3.122v6.06c0 .134.05.262.141.356a.47.47 0 0 0 .681 0 .515.515 0 0 0 .141-.356v-5.826l10.402 2.518h5.19v3.308c0 .134.051.262.142.356a.47.47 0 0 0 .681 0 .515.515 0 0 0 .141-.356v-3.308h6.194l11.75 3.791a.542.542 0 0 0 .057 0H731.838a.486.486 0 0 0 .184-.039l.045-.029a.504.504 0 0 0 .108-.08l.02-.015s0-.021.014-.033a.487.487 0 0 0 .091-.192v-.059l.765-7.398h24.11a.47.47 0 0 0 .34-.147.514.514 0 0 0 .141-.356.514.514 0 0 0-.141-.356.47.47 0 0 0-.34-.147h-23.714l9.127-16.636 14.369 7.572a.468.468 0 0 0 .392.076.477.477 0 0 0 .312-.26.507.507 0 0 0 .018-.416.48.48 0 0 0-.289-.287l-14.323-7.546 6.358-11.594 2.267 1.27c.071.038.15.059.23.059h5.264c.128 0 .25-.053.341-.148a.514.514 0 0 0 0-.711.474.474 0 0 0-.341-.147h-5.143l-2.125-1.184 2.655-4.844h4.571c.127 0 .25-.053.34-.147a.514.514 0 0 0 .141-.356.514.514 0 0 0-.141-.356.472.472 0 0 0-.34-.147h-4.727l-11.334-6.371 3.202-6.238 12.485 6.629a.47.47 0 0 0 .514-.056.521.521 0 0 0 .139-.603.493.493 0 0 0-.217-.238l-12.467-6.619 5.692-11.085 3.508 1.888a.451.451 0 0 0 .221.056h2.451a.47.47 0 0 0 .34-.147.515.515 0 0 0 0-.712.47.47 0 0 0-.34-.147h-2.332l-3.828-2.071-10.572-6.055 9.991-22.595.283.047 22.102 3.714a.47.47 0 0 0 .269-.037.49.49 0 0 0 .209-.182l9.849-15.746 16.33-16.085h8.373a.477.477 0 0 0 .318-.161.52.52 0 0 0 0-.688.48.48 0 0 0-.318-.16l-.006.023Zm-496.56 173.403 12.513 3.293 4.318 2.51.17.088-11.288 7.303-7.384-12.537 1.671-.657Zm72.648 19.627-1.315-.26-6.534-11.969 15.641-8.315 3.278 3.323-11.07 17.221ZM371.67 817.939l-19.31-44.508-1.21-10.747 3.873-3.82 10.408 18.707 15.691 40.368h-9.452Zm54.927-47.345c.317-1.199 1.533-3.909 5.916-3.942v3.942h-5.916Zm1.89 13.253h4.508c.127 0 .25-.053.34-.147a.51.51 0 0 0 .141-.356v-2.101h2.531v7.854h-7.52v-5.25Zm35.701-8.208-2.295 5.918-1.47 7.546h-9.991c.096-.85.119-6.578.11-13.458l13.646-.006Zm-14.612-1.006h-6.199l-4.86-3.936a.468.468 0 0 0-.283-.103h-4.76v-3.945h3.014a.469.469 0 0 0 .36-.169l4.364-5.145h8.333c.023 4.545.04 9.164.045 13.295l-.014.003Zm-.099-23.081c.02 2.758.034 5.735.051 8.765h-7.477l7.426-8.765Zm-13.218 14.079h-2.8v-4.308h6.452l-3.652 4.308Zm-64.283-4.308h60.523v4.311c-5.316 0-6.616 3.655-6.902 4.948h-19.061l-40.431 6.214-4.817-8.67 10.688-6.803Zm392.889-252.466-1.916-13.455h3.967l4.848 3.432-2.094 10.023h-4.805Zm-25.785 57.912 2.701 1.059h.036l-1.178 2.663-19.71-9.904a.467.467 0 0 0-.372-.009.5.5 0 0 0-.27.268.533.533 0 0 0-.009.389.498.498 0 0 0 .257.281l19.724 9.91-1.417 3.193-6.205 11.837-10.881-5.776a.46.46 0 0 0-.34.005.487.487 0 0 0-.252.238.524.524 0 0 0-.038.353.502.502 0 0 0 .194.291l10.855 5.764-3.097 5.919-8.826-4.951a.514.514 0 0 0-.156-.053l-8.5-1.379-26.102-6.125.773-8.481.224-6.412 19.809 9.469c.116.055.249.06.369.013a.493.493 0 0 0 .27-.263.525.525 0 0 0 .012-.386.497.497 0 0 0-.252-.282l-20.055-9.569 2.239-6.146 3.924 4.142a.486.486 0 0 0 .34.149.471.471 0 0 0 .341-.147.501.501 0 0 0 .142-.356.524.524 0 0 0-.14-.356l-4.233-4.459.728-2.004 14.235-9.38 14.782 3.255c.06.029.125.044.19.045h7.038v5.137l-5.766 3.897a.501.501 0 0 0-.191.247.523.523 0 0 0 .163.579.464.464 0 0 0 .55.017l5.74-3.876 12.048 7.264v3.48a.519.519 0 0 0 .091.281.474.474 0 0 0 .227.178l-.012-.009Zm-19.038 45.798 6.463-12.343 12.218 6.865-6.35 11.976-12.331-6.498Zm-26.898 15.029c.128 0 .25-.053.341-.148a.514.514 0 0 0 .141-.355v-15.66l2.592.125v17.079l-8.883-.429-4.017-4.287v-12.979l9.35.447v15.704a.523.523 0 0 0 .14.363.481.481 0 0 0 .347.149l-.011-.009Zm-17.791-12.18 4.553-6.968 2.448 2.198v12.245l-7.001-7.475Zm-4.055 21.306-6.534 9.839-1.7-.968 6.273-10.206 1.961 1.335Zm-9.112 13.724-1.511-.98 1.859-3.021 1.677.95-2.025 3.051Zm-6.554-1.323a.477.477 0 0 0-.167-.186l-9.85-6.41.635-1.204 12.062 7.8h-2.68Zm-21.741 154.024h-5.9v-9.751h5.9v9.751Zm.963-9.751h5.65v9.751h-5.65v-9.751Zm-6.863-1.006v-2.832h5.9v2.832h-5.9Zm-7.16-2.832h6.2v2.832h-6.2v-2.832Zm-20.667-50.304h5.964v4.465h-5.964v-4.465Zm6.928 0h12.776v4.465h-12.776v-4.465Zm-48.974-27.348v-9.922h26.986v13.458h-26.986v-3.536Zm-6.911-54.447h-6.8v-13.792a.518.518 0 0 0-.14-.355.47.47 0 0 0-.339-.148h-4.605v-2.4l12.275 3.388c.04.012.081.018.122.018h5.423v13.289h-5.936Zm-39.422-14.272-6.341-4.873h16v4.873h-9.659Zm9.659 1.006v4.483l-.977 1.184-7.367-5.667h8.344Zm.964-5.879h7.557v4.873h-7.557v-4.873Zm-36.6-100.686a.467.467 0 0 0-.32-.219l-3.758-.678v-8.25h34.26v13.559h-10.373a.472.472 0 0 0-.341.147.515.515 0 0 0-.141.356v7.315h-15.049l-6.585-.98 2.375-10.866a.5.5 0 0 0-.068-.393v.009Zm-20.889-3.927h-.433v-5.217h16.281v8.076l-15.848-2.859Zm135.256-55.492 5.528 5.729h-5.528v-5.729Zm83.587 110.966-2.085-1.642 1.632-17.098 1.315-5.24.921.26-.235 6.747-1.548 16.973Zm-1.396 15.34v.024a.045.045 0 0 0 0 .023v4.77l-2.046-1.837 1.272-18.779 2.068 1.628-1.294 14.171Zm-6.007 7.602-8.402-8.546 2.31-3.785 8.914 7.99-2.822 4.341Zm-19.781 30.967 2.326 5.249-12.184-7.874 1.202-2.276 8.656 4.901Zm1.417.802 3.698 2.095-1.61 2.618-2.088-4.713Zm-30.964 99.86h-6.2v-4.465h6.2v4.465Zm0-5.471h-6.2v-6.552h6.2v6.552Zm-6.2-7.558v-14.242h6.2v14.242h-6.2Zm0-15.248v-13.458h6.2v13.458h-6.2Zm-34.764-42.126H599.2v19.974h-13.133v-19.974Zm-14.527-30.156-13.411-2.527v-10.309h26.986v12.836H571.54Zm-34.883 8.756-2.524-4.066v-3.684h4.25v4.54l-1.726 3.21Zm-2.524-8.756v-3.847l4.25 1.184v2.663h-4.25Zm-3.205-4.734 2.244.618v4.116h-2.244v-4.734Zm0-1.042v-.864l7.455 1.406v1.518l-7.455-2.06Zm-27.153-81.354-2.834 9.599-12.895-.491-1.485-1.323 3.197-9.608 14.017 1.823Zm.983.092 11.025.346-2.295 9.641-11.561-.441 2.831-9.546Zm12.207-13.112h8.134v8.732l-8.134-.802v-7.93Zm-.961 7.836-9.892-.98v-6.856h9.892v7.836Zm69.137-59.315v21.009h-21.733v-13.049a.515.515 0 0 0-.141-.356.472.472 0 0 0-.341-.147.472.472 0 0 0-.34.147.51.51 0 0 0-.141.356v13.049h-10.904V492.57h17.97l15.63-1.012Zm21.273 21.009h-6.213v-22.009l6.213-.406v22.415Zm24.442 58.791-.989 2.116-18.182-13.168v-2.127l19.171 13.179Zm17.154 86.11h-6.517v-6.969l11.9 6.969h-5.383Zm-7.469 0h-2.766l2.766-5.244v5.244Zm0-7.327-3.877 7.333h-8.217l6.124-10.863 5.97 3.338v.192Zm-6.54 12.393-5.973 8.732v-12.792h8.115l-2.142 4.06Zm-18.307 25.658h4.211v5.119h-12.777v-19.974h12.777v13.852h-4.237a.464.464 0 0 0-.364.132.515.515 0 0 0-.114.571.483.483 0 0 0 .283.274.48.48 0 0 0 .195.026h.026Zm2.55-45.02h-18.043v-12.836h5.264l5.268 2.944a.5.5 0 0 0 .154.316.442.442 0 0 0 .531.069l15.584 8.711-11.24 15.092h-15.567v-13.289h18.043a.47.47 0 0 0 .341-.148.515.515 0 0 0 0-.711.47.47 0 0 0-.341-.148h.006Zm-70.55-13.836.963-13.588h8.5v13.588h-9.463Zm9.469 1.006v10.129l-10.124-1.906.584-8.223h9.54Zm-38.612-59.12-3.573-4.03 6.495.246-2.922 3.784Zm-4.533-3.622 4.012 4.528-1.893 7.14-5.406-2.089 3.287-9.579Zm-4.188 9.23-10.073-3.897 1.853-6.247 11.552.438-3.332 9.706Zm6.95 3.873 4.188 2.521-4.919.675.731-3.196Zm5.758 2.305-5.511-3.317 1.983-7.463 3.664-4.734 9.382.355-4.35 14.461-5.168.698Zm28.496-69.429h11.394v13.878h-13.034v-13.878h1.64Zm49.141 47.497h10.521v3.488h-10.521v-3.488Zm70.987 21.784-5.834 5.643-1.7-1.405 5.582-5.3 1.952 1.062Zm-6.848 10.319-1.403-.965 2.465-2.382 1.269 1.047-2.331 2.3Zm-5.146 5.069-1.445-1.015 1.349-1.305 1.207 1.228-1.111 1.092Zm-7.837 9.765-1.791-1.015 3.428-4.143 1.485 1.228-3.122 3.93Zm-10.7 8.205a.423.423 0 0 0-.025.047c-.012.014-.024.027-.034.042l-6.653 12.801-3.882-2.196 13.091-22.403 2.17 1.234-5.233 6.572a.517.517 0 0 0-.109.369.507.507 0 0 0 .171.341.47.47 0 0 0 .677-.065l5.37-6.729 1.867 1.06-7.41 8.927Zm-20.755 42.262v13.857H607.1V658.48h12.776Zm.179-1.006h-3.094l8.149-10.949-5.055 10.949Zm.785 1.006h6.191v13.857h-6.2l.009-13.857Zm.283-1.006 5.908-12.807v12.795l-5.908.012Zm-89.149-42.732 5.037-13.719h20.149v13.719h-25.186Zm23.055-57.004-5.97 13.543-15.754-4.219 2.981-9.91 18.743.586Zm7.384-14.701v9.809h-13.034v-9.809h13.034Zm-13.034-1.006v-13.559h13.034v13.559h-13.034Zm13.034 11.821v2.903h-6.644l-12.994-.411v-2.492h19.638Zm-6.335 3.909h6.35v5.487l-8.217-1.184 1.867-4.303Zm-2.315 5.247 8.65 1.255v10.59l-12.41-3.323 3.76-8.522Zm91.685 26.791c-.617 1.146-1.34 2.477-2.142 3.957l-.949-.435 2.55-3.894.541.372Zm8.056 5.667-3.154 3.95-2.859-2.367 2.406-4.119 3.607 2.536Zm1.482-.157 1.431-1.358 1.878 1.361-1.391 1.347-1.918-1.35Zm1.249 2.072-3.4 4.089-1.74-1.441 3.199-4.01 1.941 1.362Zm-29.114 27.868c1.513-2.515 7.574-13.612 12.53-22.723l2.632 1.48-13.09 22.403-2.072-1.16Zm13.006-23.598c1.306-2.406 2.516-4.634 3.528-6.51l2.57 2.124-3.44 5.886-2.658-1.5Zm1.675-7.496 1.028.471a4419.486 4419.486 0 0 1-3.55 6.542l-1.519-.861 4.041-6.152Zm-4.891 5.67-14.485-8.223 2.978-6.36 7.546 4.856 7.965 3.673-4.004 6.054Zm10.073-1.921 2.748 2.276-3.802 4.764-2.295-1.302 3.349-5.738Zm-.255-1.494-2.595-2.148c.994-1.835 1.742-3.214 2.116-3.909l2.848 2.006-2.369 4.051Zm-5.248-3.498-8.069-3.693-7.568-4.873 2.941-6.282 15.357 10.806-2.661 4.042Zm-16.462-9.096-13.346-8.596v-9.197l16.304 11.473-2.958 6.32Zm-13.966-7.812 13.541 8.718-2.998 6.406-10.175-5.776h-.023a.534.534 0 0 0-.096-.03.273.273 0 0 0-.085-.017h-11.028v-9.289l10.864-.012Zm5.318 26.283a.492.492 0 0 0-.283-.19l-4.426-1.015v-7.504l6.959 3.88-2.25 4.829Zm-30.278-1.776v-7.279h13.133v7.729h-13.133v-.45Zm-27.95-14.26a.441.441 0 0 0 .142.039h26.844v5.936h-26.986v-5.975Zm27.95.039h13.133v5.936h-13.133v-5.936Zm24.617 5.936h-10.521v-5.936h10.521v5.936Zm-10.521 1.006h10.521v7.729h-10.521v-7.729Zm11.484-.805v-5.794l9.498 5.392-2.116 4.518-7.382-4.116Zm-12.447-7.143h-13.133v-9.268h13.133v9.268Zm-14.097 0h-26.102l4.177-9.289h21.908l.017 9.289Zm-22.897-9.469-4.295 9.555a.47.47 0 0 0-.233-.098l-13.221-1.207 5.132-11.633 12.617 3.383Zm-18.179 9.22 13.127 1.202v5.977h-16.292l3.165-7.179Zm-3.61 8.185h44.686v6.776h-47.693l3.007-6.776Zm17.7 7.783h26.986v13.718h-26.986v-13.718Zm27.95.955h13.133v12.772h-13.133v-12.772Zm14.096 0h10.521v14.006l-2.035-1.151a.454.454 0 0 0-.229-.063h-8.257v-12.792Zm11.484 8.839 14.547 8.007a.456.456 0 0 0 .522-.048.512.512 0 0 0 .142-.6.488.488 0 0 0-.213-.239l-14.998-8.259v-7.567l4.214.977a.484.484 0 0 0 .107.015l-1.167 2.488a.522.522 0 0 0 .073.555.466.466 0 0 0 .68.043.495.495 0 0 0 .114-.157l3.788-8.093 7.149 3.986a.464.464 0 0 0 .366.039.49.49 0 0 0 .286-.243.532.532 0 0 0 .035-.384.507.507 0 0 0-.233-.3l-7.195-3.991 2.114-4.513 14.36 8.152-3.913 5.945a.506.506 0 0 0-.094.385.53.53 0 0 0 .069.19.484.484 0 0 0 .314.225.472.472 0 0 0 .505-.232l3.966-6.033 1.593.905c-5.299 9.747-11.243 20.619-12.527 22.726l-14.618-8.286.014-5.693Zm21.804 19.184-5.99 11.523-15.814-8.839v-15.032l21.804 12.348Zm13.317-24.561 3.684-4.628 1.728 1.43-3.539 4.27-1.873-1.072Zm6.8-3.337 3.437-4.143 1.474 1.036-3.423 4.343-1.488-1.236Zm6.175-6.854 2.411-2.331 1.417.97-2.621 2.58-1.207-1.219Zm6.315-6.107 5.982-5.779 1.417.772-6.141 6.048-1.258-1.041Zm-1.479.062-2.527 2.444-1.882-1.293 2.701-2.563 1.708 1.412Zm-3.253 3.145-2.343 2.267-1.87-1.355 2.326-2.208 1.887 1.296Zm-5.023.326-3.573-2.589 2.25-2.098 3.629 2.494-2.306 2.193Zm-.726.689-1.439 1.367-3.641-2.562 1.499-1.397 3.581 2.592Zm-5.905-1.775-4.131-2.906 1.539-1.479 4.1 2.959-1.508 1.426Zm-4.941-3.477-15.567-10.949 1.017-2.175 16.094 11.653-1.544 1.471Zm-16.375-11.54-16.717-11.778v-3.255l17.754 12.855-1.037 2.178Zm-17.692-11.008v9.419h-10.521v-9.419h10.521Zm-11.484 9.419h-13.133v-9.419h13.133v9.419Zm-14.096 0h-21.733v-10.597l8.115 1.184h13.618v9.413Zm-13.553-10.419-8.18-1.184v-5.622h21.733v6.806h-13.553Zm-8.18-7.824v-2.903h21.733v2.903h-21.733Zm0-3.909v-9.81h21.733v9.81h-21.733Zm0-10.816v-13.558h21.733v13.558h-21.733Zm0-14.564v-13.852h21.733v13.878l-21.733-.026Zm-14.952 0h-4.534v-13.852h4.534v13.852Zm0 1.006v13.558h-5.65v-13.558h5.65Zm0 14.564v9.81h-5.65v-9.81h5.65Zm-6.611 9.81h-5.84l-9.917-.98v-8.83h15.771l-.014 9.81Zm-5.885 1.006h5.885v2.462l-15.771-.5v-2.939l9.886.977Zm-.649 3.255-2.924 9.771-9.26-.352 2.919-9.682 9.265.263Zm-2.267 10.892 15.633 4.193-5.203 11.828-14.734-1.663 4.304-14.358Zm10.008 16.944-3.131 7.102-6.854-4.56v-3.663l9.985 1.121Zm-3.539 8.019-3.094 7.058-7.812-.592 4.213-10.887 6.693 4.421Zm-3.485 8.004-5.058 13.769h-8.305l5.557-14.363 7.806.594Zm11.694 14.775-.966 13.588h-15.774l.776-13.591 15.964.003Zm10.433 0h26.986v13.588h-26.986v-13.588Zm27.949 0h13.133v13.588h-13.133v-13.588Zm14.096 0h8.135l2.386 1.352v15.039l-4.907-2.744a.466.466 0 0 0-.227-.059h-5.384l-.003-13.588Zm5.965 42.732v13.858h-5.965v-13.858h5.965Zm0 14.864v19.974h-5.965v-19.974h5.965Zm14.703 0h6.194v13.851h-6.2l.006-13.851Zm7.16-17.11v-13.28l5.692 3.181-5.692 10.099Zm.32-14.242 5.987-11.516 6.234 3.524-6.353 11.301-5.868-3.309Zm6.446-12.401 6.415-12.346 6.563 3.986-.051.071-6.67 11.837-6.257-3.548Zm6.973-13.171 7.155-8.638 1.808 1.027-5.747 7.226a.525.525 0 0 0-.067.535c.039.087.1.16.178.212a.467.467 0 0 0 .629-.105l9.509-11.96 2.901 2.403-9.772 13.315-6.594-4.015Zm14.08-12.476 3.42-4.302 2.442 2.607-2.989 4.072-2.873-2.377Zm4.074-5.03 1.071-1.054 2.267 2.297-.952 1.293-2.386-2.536Zm1.769-1.743 2.714-2.663 1.805 1.621-2.375 3.235-2.144-2.193Zm3.414-3.364 2.329-2.294 1.346 1.113-1.984 2.699-1.691-1.518Zm4.429-.557 2.4 1.98-1.856 3.042-2.551-2.29 2.007-2.732Zm.586-.799.896-1.216 2.343 1.654-.907 1.48-2.332-1.918Zm4.038 1.003 5.891 4.205-.193 2.877-6.645-5.487.947-1.595Zm5.97 3.001-5.452-3.847 2.191-3.592a.485.485 0 0 0 .07-.21l.309-2.643 3.454 1.876-.572 8.416Zm-4.134-7.886-2.117 3.471-2.7-1.906a.472.472 0 0 0-.652.11l-1.159 1.583-1.218-.974 6.282-6.187 1.91 1.039-.346 2.864Zm-6.358-7.673a.456.456 0 0 0-.057-.098.458.458 0 0 0-.405-.153l-4.211-2.288 2.647-8.409 7.253 5.145-.921 8.144-4.306-2.341Zm-1.312.417-5.438 5.164-3.301-2.728 4.865-4.54 3.874 2.104Zm-6.16 5.85-2.763 2.625-3.621-2.488 3.074-2.871 3.31 2.734Zm-7.217-.437-4.25-2.921 3.431-3.282 3.967 3.273-3.148 2.93Zm-.742.689-2.23 2.071-4.115-2.979 2.109-2.016 4.236 2.924Zm-7.147-1.48-16.391-11.871 1.003-2.14 17.474 12.011-2.086 2Zm-36.336-25.859h-10.521v-2.317h10.521v2.317Zm-11.484 4.498h-13.133v-6.806h13.133v6.806Zm-13.133-7.821v-2.903h13.133v2.903h-13.133Zm0-3.909v-9.809h13.133v9.809h-13.133Zm13.133-10.815h-13.133v-13.559h13.133v13.559Zm-13.133-14.565v-13.843h13.133v13.878l-13.133-.035Zm14.096-13.878h6.214v13.878h-6.214v-13.878Zm-.963-1.009h-13.133v-21.087l13.133-.858v21.945Zm-48.659 0h-6.65V492.57h6.65v19.965Zm-7.605-19.965v20h-1.627v-20h1.627Zm.96-1.006v-6.643h6.651v6.643h-6.651Zm-.96 0h-3.281v-6.643h3.281v6.643Zm-4.25 0h-12.649v-6.643h12.649v6.643Zm.478 1.006h1.176v20h-14.303v-20h13.127Zm3.766 21.009v13.878h-16.893v-13.878h16.893Zm-1.133 14.885v13.558h-15.771v-13.558h15.771Zm-16.735 13.558h-8.118v-13.558h8.138l-.02 13.558Zm0 10.75v3.004l-8.132-.258v-3.55l8.132.804Zm-.042 4.01-2.919 9.676-7.65-.296 2.301-9.643 8.268.263Zm-24.396 9.863-1.76 5.933-6.996-2.708-2.966-3.669 11.722.444Zm-1.134 7.243 10.034 3.883-2.137 6.214-10.393-1.69 2.496-8.407Zm10.935 4.232 5.491 2.122-.85 3.772h-6.653l2.012-5.894Zm5.406 6.806 12.26-1.681 3.998.453v3.13l-.748-.497a.466.466 0 0 0-.26-.08h-4.321l-11.7 2.033.771-3.358Zm11.008 2.332h4.103l1.031.686-4.403 11.378-15.652-1.184c1.32-3.986 2.437-7.439 2.862-8.759l12.059-2.121Zm.36 13.02-5.588 14.44h-15.575c1.096-2.453 3.505-9.493 5.542-15.627l15.621 1.187Zm-21.654 15.446h15.91v13.591h-22.65l6.74-13.591Zm16.874 0h8.358l-.773 13.591h-7.585v-13.591Zm24.251 14.594-.566 8.043-15.159-2.856v-5.187h15.725Zm-7.313 7.794 6.67 1.258-.153 2.145-6.517-1.802v-1.601Zm7.622 1.436 10.201 1.92v1.687h-5.361l-4.993-1.379.153-2.228Zm11.161 2.103 7.965 1.536h-7.985l.02-1.536Zm27.95-11.333h13.133v12.869h-13.133v-12.869Zm13.133 13.843v13.289h-13.133v-13.289h13.133Zm0 14.295v13.858h-13.133v-13.858h13.133Zm0 35.843v6.685h-13.133v-6.685h13.133Zm.963 0h5.965v6.685h-5.965v-6.685Zm6.928 0h12.776v6.685H607.12v-6.685Zm12.776 7.694v13.458H607.12v-13.458h12.776Zm.963-1.003v-6.685h6.172v6.685h-6.172Zm0-7.694v-5.119h6.172v5.119h-6.172Zm7.161-5.119h5.899v5.119h-5.899v-5.119Zm0-1.003v-13.851h5.899v13.851h-5.899Zm.456-14.858 5.443-7.959v7.959h-5.443Zm6.406-9.401 2.355-4.456h3.295v13.857h-5.65v-9.401Zm6.614-4.456h6.024v6.457h-6.039l.015-6.457Zm6.987 0h6.276v6.457h-6.276v-6.457Zm6.276-1.364-12.838-7.516 3.255-6.17 9.583 6.235v7.451Zm-13.697-7.99-6.03-3.367 6.35-11.265 5.698 3.228-6.018 11.404Zm.808-15.499 6.621-11.748.091-.124 5.242 3.187-6.279 11.898-5.675-3.213Zm12.447-9.549-5.143-3.128 9.688-13.192 3.173 2.625a.465.465 0 0 0 .678-.08.509.509 0 0 0 .1-.371.516.516 0 0 0-.18-.336l-3.185-2.637 2.916-3.968 2.916 3.113-10.963 17.974Zm8.634-21.897.966-1.317 2.808 2.861-.918 1.503-2.856-3.047Zm1.552-2.116 2.412-3.285 2.615 2.35-2.267 3.731-2.76-2.796Zm6.285-1.128 1.879-3.077 7.083 5.847-.337 4.968-8.625-7.738Zm14.958-34.44-.878-.252 1.949-7.738 1.334 1.409-2.405 6.581Zm-1.802-.515-4.117-1.184 6.114-6.806-1.997 7.99Zm-.244.967-1.332 5.327-1.601 16.71-3.422-1.862 2.065-17.733v-3.667l4.29 1.225Zm-5.253-1.497v3.879l-2.018 17.299-1.601-.87 2.08-18.388a.52.52 0 0 0-.099-.371.485.485 0 0 0-.323-.188.47.47 0 0 0-.351.109.514.514 0 0 0-.182.332l-.991 8.741-7.367-5.229a.479.479 0 0 0-.428-.062.518.518 0 0 0-.303.32l-2.797 8.877-4.636-2.521 12.703-13.739 6.313 1.811Zm-14.938 15.287-4.718 4.4-3.967-3.279 3.896-3.728 4.789 2.607Zm-9.45.494-8.956-7.398 7.046.734 5.667 3.071-3.757 3.593Zm-10.812-7.646 10.093 8.335-3.491 3.344-17.78-12.221 2.088-4.459 9.09 5.001Zm-11.989-1.101-19.817-13.612s-.025 0-.037-.018l-.091-.038a.463.463 0 0 0-.09-.018h-11.048v-2.903h10.881l22.248 12.236-2.046 4.353Zm-19.46-17.338 2.491-5.918 22.257 11.952-2.82 6.019-21.928-12.053Zm-11.617-.275v-9.809h6.214v9.809h-6.214Zm6.214-10.815h-6.214v-13.559h6.214v13.559Zm0-57.11v4.222l-6.214.408v-4.63h6.214Zm-7.178 4.693-13.133.861v-5.554h13.133v4.693Zm-14.096.923-13.136.861v-6.477h13.136v5.616Zm-14.099.923-1.562.104h-17.938v-6.643h19.5v6.539Zm-19.5-7.546v-6.442h19.5v6.436l-19.5.006Zm-.964 0h-6.65v-6.442h6.65v6.442Zm-7.61 0h-3.282v-6.442h3.282v6.442Zm-4.251 0h-12.648v-6.442h12.648v6.442Zm-13.6 0h-8.217l-1.417-6.436h9.634v6.436Zm0 1.007v6.643h-7.617a.472.472 0 0 0-.34.147.51.51 0 0 0-.141.356c0 .133.05.261.141.355.09.095.213.148.34.148h7.617v20h-8.141v-27.649h8.141Zm0 28.655v13.878h-8.138v-13.881l8.138.003Zm-9.096 13.878h-26.918v-13.881h26.918v13.881Zm-27.887 0h-6.384v-13.833l.431-.045h5.95l.003 13.878Zm1.916 23.377h15.584l10.396 1.027v3.616l-11.558-.367-21.685-2.82.539-2.456 6.724 1Zm-1.267 3.255-3.006 9.037-5.486-4.868 2.171-4.986 6.321.817Zm-9.243 3.486-6.171-5.492 8.112 1.056-1.941 4.436Zm5.424 6.14-6.271-.713 1.244-3.758 5.027 4.471Zm1.133 1.506 1.456.82 3.684 4.569a.532.532 0 0 0 .201.148l7.163 2.769-2.527 8.528-14.253-3.971 4.276-12.863Zm10.628 18.051 10.351 1.683-1.731 5.031-11.19 1.944 2.57-8.658Zm11.334 1.754h6.767l-.791 3.462-7.616 1.323 1.64-4.785Zm5.667 4.528a1119.14 1119.14 0 0 1-2.779 8.498l-7.161-.544 2.267-6.62 7.673-1.334Zm-3.117 9.469c-2.575 7.738-5.171 15.221-5.709 15.872a.642.642 0 0 0-.037.068s-.025.021-.034.036l-7.084 14.298-4.743-.393 10.441-30.402 7.166.521Zm10.853 31.304v3.4l-18.053-3.4h18.053Zm.963 0h7.557v5.007l-7.557-1.424v-3.583Zm7.557 6.028v.929h-7.557v-2.353l7.557 1.424Zm.963 7.815h2.244v3.846c0 .098.026.194.077.276l2.955 4.767v4.415h-5.276v-13.304Zm6.234 8.859 2.116-3.941a.526.526 0 0 0 .063-.246v-4.672h4.122v13.289h-6.301v-4.43Zm20.967-8.859h26.986v13.289h-26.986v-13.289Zm26.986 14.295v13.857h-26.986v-13.857h26.986Zm0 14.863v6.555h-26.986v-6.555h26.986Zm0 7.558v12.428h-26.986v-12.428h26.986Zm0 13.422v6.685h-26.986v-6.685h26.986Zm.964 7.694h13.133v13.458h-13.133v-13.458Zm14.096 0h5.965v13.458h-5.965v-13.458Zm5.965 14.464v6.945h-5.965v-6.945h5.965Zm-5.965 7.951h5.965v6.291h-5.965v-6.291Zm6.928-7.951h12.776v14.242H607.1v-14.242Zm12.776 15.248v6.552H607.1v-6.546l12.776-.006Zm0 13.02v14.5H607.1v-14.5h12.776Zm.964 0h6.191v14.5h-6.2l.009-14.5Zm6.199 15.509v13.848h-6.199v-13.848h6.199Zm0 14.854v13.458h-6.199V775.1h6.199Zm.961 13.458V775.1h5.899v13.458H628Zm0-14.464v-13.848h5.899v13.848H628Zm0-14.854v-14.5h5.899v14.5H628Zm5.899-15.509H628v-12.008h5.899v12.008ZM628 730.711v-14.242h5.899v14.242H628Zm0-15.248v-13.458h5.899v13.458H628Zm0-14.461v-6.685h5.899v6.685H628Zm6.862-6.685h5.65v6.685h-5.65v-6.685Zm5.65-1.006h-5.65v-5.119h5.65v5.119Zm-5.65-6.122v-13.852h5.65v13.852h-5.65Zm6.614-13.852h6.024v13.852h-6.019l-.005-13.852Zm0-1.006v-6.388h6.024v6.394l-6.024-.006Zm6.987-6.394h6.276v6.394h-6.276v-6.394Zm13.754-20.809-4.571-2.589 6.818-10.437 4.066 2.752-6.313 10.274Zm-5.424-3.071-8.404-4.758 6.254-11.837 9.027 6.114-6.877 10.481Zm-1.66-17.459 10.835-17.754 8.158 8.711-9.917 15.198-9.076-6.155Zm11.362-18.624.932-1.527 8.379 8.528-1.133 1.731-8.178-8.732Zm16.831 3.977v-4.883h9.35v5.327l-9.35-.444Zm.048-5.889 1.185-13.002 8.863 6.989c.1.079.224.113.348.098l23.714-2.983 8.183 4.599-6.475 12.354-15.207-8.01a.43.43 0 0 0-.215-.057l-20.396.012Zm43.602-4.705 2.476-4.734 10.331 5.808-2.437 4.735-10.37-5.809Zm-.85-.476-8.322-4.678a.477.477 0 0 0-.284-.057l-23.673 2.977-9.181-7.235.74-8.125 26.014 6.101 8.438 1.373 8.747 4.918-2.479 4.726Zm23.041-65.381-3.235 6.119-4.571 3.847v-9.969l7.806.003Zm-8.783 10.78-5.075 4.273h-8.127v-15.059h13.202v10.786Zm-14.168 4.279h-6.556v-15.065h6.556v15.065Zm.964 5.498v-4.501h6.67l-6.67 4.501Zm19.423-13.728a.52.52 0 0 0 .119-.148l6.115-11.51-1.936 18.677-1.581 3.572-12.685-2.181 9.968-8.41Zm18.038-30.457h1.403L756.41 521.9l4.502-8.501 3.729-3.527Zm5.84-23.655 7.741-6.436-6.149 18.05-4.42-3.134 2.828-8.48Zm2.473-33.891v9.798l-12.835 22.752a.505.505 0 0 0-.068.258v7.883a.526.526 0 0 0 .147.361l1.754 1.775 1.983 14.026-3.74 3.533a.52.52 0 0 0-.096.131l-10.379 19.642h-22.506v-22.613h2.079a.473.473 0 0 0 .391-.211l12.669-18.571a.523.523 0 0 0 .091-.296V479.958l-1.046-10.357 13.374-6.885 7.455-4.078 4.25 7.537a.483.483 0 0 0 .414.245.447.447 0 0 0 .243-.068.507.507 0 0 0 .223-.307.528.528 0 0 0-.05-.382l-4.321-7.643 6.823-8.552 3.145 2.858Zm-99.148 3.211 13.093-8.058-2.729 22.365-10.364-14.307Zm14.144-8.703 18.715-11.514.386 2.782-2.335 3.752a.53.53 0 0 0 .057.621l3.513 3.847-1.728 3.794a.509.509 0 0 0 .017.464l4.341 7.934-6.084 9.173-12.549 3.083a.495.495 0 0 0-.187.095l-4.506 3.711-2.589-3.575 2.949-24.167Zm45.126-9.143v11.99l-1.04 3.847-5.012-4.56a.446.446 0 0 0-.159-.095l-9.447-3.43-5.528-7.338a.49.49 0 0 0-.357-.192l-3.533-.175-.414-2.959 4.001-2.462 21.489 5.374Zm29.009 19.87-7.766 4.249-13.267 6.83-8.237-14.272 1.208-4.48a.562.562 0 0 0 .016-.136v-11.819l31.871 7.99 3.168 2.885-6.993 8.753Zm-69.476 14.153 12.623-3.101a.476.476 0 0 0 .283-.201l6.378-9.576a.528.528 0 0 0 .023-.535l-4.369-7.99 1.765-3.867a.53.53 0 0 0-.088-.566l-3.479-3.814 2.074-3.335 3.437.172 5.477 7.273a.47.47 0 0 0 .221.163l9.517 3.459 5.46 4.969 8.481 14.691 1.048 10.39-15.867 19.299-10.9 7.989-6.537-7.072-3.967-7.306a.492.492 0 0 0-.119-.145l-8.501-7.063-7.367-10.185 4.407-3.649Zm34.568 35.053-.788-7.078 15.071-18.319v9.268l-12.424 18.227h-1.834l-.025-2.098Zm-4.457-104.375 30.304.168 6.129 3.649a.444.444 0 0 0 .238.065h4.301l-2.797 6.359c-1.332.693-8.568 2.033-13.295 2.793l-26.728-4.4 1.848-8.634Zm-3.942 20.5a.494.494 0 0 0 .097-.222l1.808-10.652 26.841 4.418h.147c1.159-.187 10.651-1.732 13.318-2.758l9.336 26.199v7.351l-.638.799-3.241-2.959a.507.507 0 0 0-.207-.11l-53.918-13.499 6.457-8.567Zm.882 102.976 5.182-17.911a.518.518 0 0 0-.154-.537.47.47 0 0 0-.68.068.51.51 0 0 0-.09.173l-4.933 17.124-14.759-17.201-.85-6.3a.499.499 0 0 0-.08-.21l-19.534-30.15.377.518 3.007 4.143 7.693 10.62c.022.035.05.065.082.092l8.483 7.039 3.939 7.277a.418.418 0 0 0 .073.103l6.869 7.427a.473.473 0 0 0 .3.153.469.469 0 0 0 .323-.09l10.623-7.789.714 6.401v25.655h-6.56l-.025-6.605Zm-4.928 7.626h3.967v14.937l-14.482-3.195a.442.442 0 0 0-.357.068l-14.535 9.578a.482.482 0 0 0-.193.246l-.632 1.731-1.417-1.503.23-.918 8.554-9.528 18.865-11.416Zm-25.566 13.482 8.837-8.582h6.687l-9.373 5.679a.641.641 0 0 0-.11.091l-7.39 8.23 1.349-5.418Zm-42.669-6.765 13.065-22.829 4.735-2.702 4.332 3.666-4.732 13.612a.523.523 0 0 0 .111.527l21.437 22.584-6.672 7.43-6.659-1.903a.485.485 0 0 0-.473.136l-13.096 14.171-6.033-3.278a.534.534 0 0 0-.173-.057l-8.684-.902-9.067-4.992 2.833-6.028 17.789 9.555a.465.465 0 0 0 .52-.051.507.507 0 0 0 .172-.279.524.524 0 0 0-.032-.329.49.49 0 0 0-.221-.237l-17.806-9.561 2.834-6.054 11.373 6.539 5.231 7.398a.474.474 0 0 0 .388.204.471.471 0 0 0 .41-.243.517.517 0 0 0-.025-.559l-5.295-7.486a.516.516 0 0 0-.153-.142l-11.524-6.649 5.415-11.541Zm-28.902-.802 22.234 12.789-2.833 6.081-22.291-11.972 2.89-6.898Zm-4.165 7.345-2.55 6.092h-3.511v-9.353l6.061 3.261Zm-6.075-57.629v-3.488l3.366 3.488h-3.366Zm24.269-12.641v-12.543l6.763 1.654v10.889h-6.763Zm17.176 2.072a.472.472 0 0 0-.34.147.51.51 0 0 0-.141.356v5.554l-5.101 11.144h-2.921l-1.573-1.202 1.82-2.908a.521.521 0 0 0 .076-.276v-1.757a.517.517 0 0 0-.139-.355l-1.133-1.184v-22.119l11.402 5.477v7.102l-1.95.021Zm-18.103-29.946a.499.499 0 0 0 .241-.435v-1.578l18.548 23.132-10.416-5.007a.254.254 0 0 1-.039 0c-.018 0-.035-.021-.054-.027l-7.724-1.888a.473.473 0 0 0-.215-.002.5.5 0 0 0-.329.273.54.54 0 0 0-.049.221v2.899l-11.308-10.723 11.345-6.865Zm-23.342 7.27h11l12.305 11.674v8.915h-23.305V455.88Zm0 21.601h20.31v4.54l-5.244 7.101h-10.334l-4.732-4.906v-6.735Zm-.963 0v5.729l-5.526-5.729h5.526Zm-7.177 6.436h-13.134v-6.439h13.134v6.439Zm-14.097 0h-13.136v-6.439h13.136v6.439Zm-52.779-13.274v2.817a.5.5 0 0 0 .255.447l4.65 2.568h-11.192v-4.015l.447-1.817h5.84Zm-17.888 2.255h10.637v3.577h-9.849l-.788-3.577Zm1.448 11.019h-26.83v-6.439h25.408l1.422 6.439Zm-33.256 0v-6.439h5.463v6.436l-5.463.003Zm-38.354-66.768h12.124l3.806 7.557v4.439a.53.53 0 0 0 .161.379l5.951 5.453-.627 1.24-7.973-2.829a.475.475 0 0 0-.371.027l-7.838 4.092-2.266-3.903a.478.478 0 0 0-.26-.217.456.456 0 0 0-.333.013l-5.491 2.344a.47.47 0 0 0-.195.153l-3.157 4.188-5.757 2.121-1.726-5.882a.522.522 0 0 0-.113-.205l-7.603-8.19v-2.664a.515.515 0 0 0-.114-.325.486.486 0 0 0-.288-.172l-5.043-.887-2.111-3.057-8.784-18.101v-12.928l28.873 5.675 8.696 21.383a.497.497 0 0 0 .174.22.47.47 0 0 0 .262.085l.003-.009Zm-63.073-1.137h-3.494a.55.55 0 0 0-.139.021l-7.794 2.456-8.39.074-7.084-1.329-3.009-5.527a.49.49 0 0 0-.23-.213.46.46 0 0 0-.306-.027l-3.278.855-3.839-2.864 10.115-19.489 6.37 1.134v3.131c0 .133.051.261.141.355a.47.47 0 0 0 .341.148h2.87a.462.462 0 0 0 .258-.08l3.063-2.045 4.406 1.323a.458.458 0 0 0 .314 0l6.46-2.711 9.198 2.725a.378.378 0 0 0 .133.021h9.234a.468.468 0 0 0 .251-.074.499.499 0 0 0 .177-.198l2.57-5.217 5.752 1.13v13.236a.485.485 0 0 0 .054.228l8.5 17.512h-7.083a.479.479 0 0 0-.32.127l-2.12 1.956a.501.501 0 0 0-.15.252l-1.133 4.586-4.375-1.257-4.746-5.883a.453.453 0 0 0-.284-.169l-11.965-2.524v-1.154a.514.514 0 0 0-.139-.349.468.468 0 0 0-.332-.151l.003-.009Zm-5.42 13.908 3.153 6.46-1.898 5.942-4.344 4.536-4.987-16.834 3.842 4.438a.466.466 0 0 0 .609.096.503.503 0 0 0 .206-.266.527.527 0 0 0-.004-.342l-2.154-6.036.108-7.626 1.799 2.072a.467.467 0 0 0 .505.139l4.984-1.696 1.416 2.773-3.235 5.879a.508.508 0 0 0-.003.459l.003.006Zm-68.854-92.933-2.632-10.514a.506.506 0 0 0-.162-.263l-8.993-7.649v-10.984h27.111v14.351a.518.518 0 0 0 .141.356.479.479 0 0 0 .34.147h12.924v13.224h-22.566l-6.163 1.332Zm-39.555-30.416v-13.458h12.64v13.458h-12.64Zm-97.786 14.316-13.26-1.119v-10.265l6.035-.846 7.225 3.583v8.647Zm-44.264 4.604 2.754 7.827h-13.043v-10.626h10.266v2.624a.538.538 0 0 0 .031.169l-.008.006Zm.065-10.12a.51.51 0 0 0-.096.296v6.013h-10.258v-17.367h13.261v7.016l-2.907 4.042ZM21.963 305.289v-11.271h20.702l-.794 12.499-11.353 2.246-8.555-3.474ZM169.61 165.665v13.979h-13.261v-13.979h13.261ZM158.256 129.1l-1.796-10.996h5.083l7.599 11.431-10.886-.435Zm-14.011-10.996h11.237l1.799 11.013-13.034.781-.002-11.794Zm26.328 16.275v-3.782l6.883.275 2.759 4.051v12.996l-4.38 2.471h-6.999l-1.677-6.317 3.4-9.529a.538.538 0 0 0 .014-.174v.009Zm6.279-31.556.85 1.604a.487.487 0 0 0 .202.205.461.461 0 0 0 .277.052l7.631-.95 4.38 3.859 2.975 11.182v11.721l-15.201-.592-5.435-7.989-2.068-8.363.946-4.639 5.443-6.09Zm16.797 29.591c.128 0 .25-.053.341-.148a.514.514 0 0 0 .141-.355v-.376l3.774.151v18.701h-3.262l-5.519-2.627a.455.455 0 0 0-.198-.045h-7.747v-12.952a.532.532 0 0 0-.088-.296l-2.42-3.551 14.496.577v.415a.516.516 0 0 0 .139.359.478.478 0 0 0 .343.15v-.003Zm85.432 4.859h13.073v13.117h-13.073v-13.117Zm40.773 13.117h-12.75v-13.117h12.75v13.117Zm0 1.006v13.263h-12.75v-13.272l12.75.009Zm36.793 14.269h2.621l5.851 7.013-4.338 3.989-4.772-5.838a.464.464 0 0 0-.671-.063l-5.211 4.439a.504.504 0 0 0-.155.535.48.48 0 0 0 .09.172l-2.383 2.131-5.279-5.398v-6.98h14.247Zm55.343 6.214a3353.584 3353.584 0 0 1-15.3 14.204l-9.221-11.067 15.585-13.875 8.936 10.738Zm62.24 73.406v3.045h-26.889v-11.135l11.994-11.567 17.392 16.479-2.378 2.847a.518.518 0 0 0-.133.316l.014.015Zm-113.523 144.9-6.636-1.183 1.556-9.173 21.86 4.296v6.214l-6.157 2.584-4.457-1.338a.45.45 0 0 0-.394.059l-3.117 2.089h-2.247v-3.053a.513.513 0 0 0-.117-.326.481.481 0 0 0-.291-.169Zm-9.801-53.541h12.842v6.856h-8.614l-4.228-4.018v-2.838Zm-111.072-30.085v-13.458h12.638v13.458h-12.638Zm-.963 13.159h-13.204v-12.153h13.204v12.153Zm-82.511-11.245v-15.387h13.261v13.52l-13.261 1.867Zm-27.076-5.169v-10.206h12.255v10.203l-12.255.003ZM88.74 278.98h25.356v13.118H88.728l.012-13.118Zm-.966 13.118H73.938V278.98h13.827l.008 13.118Zm27.286-13.118h13.26v13.118h-13.26V278.98Zm27.442-62.244h12.895v7.072h-12.906l.011-7.072Zm40.708-51.071v13.979h-12.637v-13.979h12.637Zm-2.15-16.941h7.769l5.531 2.625c.062.032.13.048.198.047h3.358v13.263h-13.943l-4.877-8.943 1.964-6.992Zm166.463 30.828 3.179 6.368-3.371 3.101a.512.512 0 0 0-.165.376v5.101h-26.351V180.65h25.473a.477.477 0 0 0 .34-.148l.895-.95Zm3.168-2.891 4.409 5.205-3.652 3.358-3.194-6.4 2.437-2.163Zm20.16 13.126 4.899-4.37 9.43 11.304c-3.117 2.879-6.185 5.719-9.112 8.421l-9.716-11.469 4.499-3.886Zm62.812 42.315 3.279 4.362h-3.279v-4.362Zm-10.9 135.287h.014l9.917-.317v11.688h-12.841v-27.268h12.841v14.574l-9.951.317a.476.476 0 0 0-.318.16.52.52 0 0 0 0 .688.481.481 0 0 0 .318.161l.02-.003Zm-44.312 15.92v-3.551h12.668v6.036l-12.668-2.485Zm0-4.551V351.49h12.668v27.268h-12.668Zm-28.508-72.202h-13.3v-13.458h13.3v13.458Zm-68.941-28.579v-1.409a.54.54 0 0 0-.071-.263l-3.057-5.217v-7.102a.514.514 0 0 0-.141-.355.471.471 0 0 0-.341-.148h-9.999V248.848l-1.763-9.7h3.477l8.169 2.071c.08.021.165.02.245-.004a.478.478 0 0 0 .211-.129l3.485-3.631H294.2v26.017h-2.7a.466.466 0 0 0-.341.147.515.515 0 0 0-.141.356v13.999l-10.016.003Zm-69.378 14.121v-13.115h13.054v13.115h-13.054Zm13.066 1.003v13.458h-13.066v-13.461l13.066.003Zm-68.341-14.118h13.261v13.115h-13.261v-13.115Zm-.963 13.118h-12.895v-13.118h12.895v13.118ZM432.7 237.458v10.851h-12.841v-10.851H432.7Zm-96.539 26.017h-12.929v-12.21l-2.332-13.807h29.046v26.017h-13.785Zm-125.5-54.773h-11.793v-13.198h11.793v13.198Zm0 1.006v14.109h-26.487v-14.109h26.487Zm14.995 0h11.671v14.109h-11.671v-14.109Zm6.205-14.204h5.466v13.198h-5.466v-13.198Zm126.274 5.276 4.55 7.922h-13.708l9.158-7.922Zm47.168 36.693v29.135l-23.262-4.921v-24.214h23.262Zm12.873 27.022h.714v4.983l-12.623-2.663v-17.482h12.623v14.159h-.714a.47.47 0 0 0-.341.148.514.514 0 0 0 0 .711c.09.094.213.147.341.147v-.003Zm14.516 71.16H419.85v-13.233h12.842v13.233Zm.963-13.221h12.7v13.218h-12.7v-13.218Zm-14.765 13.221h-12.615v-13.233h12.623l-.008 13.233Zm0 1.004v6.856h-12.615v-6.856h12.615Zm-12.623-15.231V307.58h12.623v13.848h-12.623Zm0-14.857v-13.455h12.623v13.455h-12.623Zm-27.828-44.62 26.864 5.681v10.357h-26.864v-16.038Zm26.864 17.047v13.112h-13.229v-13.112h13.229Zm0 14.118v13.455h-13.229v-13.455h13.229Zm.964-1.006v-13.112h12.623v13.112h-12.623Zm0-14.118v-10.165l12.623 2.664v7.486l-12.623.015Zm-25.181-16.527-2.678-.565-2.51-23.445h5.188v24.01Zm-6.234-33.994v8.978h-23.963V231.2h7.146l8.424-2.072a.45.45 0 0 0 .136-.056l6.557-4.083 1.7 2.482Zm-79.904 8.978-1.853-3.284v-8.342h13.011v11.635l-11.158-.009Zm12.122-11.635h12.75v11.635h-12.75v-11.635Zm13.725 0h23.886l5.254 6.075v5.56h-29.131l-.009-11.635Zm45.378 3.326-8.24 2.054h-7.197l-2.615-5.096v-10.061h18.236l6.234 9.114-6.418 3.989Zm.547-14.378-2.332-4.063h6.735a728.954 728.954 0 0 1-4.395 4.072l-.008-.009Zm-.963.272h-17.636v-4.326h15.145l2.491 4.326Zm-18.599 11.191c0 .083.019.164.056.237l.989 1.924-2.949-3.412a.489.489 0 0 0-.36-.166h-24.085v-14.1h26.352l-.003 15.517Zm-27.326-1.417h-12.751v-14.1h12.751v14.1Zm-13.726 0h-13.011v-14.1h13.011v14.1Zm-13.974 0h-13.051v-14.1h13.073l-.022 14.1Zm-14.037 0H265.52v-14.1h12.575v14.1Zm-79.227 25.643h11.793v14.029h-11.793v-14.029Zm-.963 14.029h-13.731v-14.029h13.731v14.029Zm.963-15.035v-8.442l11.793-.151v8.581l-11.793.012Zm0-23.622h11.793v14.023l-11.793.151v-14.174Zm12.751 0h13.059v13.857l-13.065.169.006-14.026Zm0 15.017 13.065-.165v8.77h-13.06l-.005-8.605Zm14.031-.177 13.204-.169v8.951H225.65v-8.782Zm14.167-.184 12.638-.159v9.125h-12.638v-8.966Zm-.376-1a.484.484 0 0 0-.105-.024.385.385 0 0 0-.116.027l-13.57.172v-13.831h38.909v13.334l-25.118.322Zm11.22-20.713 1.641 6.057h-14.023v-14.115h12.357v7.916a.433.433 0 0 0 .031.136l-.006.006Zm2.641 6.057-1.7-6.265v-7.85h12.954v14.109l-11.254.006Zm12.221-15.115V195.51h12.575v13.198h-12.575Zm-.964 0h-12.954V195.51h12.954v13.198Zm-13.918 0h-12.362V195.51h12.357l.005 13.198Zm-25.963 15.109h-13.054v-14.109h13.054v14.109Zm-26.785 1.006v14.186l-13.731.174v-14.36h13.731Zm0 15.192v8.43h-13.719v-8.253l13.719-.177Zm-14.683 8.43h-12.637v-8.081l12.637-.16v8.241Zm0 1.006v14.029h-12.637v-14.029h12.637Zm0 15.036v13.496h-12.637v-13.496h12.637Zm.964 0h13.731v13.496h-13.731v-13.496Zm14.694 0h11.793v13.496h-11.793v-13.496Zm12.751 0h13.059v13.496h-13.054l-.005-13.496Zm0-1.007v-14.029h13.059v14.029h-13.059Zm14.031-14.029h13.204v14.029H225.65v-14.029Zm14.167 0h12.638v14.029h-12.638v-14.029Zm13.601 0h13.011v14.029h-13.011v-14.029Zm0-1.006v-9.137l11.226-.145 1.7 9.282h-12.926Zm12.105-23.622h12.575v7.185a.495.495 0 0 0 .053.23l2.267 4.625-3.188 3.321-7.964-2.019a.543.543 0 0 0-.114 0h-3.635l.006-13.342Zm15.782 11.635-2.224-4.584v-7.051h13.073v8.49c0 .089.024.177.068.254l1.63 2.891h-12.547Zm13.853 12.863h15.822c.128 0 .25-.053.341-.147a.519.519 0 0 0 0-.712.474.474 0 0 0-.341-.147h-15.822v-10.851h24.756l2.354 13.908v12.132h-27.11v-14.183Zm55.743 14.662v-26.519h24.025l2.55 23.865v16.654h-26.581l.006-14Zm12.841 15.006v13.112h-12.841v-13.112h12.841Zm.966 0h12.773v13.112h-12.773v-13.112Zm13.734 0h12.671v13.112h-12.671v-13.112Zm12.671 14.118v13.455h-12.662v-13.455h12.662Zm0 14.464v13.848h-12.662v-13.848h12.662Zm.964 0h13.229v13.848h-13.229v-13.848Zm13.229 14.854v13.222h-13.229v-13.225l13.229.003Zm0 14.225v6.856h-13.229v-6.856h13.229Zm0 7.862v5.966h-13.229v-5.966h13.229Zm.964 0h12.623v5.966h-12.618l-.005-5.966Zm13.583 0h12.841v5.966h-12.841v-5.966Zm0-1.006v-6.856h12.841v6.856h-12.841Zm13.805-6.856h12.699v6.856h-12.699v-6.856Zm13.663 0h13.136v6.856h-13.136v-6.856Zm0-1.006v-13.222h6.335l6.33 13.219-12.665.003Zm0-14.225v-12.224l5.854 12.224h-5.854Zm-.964 0h-12.699v-13.848h12.699v13.848Zm-13.663 0h-12.841v-13.848h12.841v13.848Zm-12.841-14.857v-13.455h12.841v13.455h-12.841Zm0-14.461v-13.112h12.841v13.112h-12.841Zm0-14.118v-13.496h12.841v13.496h-12.841Zm0-14.5v-14.15h12.841v14.159l-12.841-.009Zm-.96-15.165h-12.618v-10.851h12.623l-.005 10.851Zm-12.623-11.857v-6.066l3.913-3.696 8.132 9.747-12.045.015Zm-.8-6.658a.488.488 0 0 0-.117.169.493.493 0 0 0-.041.204v6.273h-29.468v-8.904l19.885-18.16 13.827 16.571-4.086 3.847Zm-30.034-3.237-8.175-11.949 8.724-8.043 9.303 11.002-9.852 8.99Zm-3.211-17.873h-8.404l-4.924-8.581 6.724-5.818 9.724 11.541-3.12 2.858Zm-13.793-9.469-6.517-13.067 3.834-3.525 9.237 10.928-6.554 5.664Zm-3.445-4.735h-6.855v-4.864l3.032-2.785 3.823 7.649Zm.501 1.006 2.185 4.377-9.541 8.253v-12.621l7.356-.009Zm-8.319 13.198h-26.351v-13.198h26.351v13.198Zm-27.326 0h-12.751v-13.198h12.751v13.198Zm-13.725 0h-13.012v-13.198h13.012v13.198Zm-13.975 0h-13.062v-13.198h13.073l-.011 13.198Zm-13.074-14.204v-13.848h13.074v13.848h-13.074Zm-.963 0h-12.575v-13.848h12.575v13.848Zm-13.538 0h-12.955v-13.848h12.955v13.848Zm-13.918 0h-12.371v-13.848h12.357l.014 13.848Zm-13.318 0h-5.465v-13.848h5.465v13.848Zm-6.432 14.204h-19.267v-28.052H230.9v28.052Zm-20.233-14.204h-11.799v-13.848h11.793l.006 13.848Zm-12.751 0h-13.742v-13.848h13.731l.011 13.848Zm0 1.006v13.198h-13.742v-13.198h13.742Zm-14.694 13.198h-1.896a.483.483 0 0 0-.365.178l-5.596 6.859h-4.792v-20.226h12.637l.012 13.189Zm-7.628 8.043a.477.477 0 0 0 .366-.178l5.596-6.859h1.666v14.109h-12.638v-7.072h5.01Zm7.628 8.078v14.375l-12.638.16v-14.526l12.638-.009Zm-13.601 14.547-13.261.169v-14.707h13.261v14.538Zm0 1.006v8.078H156.36v-7.897l13.261-.181Zm0 9.076v14.029H156.36v-14.021l13.261-.008Zm0 15.035v13.496H156.36v-13.496h13.261Zm.963 14.499h12.638v13.115h-12.638v-13.115Zm13.601 0h13.731v13.115h-13.742l.011-13.115Zm14.694 0h11.793v13.115h-11.804l.011-13.115Zm26.788 0h13.204v13.115h-13.204v-13.115Zm0-1.006v-13.496h13.204v13.496h-13.204Zm14.167-13.496h12.638v13.496h-12.638v-13.496Zm13.601 0h13.011v13.496h-13.011v-13.496Zm13.969 0h9.515v6.755a.52.52 0 0 0 .071.261l3.057 5.219v1.267h-12.64l-.003-13.502Zm24.589 0h2.218v13.496h-2.218v-13.496Zm3.182 0h27.11v13.496h-27.11v-13.496Zm28.068 0h12.448v13.496h-12.448v-13.496Zm13.411 0h13.3v13.496h-13.3v-13.496Zm13.3 14.499v13.112h-13.3v-13.112h13.3Zm.964 14.118h12.841v13.455h-12.841v-13.455Zm13.807 0h12.773v13.455h-12.773v-13.455Zm12.773 14.464v13.849h-12.773v-13.849h12.773Zm0 14.855v13.224h-12.773v-13.213l12.773-.011Zm.964 0h12.668v13.221h-12.679l.011-13.221Zm12.668 14.224v6.856h-12.679v-6.856h12.679Zm0 7.862v5.966h-12.679v-5.966h12.679Zm.964 6.972h13.229v27.268h-13.229v-27.268Zm14.192 0h12.624v27.268h-12.635l.011-27.268Zm27.389 0h12.699v14.156l-12.699.405v-14.561Zm0-1.006v-5.966h12.699v5.966h-12.699Zm13.663-5.966h13.136v5.966h-13.136v-5.966Zm14.099 0h2.814l2.856 5.966h-5.667l-.003-5.966Zm0-1.006v-4.853l2.332 4.868-2.332-.015Zm-6.687-21.08h5.724v11.951l-5.724-11.951Zm-.482-1.006-6.633-13.849h12.839v13.849h-6.206Zm-20.593-14.858v-13.455h12.699v13.455h-12.699Zm0-14.461v-13.112h12.699v13.112h-12.699Zm0-14.118v-13.496h12.699v13.496h-12.699Zm0-14.499v-14.136h12.699v14.159l-12.699-.023Zm12.699-16.119-7.44-9.898h7.44v9.898Zm-.507.953h-12.184v-10.851h4.035l8.149 10.851Zm-13.156-11.857h-13.102l-8.695-10.422.94-.887 9.184-8.298 11.654 13.991.019 5.616Zm-21.494-12.064-.935.888-13.816-16.571 10.121-9.224 13.836 16.607-9.206 8.3Zm-15.397-16.426-9.288-11.132c3.261-3.018 6.681-6.181 10.067-9.321l9.35 11.212-10.129 9.241Zm-.726.663-9.087 8.285-9.305-11.004c2.723-2.516 5.823-5.38 9.107-8.419l9.285 11.138Zm-29.377-15.701-9.257-10.949 4.225-3.873 9.186 11.245-4.154 3.577Zm-9.895-11.706-4.706-5.56 4.468-3.797 4.474 5.475-4.236 3.882Zm-35.985 13.286h-12.75V180.65h12.75v13.848Zm-13.725 0h-13.011V180.65h13.011v13.848Zm-13.011-14.854v-13.979h13.011v13.979h-13.011Zm-.964 0h-13.056v-13.979h13.073l-.017 13.979Zm-14.037 0h-12.575v-13.979H278.1v13.979Zm-13.538 0h-12.955v-13.979h12.955v13.979Zm-13.918 0h-12.365v-13.979h12.357l.008 13.979Zm-13.317 0h-5.466v-13.979h5.466v13.979Zm-6.432 0h-19.268v-13.979h19.268v13.979Zm-20.234 0h-11.793v-13.979h11.793v13.979Zm-12.751 0h-13.736v-13.979h13.731l.005 13.979Zm-14.694 1.006v13.848h-12.637V180.65h12.637Zm-13.601 13.848h-13.26V180.65h13.26v13.848Zm0 1.006v20.235h-13.26v-20.235h13.26Zm0 21.241v7.072h-13.26v-7.072h13.26Zm-14.224 8.078v14.745l-12.895.163v-14.908h12.895Zm0 15.736v7.886h-12.9v-7.72l12.9-.166Zm-12.895 8.892h12.895v14.029h-12.9l.005-14.029Zm12.895 15.036v13.496h-12.9v-13.496h12.9Zm-13.858 13.496h-12.261v-13.496h12.255l.006 13.496Zm0 1.006v13.118h-12.261v-13.118h12.261Zm-13.218 14.118v10.206h-13.261v-10.212l13.261.006Zm14.181 0h12.895v14.763l-6.103-4.474a.467.467 0 0 0-.283-.089h-6.517l.008-10.2Zm28.083 0h12.637v13.461h-12.637v-13.461Zm13.6 0h13.731v13.461h-13.736l.005-13.461Zm14.695 0h11.796v13.461h-11.802l.006-13.461Zm11.796 14.464v12.156h-11.802v-12.156h11.802Zm.96 0h13.048v12.153h-13.054l.006-12.153Zm14.031-1.006v-13.458h13.204v13.458h-13.204Zm14.168-14.461v-13.115h12.637v13.115h-12.637Zm13.6-13.115h13.012v13.115h-13.012v-13.115Zm13.972 0h12.64v13.115h-12.64v-13.115Zm13.601 0H294.2v13.115h-13.198v-13.115Zm14.167 0h27.111v13.112h-27.111v-13.112Zm28.069 0h12.447v13.112H323.24l-.002-13.112Zm12.447 14.118v13.458H323.24v-13.458h12.445Zm0 14.464v13.848h-12.442v-13.848h12.442Zm.963 0h13.301v13.848h-13.301v-13.848Zm14.264 0h12.841v13.848h-12.841v-13.848Zm12.841 14.854v13.225h-12.841v-13.228l12.841.003Zm.967 14.225h12.773v6.856H364.72v-6.856Zm12.773 7.862v5.966H364.72v-5.966h12.773Zm0 6.972v27.268H364.72v-27.268h12.773Zm0 28.274v3.355l-12.773-2.509v-.846h12.773Zm-13.74.657-3.343-.657h3.343v.657Zm14.703 3.914 20.118 3.954-2.304 4.675h-8.871l-8.946-2.663.003-5.966Zm13.632 1.655v-6.214h13.229v8.823l-13.229-2.609Zm14.193-6.214h12.623v11.493l-12.623-2.48v-9.013Zm13.583 0h12.842v9.794c0 .07.014.138.042.201l1.941 4.599-14.825-2.912V379.77Zm13.805 9.688v-9.688h12.7v14.762h-10.558l-2.142-5.074Zm0-10.695v-11.718l12.7-.405v12.132l-12.7-.009Zm13.663-12.153 13.136-.417v12.57h-13.136V366.61Zm0-1.006v-14.109h13.136v13.689l-13.136.42Zm14.099-14.109h6.155l6.35 13.26-12.505.4v-13.66Zm7.231 0h5.56v11.609l-5.56-11.609Zm-.481-1.006-2.859-5.965h8.9v5.965h-6.041Zm6.041-6.971h-9.382l-3.284-6.868h12.666v6.868Zm-12.791-7.863v-13.233h12.791v13.219l-12.791.014Zm0-14.224v-13.848h12.791v13.848h-12.791Zm0-14.857v-13.455h12.791v13.455h-12.791Zm-.963 0h-13.136v-13.455h13.136v13.455Zm-13.136-14.461v-13.112h13.136v13.109l-13.136.003Zm0-14.118v-13.497h13.136v13.497h-13.136Zm0-14.5v-14.162h13.136v14.159l-13.136.003Zm14.099-14.159h12.791v14.159h-12.791v-14.159Zm-14.099-13.508V214.25l11.277 10.685-11.277 10.893Zm-.139-23.054-9.259-11.159 15.144-13.671 19.092 23.924-12.849 12.396-12.128-11.49Zm-.824.544v23.155h-8.197l-4.605-6.128-11.793-14.154 15.414-13.931 9.181 11.058Zm-25.218 2.119-13.839-16.61 15.38-14.043 13.884 16.73-15.425 13.923Zm-14.474-17.37-9.35-11.218c5.5-5.101 10.872-10.09 15.281-14.204l9.447 11.384-15.378 14.038Zm-10.699-11.31a7549.564 7549.564 0 0 1-10.07 9.324l-9.415-11.289 10.243-9.14 9.242 11.105Zm-20.117-2.725-9.382-11.245 10.116-9.297 9.517 11.425-10.251 9.117Zm-.734.654-4.525 4.004-9.2-11.245 4.346-3.995 9.379 11.236Zm-33.543-11.464 5.384 5.51-.887.926h-25.272v-13.993h20.608v7.185a.51.51 0 0 0 .156.358l.011.014Zm-21.732 6.436h-12.751v-13.993h12.751v13.993Zm-13.726-14.984h-13.011v-13.287h13.011v13.287Zm-13.974 0h-13.071v-13.287h13.073l-.002 13.287Zm-14.037-14.269H265.54v-13.132h12.575v13.132Zm0 1.006v13.263H265.54v-13.287l12.575.024Zm-13.539 13.263h-12.954v-13.287h12.954v13.287Zm-13.918 0h-12.379v-13.287h12.357l.022 13.287Zm-13.317 0h-5.466v-13.287h5.466v13.287Zm-6.432 0h-19.268v-13.287h19.268v13.287Zm-20.234 0h-11.807v-13.287h11.79l.017 13.287Zm-41.85-7.611a.527.527 0 0 0 .142-.358v-5.318h7.004c.08 0 .159-.021.229-.062l3.709-2.089-1.799 6.401a.561.561 0 0 0-.015.2.548.548 0 0 0 .06.19l4.704 8.632h-12.481l-3.117-5.989 1.564-1.607ZM155.4 179.658h-12.909v-13.993h12.895l.014 13.993Zm0 1.007v13.848h-12.909v-13.848H155.4Zm0 14.854v20.234h-12.909v-20.249l12.909.015Zm-13.859 28.313h-12.269v-14.124h8.116l4.139 6.682.014 7.442Zm0 1.006v14.905l-12.254.156v-15.061h12.254Zm0 15.914v22.743h-12.269v-22.586l12.269-.157Zm-13.218 22.743h-13.26v-22.406l13.26-.169v22.575Zm0 1.006v13.497h-13.26v-13.497h13.26Zm-14.224 13.497h-25.37v-13.497h25.356l.014 13.497Zm-26.323 0H73.938v-13.497h13.827l.011 13.497Zm-14.79 0h-6.917a.453.453 0 0 0-.283.086l-5.778 4.068v-17.651h12.95l.028 13.497Zm-13.828 5.956 7.058-4.971h6.756v13.118H59.827l-.127.026a.415.415 0 0 0-.16-.035.47.47 0 0 0-.308.124l-8.693 1.696-6.854-.844.24-3.764 15.117-5.288a.478.478 0 0 0 .116-.062ZM43.62 294.077l6.876.85h.057a.43.43 0 0 0 .088 0l8.415-1.649v13.13l-16.224.038.788-12.369Zm16.4-.97h12.949v13.262l-12.95.03v-13.292Zm13.912 0h13.827v13.227l-13.827.032v-13.259Zm14.794 0h25.356v10.241l-12.246 2.959-13.11.033v-13.233Zm37.549 22.729 2.915-4.037a.526.526 0 0 0 .097-.296v-7.19h19.579l6.52 4.794v10.859l-6.404 4.498H133.86l-7.582-2.633-.003-5.995Zm37.86-7.431 5.472-.769v3.483l-5.472-2.714Zm6.435-.834h12.638v10.297l-12.638-6.27v-4.027Zm13.601 0h13.731v12.099l-13.731-1.461v-10.638Zm14.694 13.159h11.796v18.855l-11.796-6.489V320.73Zm12.751 0h13.062v26.572l-13.065-7.19.003-19.382Zm14.031 0h13.204v34.367l-13.204-7.265V320.73Zm14.168-13.159h26.611v53.982l-26.611-6.027v-47.955Zm13.6-1.006v-13.458h13.011v13.458h-13.011Zm27.578-13.458h13.199v13.458h-13.199v-13.458Zm14.168 0h27.11v13.458h-27.11v-13.458Zm41.482 29.315h13.3v13.225H336.64l.003-13.225Zm13.303 14.225v13.828h-13.317v-13.828h13.317Zm.96 4.199 3.718 3.533c.089.083.204.13.323.13h8.801v5.966h-12.842v-9.629Zm12.842 10.635v27.268h-8.467l-4.375-.861v-26.407h12.842Zm-9.067 28.173-1.508 8.877-3.743-2.852 1.36-6.806 3.891.781Zm105.781 14.864h-13.136v-14.763h13.136v14.763Zm27.95-15.769h-26.986v-12.603l12.79-.405v7.909c0 .134.051.261.141.356a.47.47 0 0 0 .681 0 .512.512 0 0 0 .141-.356v-7.942l13.233-.42v13.461Zm0-14.467-13.233.42v-13.221h13.233v12.801Zm0-13.807h-13.233v-13.828h13.233v13.828Zm0-14.837h-13.233v-13.216h13.233v13.216Zm0-26.709v12.487h-13.233v-13.848h9.223a.443.443 0 0 0 .176-.039l3.834 1.4Zm-4.491-15.825v13.455h-8.742v-13.455h8.742Zm-22.495-1.009v-13.109h12.79v13.109h-12.79Zm12.79-14.115h-12.79v-13.496h12.79v13.496Zm.963-14.5v-14.147h8.9l.958 14.159-9.858-.012Zm8.101-15.165h-8.101v-2.855l2.247-2.69 5.854 5.545Zm-2.122-11.54-3.811 4.569-17.315-16.409 12.75-12.298 3.879 4.862-10.792 9.839a.506.506 0 0 0-.164.345.514.514 0 0 0 .267.485.468.468 0 0 0 .531-.072l10.768-9.824 2.249 2.817 1.63 2.044.008 13.642Zm-1.247-16.781-2.21-2.767-3.811-4.776h5.217l.804 7.543Zm-19.65-38.551a.473.473 0 0 0 .108-.139l2.247-4.303a.51.51 0 0 0 .059-.239v-7.161l8.025-5.714a.521.521 0 0 0 .11-.11l11.079-15.041 26.992.888 7.282 3.133c.058.026.121.04.184.039h14.32l-7.389 4.51a.486.486 0 0 0-.179.189l-14.283 26.862-18.078 1.157a.477.477 0 0 0-.255.095l-8.243 6.297a.496.496 0 0 0-.124.142l-4.364 7.38a.518.518 0 0 0-.068.323l1.306 11.688h-5.91l-19.285-24.167 6.466-5.829Zm-22.951 19.4-13.884-16.734 15.397-14.059 13.649 17.11-15.162 13.683Zm.887-31.562-15.42 14.064-9.452-11.392c5.698-5.326 9.634-9.052 9.84-9.38.457-.716 1.29-5.191 1.961-9.173l13.071 15.881Zm-13.64-49.884 12.75 13.316-4.737 4.95-7.302 9.188a.547.547 0 0 0-.105.243 347.194 347.194 0 0 1-.632 4.015l-14.847-18.068 14.873-13.644Zm-15.584 14.322 15.354 18.686c-.81 4.871-1.618 9.091-1.938 9.597-.306.396-4.072 3.959-9.679 9.196l-9.209-11.096-10.05-12.112 15.522-14.271Zm-16.27 14.931 9.724 11.721-15.601 13.875-9.529-11.437 15.406-14.159Zm-26.02 2.959 9.257 11.112-10.115 9.297-5.99-7.188a.515.515 0 0 0-.164-.126.46.46 0 0 0-.199-.045h-2.366v-4.35l9.577-8.7Zm-10.532 8.656v4.406h-13.799l-1.334-16.479a.516.516 0 0 0-.169-.343.47.47 0 0 0-.351-.118.473.473 0 0 0-.328.177.511.511 0 0 0-.113.366l1.329 16.397h-20.582v-13.284h10.809a.461.461 0 0 0 .335-.142l9.996-10.019 14.207 19.039Zm-24.73-9.863h-10.617v-13.129h18.182l2.363 3.163-9.928 9.966Zm-24.343-27.762h9.832l2.817 13.638h-12.649V122.64Zm-.963 14.644v13.118h-13.011v-13.129l13.011.011Zm-41.202-56.512 2.304-7.457 4.194 1.796 2.921 7.75a.45.45 0 0 0 .074.133l17.734 22.528v30.744h-26.612v-10.581l.496-34.989-1.111-9.924Zm-.348 56.501v13.117H251.61v-13.117h12.955Zm-13.918 0v13.117h-12.368v-13.117h12.368Zm-13.317 0v13.117h-5.466v-13.117h5.466Zm-6.432 0v13.117H211.63v-13.117h19.268Zm-40.601-46.278 9.543-1.127 4.534 13.112a.509.509 0 0 0 .201.257l9.214 5.966 1.573 4.563-4.616 15.132a.574.574 0 0 0-.023.154v7.487a.525.525 0 0 0-.065.236v13.612h-11.79v-19.184a.517.517 0 0 0-.134-.348.474.474 0 0 0-.328-.155l-4.275-.168v-11.837a.545.545 0 0 0-.017-.133l-3.032-11.398a.513.513 0 0 0-.153-.252l-4.664-4.104a.492.492 0 0 0-.368-.115l-7.515.938-.85-1.625 9.818-12.987 2.624 1.885a.48.48 0 0 0 .323.091Zm-20.174-4.281 16.216 2.024-9.736 12.881-5.99 6.711a.482.482 0 0 0-.119.236l-1 4.889a.562.562 0 0 0 0 .231l2.122 8.563a.51.51 0 0 0 .073.169l5.055 7.418-6.4-.254-8.161-12.271a.473.473 0 0 0-.394-.216h-5.397l1.924-15.755a.53.53 0 0 0-.1-.375l-3.935-5.232 15.842-9.02Zm-32.888 30.381-.851-17.27 2.834-7.883 8.897 3.903a.476.476 0 0 0 .17.039l5.015.186 4.027 5.35-1.916 15.683h-18.176v-.008Zm5.256 16.834h1.272a.477.477 0 0 0 .341-.15.517.517 0 0 0 .141-.356v-2.513l13.6-.813 11.759.467v3.72l-3.4 9.599a.551.551 0 0 0 0 .296l1.794 6.773v5.525l-1.689 1.749a.515.515 0 0 0-.082.592l3.043 5.838h-26.779v-30.727Zm-13.219 18.254h12.255v12.482h-12.255v-12.482Zm0 13.488h12.255v13.979h-12.255v-13.979Zm12.255 14.985v13.848h-12.255v-13.848h12.255Zm-12.255 14.854h12.255v19.033l-3.474-5.604a.468.468 0 0 0-.402-.231h-8.379V195.51Zm-14.224 14.204h13.261v14.109h-13.261v-14.109Zm0 15.115h13.261v15.073l-13.261.172v-15.245Zm-13.203 16.42 12.24-.157v22.394H88.728v-22.027l13.117-.21Zm-14.083.225v22.012H73.938v-21.793l13.824-.219Zm-14.79 22.012h-12.95v-21.571l12.95-.205v21.776Zm-35.838-21.204 21.925-.353v21.557h-2.85l-2.86-5.518a.485.485 0 0 0-.24-.228l-3.37-1.432a.475.475 0 0 0-.18-.039H37.754l2.026-5.841a.525.525 0 0 0 0-.337l-2.646-7.809ZM24.55 270.541l3.29-4.664h6.234a.464.464 0 0 0 .276-.091.5.5 0 0 0 .177-.24l2.867-8.268h12.057l3.117 1.326 2.913 5.622a.49.49 0 0 0 .177.193c.075.046.16.071.248.07h3.136v18.347l-.388.272-15.357 5.371a.486.486 0 0 0-.23.17.518.518 0 0 0-.1.274l-.26 4.107h-20.75v-11.109l2.593-11.38Zm12.893 65.837a.463.463 0 0 0-.11.091l-15.367-17.597v-12.491l8.336 3.371a.475.475 0 0 0 .267.023l11.28-2.24v26.614l-4.406 2.229Zm7.449.032-2.089-2.181v-26.785l16.259-.039v28.999l-14.17.006Zm15.13-28.999 12.95-.03v29.038h-12.95v-29.008Zm13.913 28.999v-29.04l13.827-.033v29.073H73.935Zm33.27-3.092a.467.467 0 0 0-.243.068l-4.973 3.018h-13.26v-29.073l13.218-.032 12.138-2.927v17.311h-12.246a.474.474 0 0 0-.341.147.515.515 0 0 0 0 .711.471.471 0 0 0 .341.148h12.246v10.626l-6.88.003Zm8.932 31.94-1.089-18.311v-12.629h13.261v28.875l-12.172 2.065Zm35.749-4.575-4.357 1.004a.472.472 0 0 0-.216.114.513.513 0 0 0-.136.208l-1.133 3.323h-16.772v-31.517a.518.518 0 0 0-.028-.175l-2.966-8.421v-2.338l7.352 2.557a.457.457 0 0 0 .151.026h15.348c.101.004.2-.026.284-.085l5.987-4.208v32.156a.506.506 0 0 0 .153.367l1.612 1.577-5.279 5.412Zm26.808-10.652-2.284 3.116-4.287-1.581a.452.452 0 0 0-.374.024.485.485 0 0 0-.246.296c-.261.87-.692 1.775-.865 1.861-.586.074-6.8-.686-10.594-1.183a.458.458 0 0 0-.397.139l-1.81 1.861-1.488-1.459v-32.334l13.261 1.122v12.662c0 .133.05.261.141.355a.469.469 0 0 0 .681 0 .514.514 0 0 0 .141-.355v-21.847l12.637 6.267v33.166l-3.901-2.258a.463.463 0 0 0-.615.139v.009Zm33.463 15.89v4.9h-11.246a.425.425 0 0 0-.15.024l-6.67 2.278-8.359-4.486-.788-3.527 4.922-12.505 2.114 1.995c.088.083.204.13.323.13h16.717l3.137 11.191Zm-3.182-12.171h-16.488l-2.323-2.195V333.83a.515.515 0 0 0-.141-.356.474.474 0 0 0-.341-.147.474.474 0 0 0-.341.147.515.515 0 0 0-.141.356v17.535l-5.026 1.039v-33.183l13.731 1.459v12.724a.517.517 0 0 0 .258.446l12.467 6.854-1.655 13.046Zm58.426 8.037v-54.201h26.805v11.223a.524.524 0 0 0 .176.391l9.05 7.694 2.604 10.401-9.776 4.734-18.984 4.735a.479.479 0 0 0-.28.202.52.52 0 0 0 .073.66c.087.082.2.128.317.129a.435.435 0 0 0 .114 0l19.066-4.776 10.124-4.915 6.517-1.402h22.469v13.827h-19.222a.467.467 0 0 0-.34.148.51.51 0 0 0-.141.355c0 .134.05.262.141.356a.47.47 0 0 0 .34.147h19.225v10.875c0 .134.051.261.141.356a.474.474 0 0 0 .341.147c.128 0 .25-.053.341-.147a.517.517 0 0 0 .141-.356v-10.889h13.317v26.22l-31.1-6.11-9.436-1.684v-19.125a.51.51 0 0 0-.141-.355.469.469 0 0 0-.681 0 .514.514 0 0 0-.141.355v18.953l-27.077-4.826v-15.683a.51.51 0 0 0-.141-.356.472.472 0 0 0-.34-.147.472.472 0 0 0-.341.147.515.515 0 0 0-.141.356v15.502l-13.02-2.941Zm28.851 56.61-8.421 2.166-4.698-2.894a.48.48 0 0 0-.182-.065.478.478 0 0 0-.192.015l-5.384 1.58v-8.522a.505.505 0 0 0-.082-.278l-3.301-5.235-1.224-15.996 5.596-9.532 2.771-1.757a.504.504 0 0 0 .232-.432v-11.526l37.303 6.649 31.168 6.125-1.346 6.694h-3.967a.462.462 0 0 0-.303.112l-3.845 3.285-4.817-3.314a.464.464 0 0 0-.547 0l-3.728 2.811v-5.14a.516.516 0 0 0-.125-.339.47.47 0 0 0-.312-.161l-12.555-1.243a.453.453 0 0 0-.24.042.49.49 0 0 0-.191.159l-16.009 22.424-8.262.506a.492.492 0 0 0-.283.133l-4.877 4.714a.518.518 0 0 0-.068.657l1.372 2.071a.5.5 0 0 0 .211.179c.085.038.179.05.27.034l4.103-.757 5.064 2.216v6.806l-2.723-2.13a.456.456 0 0 0-.408-.071v.014Zm43.896-4.477a.464.464 0 0 0-.513.113l-4.534 4.734-8.384-.763a.493.493 0 0 0-.283.062l-5.891 3.412-4.959-1.69a.458.458 0 0 0-.49.124l-6.8 7.161a.51.51 0 0 0-.149-.333.462.462 0 0 0-.327-.137h-5.055l-2.437-5.09v-8.031a.523.523 0 0 0-.075-.276.49.49 0 0 0-.208-.188l-5.491-2.403a.482.482 0 0 0-.27-.033l-3.935.725-.964-1.458 4.435-4.273 8.313-.509a.474.474 0 0 0 .357-.202l15.984-22.385 11.846 1.184v5.634a.518.518 0 0 0 .264.446.467.467 0 0 0 .501-.038l4.222-3.187 4.84 3.329a.458.458 0 0 0 .567-.032l3.983-3.403h4.038l4.151 3.16-10.282 19.811a.523.523 0 0 0-.047.354c.027.12.095.226.191.297l4.366 3.255a.486.486 0 0 0 .397.077l3.14-.82 2.938 5.404a.486.486 0 0 0 .334.245l3.885.725-4.109.417-13.549-5.418Zm23.33 78.156v-5.56a.52.52 0 0 0-.144-.361l-7.75-7.907-1.47-11.473 1.113-38.364 6.234-2.424a.467.467 0 0 0 .229-.183.517.517 0 0 0 .086-.287v-5.951l7.576-.059-.116 8.478a.515.515 0 0 0 .028.183l1.307 3.664-3.616-4.179a.47.47 0 0 0-.594-.094.524.524 0 0 0-.225.583l5.834 19.698-3.853 27.381a.52.52 0 0 0 .068.337l3.307 5.605a.48.48 0 0 0 .3.224l5.517 1.365 3.295 13.386a.499.499 0 0 0 .139.243l3.992 3.909a.476.476 0 0 0 .345.136.47.47 0 0 0 .335-.16.515.515 0 0 0-.02-.71l-3.893-3.811-3.315-13.532a.507.507 0 0 0-.13-.234.482.482 0 0 0-.227-.13l-5.607-1.385-3.117-5.27 3.819-27.147 4.877-5.095a.508.508 0 0 0 .116-.198l1.997-6.253a.524.524 0 0 0-.028-.388l-3.117-6.403 3.239-5.889a.518.518 0 0 0 0-.488l-1.745-3.388a.496.496 0 0 0-.243-.225.464.464 0 0 0-.324-.015l-5.069 1.722-1.896-2.166 7.061-2.225h2.941v1.063a.522.522 0 0 0 .11.319c.071.09.169.152.278.175l12.184 2.571 4.758 5.859a.485.485 0 0 0 .241.16l4.989 1.435a.485.485 0 0 0 .595-.346l1.213-4.933 1.873-1.725h7.432l2.103 3.048a.473.473 0 0 0 .309.201l4.839.843V428.171a.411.411 0 0 0 .017.098.608.608 0 0 0 .028.092v.032l5.05 9.419-6.072 5.593a.512.512 0 0 0-.162.343l-2.372 34.139a.537.537 0 0 0 .117.366.468.468 0 0 0 .331.172h.034a.467.467 0 0 0 .328-.134.51.51 0 0 0 .151-.333l2.357-33.935 6.217-5.729a.52.52 0 0 0 .102-.624l-3.434-6.401 5.083 5.478 1.839 6.267a.476.476 0 0 0 .241.296.458.458 0 0 0 .38.027l6.361-2.347a.445.445 0 0 0 .218-.163l3.168-4.196 4.989-2.13 2.284 3.929a.485.485 0 0 0 .278.224c.116.035.24.023.348-.034l8.053-4.205 8.172 2.929a.464.464 0 0 0 .324-.014.496.496 0 0 0 .243-.225l.714-1.412 2.669 2.447-4.041 2.326a.505.505 0 0 0-.249.441v5.356a.497.497 0 0 0 .099.296l4.534 6.238v7.397a.514.514 0 0 0 .074.277.48.48 0 0 0 .209.188l7.622 3.362 3.712 13.043v6.862h-4.386a.47.47 0 0 0-.341.148.514.514 0 0 0 0 .711c.09.094.213.147.341.147h4.386v1.829c0 .134.05.261.141.356.09.094.213.147.34.147a.472.472 0 0 0 .341-.147.517.517 0 0 0 .141-.356v-1.829h33.35v27.65h-26.918v-6.146a.519.519 0 0 0-.141-.356.472.472 0 0 0-.341-.147.472.472 0 0 0-.34.147.514.514 0 0 0-.141.356v6.146h-5.99l-.383.042v-9.697a.515.515 0 0 0-.141-.356.472.472 0 0 0-.34-.147.472.472 0 0 0-.341.147.515.515 0 0 0-.141.356v9.803l-6.021.642a.478.478 0 0 0-.315.174.519.519 0 0 0 .033.689.472.472 0 0 0 .33.14h.051l5.922-.63v13.73h-16.763a.472.472 0 0 0-.339.149.516.516 0 0 0-.14.354v4.483l-3.36-5.566a.47.47 0 0 0-.665-.158.52.52 0 0 0-.151.694l3.78 6.264h-9.317v-6.149a.519.519 0 0 0-.141-.356.472.472 0 0 0-.341-.147.472.472 0 0 0-.34.147.514.514 0 0 0-.141.356v6.155h-10.249a.474.474 0 0 0-.341.147.519.519 0 0 0 0 .712.474.474 0 0 0 .341.147h10.249v1.326c0 .133.05.261.141.356.09.094.213.147.34.147a.472.472 0 0 0 .341-.147.519.519 0 0 0 .141-.356v-1.326h9.725v6.392a.505.505 0 0 0 .287.499.46.46 0 0 0 .386 0 .475.475 0 0 0 .16-.119.517.517 0 0 0 .127-.38v-6.41h.351l19.988 3.613-2.267 10.431-.391-.056h-11.578a.472.472 0 0 0-.34.147.514.514 0 0 0-.141.356c0 .134.05.261.141.356.09.094.213.147.34.147h11.507l.249.036-.538 2.473-9.937-1.29a.458.458 0 0 0-.298.06.525.525 0 0 0-.076.828l7.614 6.767-1.437 4.344-13.992-1.592h-10.529a.467.467 0 0 0-.34.148.51.51 0 0 0-.141.355c0 .134.05.262.141.356.09.095.212.147.34.147h9.776v10.487l-9.246-2.769v-3.782a.519.519 0 0 0-.141-.356.472.472 0 0 0-.341-.147.472.472 0 0 0-.34.147.514.514 0 0 0-.141.356v3.551h-18.095l-1.38-3.675a.494.494 0 0 0-.176-.233.468.468 0 0 0-.271-.087h-3.743a.472.472 0 0 0-.341.147.519.519 0 0 0-.141.356v4.652l-10.515 3.409a.428.428 0 0 0-.142.077l-3.825 2.92-7.713-9.797 4.491-4.759a.511.511 0 0 0 .119-.349.512.512 0 0 0-.143-.34.475.475 0 0 0-.328-.145.473.473 0 0 0-.333.13l-.422.447-6.617-7.824a.47.47 0 0 0-.68-.044.515.515 0 0 0-.042.71l3.264 3.862-3.312 3.222-3.29-4.181a.485.485 0 0 0-.326-.182.475.475 0 0 0-.472.264.52.52 0 0 0 .053.557l3.326 4.229-4.533 4.409-3.179-4.735a.471.471 0 0 0-.679-.117.512.512 0 0 0-.197.33.528.528 0 0 0 .085.379l7.588 11.318-6.256 4.498-2.803-4.554-1.275-8.602-4.006-10.653-3.859-8.063 2.655-1.826 16.193.814a.494.494 0 0 0 .343-.137.543.543 0 0 0 .164-.342.519.519 0 0 0-.125-.363.477.477 0 0 0-.334-.164l-16.352-.82a.516.516 0 0 0-.283.08l-2.692 1.852-3.65-7.622v-7.546a.536.536 0 0 0-.07-.263l-6.004-10.135v-8.214a.59.59 0 0 0-.043-.208l-8.889-20.408Zm100.421 70.287 13.459 1.536-3.935 11.886-8.546-2.382-.978-.296v-10.744Zm-30.253 7.557-4.1.808v-3.918h2.933l1.167 3.11Zm-23.376 10.378-9.917 6.903-5.293-7.155 6.65-4.782a.53.53 0 0 0 .134-.145l3.947-6.723 7.531 9.57-3.052 2.332Zm-38.161-14.157 4.44-.698a.446.446 0 0 0 .221-.097l4.12-3.255a.51.51 0 0 0 .162-.235.536.536 0 0 0 .014-.289l-1.247-5.214a.524.524 0 0 0-.224-.311.477.477 0 0 0-.365-.053l-20.56 5.599 5.211-6.806a.518.518 0 0 0 .105-.314v-5.699l5.074-11.893a.533.533 0 0 0 .023-.346l-3.477-12.351 6.124-2.504 5.791 9.765v7.487c0 .078.017.155.051.225l7.974 16.656 3.966 10.508 1.264 8.602c.01.07.034.137.071.195l2.873 4.67-11.396 8.194-5.075 3.885-13.119-19.989 7.979-5.732Zm-8.5 4.904-5.421-8.286 20.826-5.672 1.054 4.394-3.799 2.995-4.432.698a.456.456 0 0 0-.201.083l-8.027 5.788Zm12.864 21.429-8.951 6.854-13.377-20.258 9.214-6.626 13.114 20.03Zm.535.838 4.429 7.045-9.35 5.874-4.035-6.075 8.956-6.844Zm-5.463 13.878a.482.482 0 0 0 .397.219.472.472 0 0 0 .247-.071l9.747-6.14 10.2 16.219.816 2.032-26.317 14.97-14.346-22.193 14.986-11.472 4.27 6.436Zm6.234-14.473 4.698-3.595 4.601 7.332-4.859 3.368-4.44-7.105Zm5.483-4.181 11.013-7.919 5.285 7.144-11.68 8.134-4.618-7.359Zm25.847-25.265-3.313 3.525-2.785-3.551 3.338-3.255 2.76 3.281Zm-3.945 4.309-3.76 6.365-3.706-5.528 4.59-4.462 2.876 3.625Zm-62.254-39.883 3.537.728 3.451 4.85a.483.483 0 0 0 .388.204h4.862a.467.467 0 0 0 .283-.1l1.848-1.43a.508.508 0 0 0 .195-.405v-4.057l7.231-2.959 3.4 12.091-5.043 11.818a.529.529 0 0 0-.043.204v5.623l-5.168 6.758v-18.488a.519.519 0 0 0-.141-.356.472.472 0 0 0-.34-.147h-8.339l-4.78-3.299a.467.467 0 0 0-.42-.057l-3.709 1.302v-9.862l2.788-2.418Zm-25.167 12.375 4.276-5.377h8.943a.472.472 0 0 0 .266-.08l3.462-2.367 4.469-1.651v9.726l-10.705 3.764a.496.496 0 0 0-.278.255.523.523 0 0 0 .068.554.478.478 0 0 0 .33.17.438.438 0 0 0 .186-.026l10.399-3.654v6.631c0 .134.051.261.141.356.09.094.213.147.341.147.127 0 .25-.053.34-.147a.517.517 0 0 0 .141-.356v-6.971l3.794-1.332 4.729 3.255c.08.054.172.083.267.083h8.001v19.092l-5.202 2.397a.472.472 0 0 0-.16.11.528.528 0 0 0-.141.363.525.525 0 0 0 .151.359.473.473 0 0 0 .538.088l5.123-2.367 5.585 8.525-9.492 6.826h-3.76a.471.471 0 0 0-.341.148.514.514 0 0 0 0 .711.475.475 0 0 0 .341.148h3.658l13.524 20.476-14.978 11.467-12.101-18.722-8.9-10.393 2.878-2.973a.526.526 0 0 0 .143-.356.534.534 0 0 0-.14-.358.486.486 0 0 0-.341-.149.475.475 0 0 0-.342.146l-2.833 2.939-6.038-7.049 5.383-.565a.477.477 0 0 0 .326-.182.52.52 0 0 0-.068-.71.473.473 0 0 0-.354-.111l-6.092.645-2.221-2.595-2.117-8.564v-10.999a.514.514 0 0 0-.141-.355.47.47 0 0 0-.341-.148h-.722l.005-10.824Zm2.859 31.858 1.496 1.745-3.584.379 2.088-2.124Zm-13.283-3.957-3.683-3.731 13.801-12.346h.547v10.561a.548.548 0 0 0 0 .128l2.091 8.46-3.116 3.172-7.152.754-2.389-6.805a.5.5 0 0 0-.113-.193h.014Zm3.281 7.919 5.276-.557-2.859 2.912-2.417-2.355Zm8.149 10.481-2.898-2.45-2.267-4.883 3.805-3.873 5.477-.577 6.549 7.643-8.64 9.431-1.887-5.081a.476.476 0 0 0-.139-.21Zm2.525 6.214 8.784-9.599 8.817 10.288 12.065 18.672-9.084 2.959-20.582-22.32Zm34.682 47.896c.153-5.457-.02-5.809-.08-5.918-.192-.394-2.009-3.794-2.009-3.794l-4.134-7.309-7.117-7.72 8.783-2.868a.5.5 0 0 0 .094-.05l14.292 22.078-9.829 5.581Zm24.061 7.862-7.083-4.166-5.769-8.925 26.634-15.142a.502.502 0 0 0 .224-.275.54.54 0 0 0-.008-.361l-1.026-2.536-10.229-16.275 4.834-3.367 21.152 33.692-28.729 17.355Zm29.556-17.867-21.18-33.748 22.016-15.328 11.175 16.884-5.817 3.874a.475.475 0 0 0-.153.165l-6.42 11.091a.513.513 0 0 0-.071.26v5.552c0 .091.025.181.071.26l4.842 8.285-4.463 2.705Zm19.004-18.781-3.315 9.297-10.39 6.279-4.783-8.19v-5.271l6.29-10.868 6.146-4.093a.502.502 0 0 0 .212-.525.51.51 0 0 0-.076-.185L411.2 580.822l7.231-5.525L428.583 572l-.006 39.697Zm.964-39.948 4.278-.84v10.963h-4.281l.003-10.123Zm14.493 21.8v-7.753a.51.51 0 0 0-.142-.355l-3.4-3.551a.484.484 0 0 0-.34-.145h-5.361v-10.928h17.939v6.572l-4.84 19.826-3.856-3.666Zm4.695 4.252 4.942-20.237a.523.523 0 0 0 0-.125v-6.356l9.245 2.77v28.963l-14.187-5.015Zm15.165 6.746v-30.404l.722.216 8.501 2.367-9.223 27.821Zm10.458-28.516 3.967-12.035 6.865.781-4.343 13.065-6.489-1.811Zm12.088 17.245a.472.472 0 0 0-.173.065l-10.872 6.957v-2.959l6.075-18.272 14.283 3.98-2.697 9.093-6.616 1.136Zm7.367-.26 11.138-1.935-2.182 6.353-3.913-.296a.456.456 0 0 0-.269.062l-7.273 4.246 2.499-8.43Zm-2.916 9.827 8.036-4.693 3.499.266-10.444 30.42-8.591-.711 7.5-25.282Zm7.594 27.599 22.951 4.324v2.533h-17.31l-.062-.048a.467.467 0 0 0-.284-.097h-5.304l.009-6.712Zm-16.477 12.725v-5.031h15.513v5.031h-15.513Zm16.477-5.031h4.967c.09.093.211.145.337.145h.028l6.342 4.874h-11.674v-5.019Zm19.726 14.42a.526.526 0 0 0-.119.331v2.385L512 651.109v-5.241a.52.52 0 0 0-.054-.232.492.492 0 0 0-.15-.179l-1.759-1.296h1.431l8.367 6.43-1.624 1.965Zm3.035-2.131 1.046-1.263a.52.52 0 0 0 .116-.329v-4.672h7.557v12.964l-8.719-6.7Zm9.682 8.031h5.276v5.06l-5.276-.322v-4.738Zm6.234 5.119v-5.119h6.301v5.504l-6.301-.385Zm7.262-5.119h5.604l-5.604 5.732v-5.732Zm6.981 0h5.755v13.858h-19.301l13.546-13.858Zm5.755 14.864v6.554h-19.998v-6.554h19.998Zm-19.998 7.557h19.998v12.428h-19.998v-12.428Zm0 13.422h19.998v6.685h-19.998v-6.685Zm0 7.694h19.998v9.644l-10.515 6.945h-9.483v-16.589Zm0 28.703v-11.114h9.633a.473.473 0 0 0 .258-.077l10.116-6.679v17.87h-20.007Zm20.967 0v-14.242h26.986v14.242h-26.986Zm27.95 0v-14.242h13.133v14.242h-13.133Zm20.061 1.006v6.552h-5.965v-6.531l5.965-.021Zm-5.965 27.52v-14.5h5.965v14.5h-5.965Zm6.928 1.006h12.776v13.848h-12.776v-13.848Zm0 14.855h12.776v13.457h-12.776v-13.457Zm0 14.464h12.776v3.37c0 .133.051.261.141.356.09.094.213.147.341.147h6.67v9.75h-19.939l.011-13.623Zm0 28.359v-13.745h19.928v13.766l-19.928-.021Zm20.9 0v-13.745h5.899v13.766l-5.899-.021Zm12.512 0h-5.65v-13.745h5.65v13.745Zm18.219-24.521v9.75h-17.253v-9.75h17.253Zm-18.219-1.007h-5.65v-2.831h5.65v2.831Zm0-3.846h-5.65v-13.458h5.65v13.458Zm0-14.464h-5.65v-13.849h5.65v13.849Zm0-14.855h-5.65v-13.591h5.65v13.591Zm0-14.594h-5.65v-12.896h5.65v12.896Zm0-13.943h-5.65v-14.243h5.65v14.243Zm0-15.249h-5.65v-13.458h5.65v13.458Zm.964-27.271h6.024v12.81h-6.022l-.002-12.81Zm6.987 12.81v-12.81h6.276v12.81h-6.276Zm6.276-13.813h-6.276v-13.851h6.276v13.851Zm.963-14.857v-22.193h4.174l1.984 1.275v20.912l-6.158.006Zm13.493 0h-6.383V651.26l9.302-14.012 3.836 2.598v32.45h-6.755Zm7.418-33.163-7.154-4.844-4.463-3.012 9.801-15.009 5.015 5.356-5.922 9.904a.543.543 0 0 0-.067.184.538.538 0 0 0 .083.375.485.485 0 0 0 .392.211.469.469 0 0 0 .408-.237l5.798-9.697 1.847 1.974v15.81l-5.738-1.015Zm6.716 1.211v-14.979l3.462 3.699a.462.462 0 0 0 .32.15l9.119.438v13.831l-12.901-3.139Zm24.368 5.918-10.513-2.551v-14.008l13.233.636 2.36 1.379v14.538l-5.08.006Zm12.467 0a.432.432 0 0 0-.142-.024h-6.267v-13.976l13.447 7.842 3.803 9.643-10.841-3.485Zm-6.409-15.145v-5.53l21.081 12.132-2.366 4.314-18.715-10.916Zm18.383 11.878-.567 5.536-3.009-7.625 3.576 2.089Zm3.176-6.146L713.5 624.293a.472.472 0 0 0-.478.008.515.515 0 0 0-.236.433v5.821l-1.984-1.16a.45.45 0 0 0-.212-.065l-13.388-.642v-17.074l14.28.68h.023a.468.468 0 0 0 .344-.139.518.518 0 0 0 .016-.711.471.471 0 0 0-.337-.156l-17.882-.852v-5.377h10.016l15.077 7.946-3.4 6.495a.514.514 0 0 0 .192.683.479.479 0 0 0 .655-.201l3.4-6.51 22.152 11.674-6.421 11.703Zm6.911-12.6-8.973-4.734 6.335-11.952 9.011 5.066-6.373 11.62Zm9.413-17.163-2.55 4.673-10.872-6.114 2.437-4.734 10.985 6.175Zm-11.391-7.548-10.325-5.809 3.117-5.918 10.407 5.525-3.199 6.202Zm-6.752-12.627 5.965-11.386 10.135 5.806-5.701 11.102-10.399-5.522Zm8.733-19.965a.52.52 0 0 0-.093-.062l-2.386-.932v-3.426a.53.53 0 0 0-.065-.251.494.494 0 0 0-.176-.184l-11.861-7.153 7.951-5.37 13.3 2.29-6.67 15.088Zm29.873-12.191-21.775-3.66h-.02l1.502-3.394a.492.492 0 0 0 .043-.154l2.184-21.096 13.283-16.571h8.75a.44.44 0 0 0 .204-.047l2.496-1.225v16.426l-3.074 3.965a.513.513 0 0 0-.108.317V548.6a.512.512 0 0 0 .145.358l-3.63 5.797Zm9.75-15.559-5.293 8.445v-18.157l3.075-3.965a.505.505 0 0 0 .107-.316v-7.694h5.322c.095 0 .187-.03.266-.086l8.438-5.918 4.389 11.608-16.304 16.083Z"/><path d="M630.715 436.859c.042.08.103.147.178.194.074.047.16.072.247.073a.47.47 0 0 0 .23-.063l15.844-8.877a.486.486 0 0 0 .234-.298.52.52 0 0 0-.156-.536.477.477 0 0 0-.166-.092c-.061-.019-.125-.026-.188-.019a.48.48 0 0 0-.18.057l-15.845 8.878a.495.495 0 0 0-.235.298.51.51 0 0 0 .037.385ZM501.463 136.592c11.079-2.575 17.241-4.069 18.349-4.439.479.077 2.715 1.24 4.627 2.338l4.99 14.647a.497.497 0 0 0 .261.296l6.276 2.882 18.344 9.765a.463.463 0 0 0 .218.057h6.987a.47.47 0 0 0 .341-.148.514.514 0 0 0 .141-.355V134.95l10.767-6.945h13.601v1.6h-1.641a.469.469 0 0 0-.207.048l-4.491 2.204a.5.5 0 0 0-.283.376.517.517 0 0 0 .145.444l1.844 1.808v27.798a.522.522 0 0 0 .156.373l23.71 22.542a.46.46 0 0 0 .323.13h12.264l5.42 2.169-.38 2.595a.526.526 0 0 0 .068.343l9.294 15.515v9.984c0 .133.051.261.141.356a.47.47 0 0 0 .681 0 .515.515 0 0 0 .142-.356v-10.117a.519.519 0 0 0-.074-.267l-9.271-15.479.283-1.967 14.091 11.336a.456.456 0 0 0 .663-.092.511.511 0 0 0 .097-.373.51.51 0 0 0-.185-.334l-14.649-11.789-2.947-6.149a.496.496 0 0 0-.163-.194.46.46 0 0 0-.233-.084l-2.423-.178v-6.746a.512.512 0 0 0-.092-.297.476.476 0 0 0-.242-.183l-5.154-1.713v-8.363a.53.53 0 0 0-.059-.238.494.494 0 0 0-.383-.263.447.447 0 0 0-.233.04l-12.51 5.693h-10.965l-6.421-6.104v-27.795a.506.506 0 0 0-.153-.367l-1.479-1.45 3.755-1.849h2.014a.476.476 0 0 0 .339-.149.513.513 0 0 0 .14-.354v-4.223l11.714-12.233a.492.492 0 0 0 .127-.231l2.834-11.611 5.726-6.883a.517.517 0 0 0-.048-.71.47.47 0 0 0-.68.05l-5.8 6.972a.48.48 0 0 0-.102.207l-2.834 11.594-11.722 12.28a.515.515 0 0 0-.139.358v1.32h-13.745a.472.472 0 0 0-.252.074l-11.104 7.166a.51.51 0 0 0-.23.429v26.484h-6.389l-18.265-9.732-6.112-2.805-4.984-14.624a.481.481 0 0 0-.218-.272c-4.993-2.88-5.369-2.625-5.559-2.489-.629.263-11.26 2.776-18.256 4.403a.483.483 0 0 0-.302.222.522.522 0 0 0 .151.695.486.486 0 0 0 .175.071.475.475 0 0 0 .188-.005l-.008-.024Zm100.084 43.38 16.261 1.201v3.149h-11.685l-4.576-4.35Zm19.304 1.426 2.318 4.841-4.401-1.775v-3.208l2.083.142Zm-8.2-9.253 5.157 1.711v6.308l-17.129-1.257v-9.898l11.64-5.294v7.963a.53.53 0 0 0 .092.295c.06.086.143.151.24.184v-.012Zm-12.938-2.974v9.058l-9.517-9.046 9.517-.012ZM411.667 98.937l-11.161 11.656-5.5-6.069a.472.472 0 0 0-.522-.124.505.505 0 0 0-.31.457.519.519 0 0 0 .132.359l5.84 6.445c.09.097.214.154.343.157.128 0 .25-.053.34-.148l11.512-12.023a.513.513 0 0 0 .141-.356.512.512 0 0 0-.142-.355.47.47 0 0 0-.681.001h.008ZM285.881 51.157l20.472 4.602 4.587 4.468-4.706 5.199a.686.686 0 0 0-.077.112l-4.533 9.102a.513.513 0 0 0-.061.401.507.507 0 0 0 .242.318.473.473 0 0 0 .388.027.476.476 0 0 0 .169-.11.516.516 0 0 0 .112-.171l4.497-9.04 4.695-5.152 21.344 20.761-7.293 8.303-3.91 4.084a.476.476 0 0 0-.108.174l-1.813 4.874a.517.517 0 0 0 .008.385.49.49 0 0 0 .266.266c.12.048.252.045.369-.009a.494.494 0 0 0 .255-.278l1.776-4.773 3.335-3.483 2.233 5.685a.499.499 0 0 0 .187.233l4.99 3.315.669 4.281v7.496a.513.513 0 0 0 .153.332.472.472 0 0 0 .659 0 .51.51 0 0 0 .154-.332v-7.576l-.709-4.583a.513.513 0 0 0-.218-.346l-5.063-3.35-2.332-5.942 7.084-8.07 13.572 13.204 1.802 2.891a.488.488 0 0 0 .303.22.455.455 0 0 0 .363-.072.521.521 0 0 0 .142-.695l-1.834-2.945a.476.476 0 0 0-.076-.094l-13.621-13.251 4.659-5.303 16.125 16.068c.089.09.208.14.331.14h.014a.452.452 0 0 0 .34-.16l14.227-16.012 13.618-15.325 15.938 17.443-9.35 9.076a.517.517 0 0 0-.026.713.477.477 0 0 0 .336.16.458.458 0 0 0 .344-.136l15.718-15.266 2.037-2.072a.504.504 0 0 0 .144-.36v-5.667l.604-3.06 7.186-1.79a.478.478 0 0 0 .266-.177.518.518 0 0 0 .105-.311v-4.004l9.634-6.238a.518.518 0 0 0 .229-.426v-6.714a.523.523 0 0 0-.15-.367l-3.593-3.53a.44.44 0 0 0-.105-.08l-11.288-6.164a.486.486 0 0 0-.221-.056h-3.137a.467.467 0 0 0-.354.163l-4.729 5.326-5.613-4.092a.464.464 0 0 0-.627.07l-9.024 10.062-10.816-11.372a.508.508 0 0 0-.351-.148.47.47 0 0 0-.346.163L352.961 58.93l-4.251-4.17 10.711-11.54a.516.516 0 0 0-.013-.712.47.47 0 0 0-.681.014l-10.719 11.54-5.066-4.965 10.483-11.786a.511.511 0 0 0 .086-.552.488.488 0 0 0-.455-.295.467.467 0 0 0-.336.16l-10.453 11.786L331.953 38.3a.468.468 0 0 0-.674.018l-3.924 4.175-9.118-9.058a.483.483 0 0 0-.344-.14.473.473 0 0 0-.338.156.517.517 0 0 0 .016.712l9.112 9.06-9.73 10.41-5.335 5.86-4.693-4.572a.48.48 0 0 0-.226-.124l-20.602-4.61a.466.466 0 0 0-.515.196.524.524 0 0 0-.006.572.477.477 0 0 0 .317.215l-.012-.013Zm47.758 29.777-21.333-20.749 4.998-5.489 21.013 20.939-4.678 5.3ZM322.32 49.32l10.115 10.105-4.227 4.734-10.235-10.197 4.347-4.643Zm16.638 25.56-10.053-10.016 4.224-4.735 10.008 9.999-4.179 4.752Zm26.351 5.327-4.704-4.673 3.704-4.128 4.712 4.622-3.712 4.178Zm-5.27 5.932-4.483-4.977 4.392-4.894 4.706 4.675-4.615 5.196Zm-.131-11.297-10.464-10.396 3.59-4.092 10.572 10.357-3.698 4.13Zm-.66.734-4.372 4.87-10.379-10.357 4.287-4.903 10.464 10.39ZM343.8 69.379l-4.48-4.474 4.406-4.75 4.367 4.339-4.293 4.885Zm-5.177-5.17-4.817-4.823 4.299-4.823 4.93 4.9-4.412 4.747Zm16.828 27.094-15.785-15.725 4.179-4.76 10.708 10.696 4.817 5.365-3.919 4.424Zm14.227-16.012-4.712-4.619 13.635-15.195 4.403 4.818-13.326 14.996Zm9.583-20.55 8.758-9.765 4.443 4.672-8.804 9.907-4.397-4.814Zm5.066 5.545 8.815-9.925 11.725 12.325-3.8 4.56a.52.52 0 0 0 .026.686l4.533 4.7-5.301 5.151-15.998-17.497Zm24.243-27.262h2.808l11.122 6.072 3.4 3.335v6.214l-9.634 6.238a.515.515 0 0 0-.227.426v3.847l-7.114 1.775a.47.47 0 0 0-.234.14.505.505 0 0 0-.126.248l-.678 3.474v5.557l-1.583 1.586-4.222-4.389 3.799-4.556a.51.51 0 0 0 .117-.347.515.515 0 0 0-.139-.337L393.791 49.62l14.779-16.597Zm-11.115 1.465 5.162 3.758-9.483 10.673-4.455-4.681 8.776-9.75Zm-20.586-1.237 10.484 11.022-8.747 9.75-10.2-11.152 8.463-9.62Zm-9.103 10.356 10.183 11.144-13.671 15.24L353.7 59.635l14.066-16.026Zm-15.434 16.048-3.588 4.083-4.349-4.317 3.667-3.95 4.27 4.184Zm-4.965-4.865-3.66 3.944-4.948-4.912 3.554-3.986 5.054 4.954Zm-15.728-15.42 9.971 9.765-3.556 4.01-9.999-9.934 3.584-3.84Zm5.766 14.5-4.296 4.82L323 48.6l4.374-4.682 10.031 9.952Z"/></g></svg>