<svg width="102" height="62" viewBox="0 0 102 62" fill="none" xmlns="http://www.w3.org/2000/svg"><path d="M88.05 46.298v-.001l.068-31.256h-3.625c-.629 0-1.358.24-1.94.647-.587.41-.948.93-.993 1.446l-.098 1.108-.967.13-.386-1.044 7.941 28.97Zm0 0c0 4.239-.213 7.697-1.642 10.107-1.386 2.335-3.995 3.793-9.134 3.793-3.57 0-6.124-.932-7.699-2.666-1.23-1.35-1.904-3.204-1.962-5.558m20.437-5.676-20.437 5.675m0 0h7.052c.093 1.245.618 2.016 1.28 2.461.697.468 1.468.524 1.815.524.744 0 1.367-.165 1.867-.513.5-.347.83-.843 1.049-1.416.425-1.116.472-2.645.472-4.304v-4.907l-.95-.218-.475.98v.001c-.895 1.852-2.712 2.908-5.226 2.908-2.677 0-4.448-.94-5.549-2.823-.928-1.588-1.409-3.918-1.409-7.19v-13.33c0-1.92.27-4.57 1.489-6.589 1.223-2.027 3.193-3.074 5.953-3.074 2.763 0 4.456 1.032 5.128 2.845L67.613 51.973Zm-28.474-3.648h-6.966l-.362-2.656v-.001c-.73-5.587-3.7-10.94-8.788-12.155-1.305-.435-2.736-.696-4.106-.696-1.347 0-2.565.197-3.742.62-3.68 1.304-7.109 4.667-7.067 9.045.015 1.597.501 2.588 1.332 3.458.688.722 1.742 1.055 2.651.742.747-.258 1.257-.827 1.626-1.59.363-.751.612-1.735.822-2.907l.002-.01 1.18-7.45c3.525 2.288 5.337 5.87 5.162 9.47-.724 3.534-2.23 7.213-6.643 8.733a8.801 8.801 0 0 1-2.864.475c-2.468 0-4.917-1.019-6.716-2.902-2.009-2.102-3.128-4.657-3.16-7.956-.073-7.915 6.469-15.05 14.95-16.18l.112-.011.142-.016.369-.05.058-.366 3.873-24.145h10.668l7.467 46.548Zm-15.73-22.02-.058.438.428.11a22.057 22.057 0 0 1 5.017 1.994l.862.47-.127-.974-2.557-19.617-.057-.435h-1.161l-.057.435-2.29 17.58Zm26.196-9.008.09.739.177 1.477.75-1.285.375-.641c1.197-2.05 3.12-3.1 5.81-3.1 2.174 0 3.738.694 4.776 2.012 1.055 1.341 1.627 3.405 1.627 6.264v25.564h-6.972V24.565c0-1.277-.218-2.326-.725-3.068-.53-.775-1.33-1.153-2.315-1.153-1.197 0-2.134.352-2.722 1.3-.547.88-.735 2.198-.735 3.962v22.719h-7.043l-.067-33.284h3.97c.658 0 1.383.236 1.962.65.576.413.966.973 1.042 1.606Zm50.437-2.258v33.283H93.07V15.039h6.972ZM77.622 41.63c.665 0 1.24-.12 1.72-.392.485-.274.835-.68 1.082-1.181.476-.968.585-2.338.585-3.966V25.19c0-1.078-.072-2.257-.473-3.178-.204-.471-.503-.896-.94-1.2-.44-.308-.983-.468-1.628-.468-1.115 0-2.022.375-2.627 1.193-.583.79-.83 1.916-.83 3.306v11.942c0 1.078.074 2.26.486 3.183.211.472.519.896.965 1.2.45.304 1.002.462 1.66.462ZM100.458 7c0 2.146-1.701 3.832-3.901 3.832-2.154 0-3.832-1.679-3.832-3.832 0-2.2 1.686-3.901 3.832-3.901 2.15 0 3.901 1.75 3.901 3.901Z" stroke="#1C1C1C"/><path d="M18.914 33.817c1.127 0 2.318.197 3.432.532-.144 1.4-.512 4.128-.862 6.408-.73-2.59-2.42-4.96-4.938-6.683a10.392 10.392 0 0 1 2.368-.257Z" stroke="#1C1C1C"/></svg>