<svg width="84" height="84" viewBox="0 0 84 84" fill="none" xmlns="http://www.w3.org/2000/svg"><path d="m65.752 16.467.055.054-5.964 6.214c-.199-.19-.476-.445-.828-.744a24.628 24.628 0 0 0-3.43-2.42c-2.993-1.757-7.368-3.516-12.885-3.516C28.422 16.055 17 27.375 17 42c0 15.163 11.996 25.945 25.666 25.945 5.333 0 10.841-1.448 15.174-4.616 4.345-3.177 7.483-8.067 8.074-14.88l.047-.544H43.13V39.35h31.183l.002.01c.048.272.112.677.177 1.208.129 1.063.258 2.626.258 4.617 0 9.36-3.365 17.181-9.013 22.662-5.65 5.483-13.615 8.653-22.861 8.653-21.02 0-35.27-17.082-35.27-34.5 0-17.935 15.152-34.5 34.744-34.5 7.7 0 13.652 2.347 17.678 4.692a31.398 31.398 0 0 1 4.57 3.22c.512.439.898.802 1.154 1.055Z" stroke="#1C1C1C"/></svg>