<svg width="64" height="80" viewBox="0 0 64 80" fill="none" xmlns="http://www.w3.org/2000/svg"><mask id="a" fill="#fff"><path d="m20.98 50.475 3.688-.85c.123-.027.245-.06.366-.1a4.076 4.076 0 0 0 2.776-2.546 4.058 4.058 0 0 0-.507-3.729 5.134 5.134 0 0 0-1.503-1.29 13.94 13.94 0 0 0-2.144-.99l-4.049-1.475a381.24 381.24 0 0 0-6.834-2.465c-1.488-.53-2.756-.99-3.843-1.33-.206-.065-.436-.125-.621-.19a10.758 10.758 0 0 0-3.037-.58 3.629 3.629 0 0 0-2.866 1.225c-.186.21-.362.431-.526.66a7.77 7.77 0 0 0-.777 1.545 20.722 20.722 0 0 0-1.102 6.88c.01 2.115.065 4.83 1.233 6.67.28.473.655.882 1.102 1.2.832.57 1.669.645 2.54.705 1.303.095 2.57-.225 3.828-.515l12.261-2.83.015.005ZM62.161 30.92a20.923 20.923 0 0 0-4.008-5.7 8.022 8.022 0 0 0-1.378-1.05 7.962 7.962 0 0 0-.752-.365 3.629 3.629 0 0 0-3.111.155c-.712.35-1.473.91-2.485 1.85-.14.14-.316.3-.471.445-.837.78-1.77 1.75-2.876 2.875a382.219 382.219 0 0 0-5.061 5.21l-2.996 3.1a13.963 13.963 0 0 0-1.493 1.825 4.996 4.996 0 0 0-.787 1.82c-.082.5-.07 1.01.035 1.505 0 .025.01.045.015.065a4.06 4.06 0 0 0 1.744 2.495 4.075 4.075 0 0 0 2.991.585c.125-.017.248-.04.37-.07l15.96-3.68c1.257-.29 2.535-.56 3.667-1.21.756-.44 1.478-.875 1.974-1.75a3.93 3.93 0 0 0 .466-1.565c.25-2.17-.892-4.635-1.804-6.54Zm-28.565 6.695c1.153-1.45 1.153-3.61 1.253-5.375.35-5.905.717-11.81 1.007-17.715.11-2.24.35-4.45.22-6.7-.11-1.86-.125-3.995-1.302-5.52-2.07-2.69-6.499-2.47-9.525-2.055-.927.125-1.854.3-2.77.52-.917.214-1.824.463-2.721.745-2.907.95-6.98 2.685-7.666 6.02-.391 1.885.53 3.815 1.247 5.535.867 2.085 2.054 3.96 3.132 5.925 2.856 5.18 5.762 10.33 8.658 15.485.861 1.54 1.803 3.485 3.482 4.285.11.05.226.09.34.125.752.285 1.569.34 2.35.16l.14-.035a4.055 4.055 0 0 0 1.89-1.13c.093-.087.182-.174.265-.27ZM32.214 53.42a3.693 3.693 0 0 0-4.625-1.17c-.255.129-.498.28-.727.45a9.559 9.559 0 0 0-1.733 1.77c-.13.165-.25.385-.401.52l-2.566 3.525a403.054 403.054 0 0 0-4.313 5.966c-.927 1.3-1.734 2.395-2.366 3.365l-.36.55c-.762 1.175-1.193 2.03-1.413 2.795a3.644 3.644 0 0 0-.15 1.57c.065.55.25 1.085.54 1.56.156.235.321.465.502.69.383.442.815.84 1.287 1.185a22.487 22.487 0 0 0 11.003 3.8 7.999 7.999 0 0 0 1.75-.135 7.89 7.89 0 0 0 .816-.24c.521-.197.996-.5 1.393-.89.377-.376.668-.83.852-1.33.295-.735.49-1.675.616-3.065l.06-.65c.1-1.155.15-2.51.225-4.105.126-2.45.22-4.9.301-7.346l.165-4.35a10.426 10.426 0 0 0-.275-3.115 4.63 4.63 0 0 0-.581-1.35Zm28.975 6.81a11.016 11.016 0 0 0-2.495-1.89l-.561-.335c-.997-.6-2.195-1.23-3.603-1.99a422.906 422.906 0 0 0-6.488-3.475l-3.843-2.035c-.2-.06-.401-.2-.592-.295a9.574 9.574 0 0 0-2.334-.83 4.982 4.982 0 0 0-.852-.09 3.702 3.702 0 0 0-2.38.878 3.689 3.689 0 0 0-1.253 2.202 4.72 4.72 0 0 0 .05 1.465c.19 1.02.652 2.03 1.123 2.915l2.054 3.84a366.4 366.4 0 0 0 3.487 6.47c.762 1.4 1.403 2.6 1.994 3.596.115.185.24.385.341.56.726 1.195 1.308 1.95 1.899 2.485a3.658 3.658 0 0 0 2.986 1.005c.283-.033.564-.082.842-.145a7.949 7.949 0 0 0 1.628-.645 20.343 20.343 0 0 0 4.284-3.2c1.534-1.5 2.891-3.15 3.949-5.03.15-.266.275-.546.38-.826.1-.263.185-.532.256-.805.065-.28.11-.555.145-.84a3.951 3.951 0 0 0-.19-1.635 3.648 3.648 0 0 0-.827-1.35Z"/></mask><path d="m20.98 50.475 3.688-.85c.123-.027.245-.06.366-.1a4.076 4.076 0 0 0 2.776-2.546 4.058 4.058 0 0 0-.507-3.729 5.134 5.134 0 0 0-1.503-1.29 13.94 13.94 0 0 0-2.144-.99l-4.049-1.475a381.24 381.24 0 0 0-6.834-2.465c-1.488-.53-2.756-.99-3.843-1.33-.206-.065-.436-.125-.621-.19a10.758 10.758 0 0 0-3.037-.58 3.629 3.629 0 0 0-2.866 1.225c-.186.21-.362.431-.526.66a7.77 7.77 0 0 0-.777 1.545 20.722 20.722 0 0 0-1.102 6.88c.01 2.115.065 4.83 1.233 6.67.28.473.655.882 1.102 1.2.832.57 1.669.645 2.54.705 1.303.095 2.57-.225 3.828-.515l12.261-2.83.015.005ZM62.161 30.92a20.923 20.923 0 0 0-4.008-5.7 8.022 8.022 0 0 0-1.378-1.05 7.962 7.962 0 0 0-.752-.365 3.629 3.629 0 0 0-3.111.155c-.712.35-1.473.91-2.485 1.85-.14.14-.316.3-.471.445-.837.78-1.77 1.75-2.876 2.875a382.219 382.219 0 0 0-5.061 5.21l-2.996 3.1a13.963 13.963 0 0 0-1.493 1.825 4.996 4.996 0 0 0-.787 1.82c-.082.5-.07 1.01.035 1.505 0 .025.01.045.015.065a4.06 4.06 0 0 0 1.744 2.495 4.075 4.075 0 0 0 2.991.585c.125-.017.248-.04.37-.07l15.96-3.68c1.257-.29 2.535-.56 3.667-1.21.756-.44 1.478-.875 1.974-1.75a3.93 3.93 0 0 0 .466-1.565c.25-2.17-.892-4.635-1.804-6.54Zm-28.565 6.695c1.153-1.45 1.153-3.61 1.253-5.375.35-5.905.717-11.81 1.007-17.715.11-2.24.35-4.45.22-6.7-.11-1.86-.125-3.995-1.302-5.52-2.07-2.69-6.499-2.47-9.525-2.055-.927.125-1.854.3-2.77.52-.917.214-1.824.463-2.721.745-2.907.95-6.98 2.685-7.666 6.02-.391 1.885.53 3.815 1.247 5.535.867 2.085 2.054 3.96 3.132 5.925 2.856 5.18 5.762 10.33 8.658 15.485.861 1.54 1.803 3.485 3.482 4.285.11.05.226.09.34.125.752.285 1.569.34 2.35.16l.14-.035a4.055 4.055 0 0 0 1.89-1.13c.093-.087.182-.174.265-.27ZM32.214 53.42a3.693 3.693 0 0 0-4.625-1.17c-.255.129-.498.28-.727.45a9.559 9.559 0 0 0-1.733 1.77c-.13.165-.25.385-.401.52l-2.566 3.525a403.054 403.054 0 0 0-4.313 5.966c-.927 1.3-1.734 2.395-2.366 3.365l-.36.55c-.762 1.175-1.193 2.03-1.413 2.795a3.644 3.644 0 0 0-.15 1.57c.065.55.25 1.085.54 1.56.156.235.321.465.502.69.383.442.815.84 1.287 1.185a22.487 22.487 0 0 0 11.003 3.8 7.999 7.999 0 0 0 1.75-.135 7.89 7.89 0 0 0 .816-.24c.521-.197.996-.5 1.393-.89.377-.376.668-.83.852-1.33.295-.735.49-1.675.616-3.065l.06-.65c.1-1.155.15-2.51.225-4.105.126-2.45.22-4.9.301-7.346l.165-4.35a10.426 10.426 0 0 0-.275-3.115 4.63 4.63 0 0 0-.581-1.35Zm28.975 6.81a11.016 11.016 0 0 0-2.495-1.89l-.561-.335c-.997-.6-2.195-1.23-3.603-1.99a422.906 422.906 0 0 0-6.488-3.475l-3.843-2.035c-.2-.06-.401-.2-.592-.295a9.574 9.574 0 0 0-2.334-.83 4.982 4.982 0 0 0-.852-.09 3.702 3.702 0 0 0-2.38.878 3.689 3.689 0 0 0-1.253 2.202 4.72 4.72 0 0 0 .05 1.465c.19 1.02.652 2.03 1.123 2.915l2.054 3.84a366.4 366.4 0 0 0 3.487 6.47c.762 1.4 1.403 2.6 1.994 3.596.115.185.24.385.341.56.726 1.195 1.308 1.95 1.899 2.485a3.658 3.658 0 0 0 2.986 1.005c.283-.033.564-.082.842-.145a7.949 7.949 0 0 0 1.628-.645 20.343 20.343 0 0 0 4.284-3.2c1.534-1.5 2.891-3.15 3.949-5.03.15-.266.275-.546.38-.826.1-.263.185-.532.256-.805.065-.28.11-.555.145-.84a3.951 3.951 0 0 0-.19-1.635 3.648 3.648 0 0 0-.827-1.35Z" stroke="#1C1C1C" stroke-width="2" mask="url(#a)"/></svg>