<svg width="142" height="158" viewBox="0 0 142 158" fill="none" xmlns="http://www.w3.org/2000/svg"><path d="M104.439 81.036c-3.22-2.116-6.965-3.517-10.959-4.316C104.52 73.84 113 65.84 113 52.24 113 33.84 97.96 22 72.68 22 48.2 22 31.24 36.24 30.92 57.2h22.56c.32-10.4 8-17.12 18.88-17.12 9.6 0 17.28 4.8 17.28 13.92 0 8.8-6.24 15.04-18.56 15.04h-9.76v18.4h11.04c12.96 0 19.52 5.6 19.52 14.4 0 10.08-8.16 16-18.56 16-12.16 0-21.12-6.72-21.44-19.36H29c0 24 16.8 37.44 43.2 37.44 13.691 0 25.74-4.96 32.239-9.711" stroke="#BFBCB4" stroke-width="2"/></svg>