<svg width="86" height="116" viewBox="0 0 86 116" fill="none" xmlns="http://www.w3.org/2000/svg"><path d="M76.44 60.076c-3.22-2.116-6.966-3.517-10.96-4.316C76.52 52.88 85 44.88 85 31.28c0-18.4-15.04-30.24-40.32-30.24-24.48 0-41.44 14.24-41.76 35.2h22.56c.32-10.4 8-17.12 18.88-17.12 9.6 0 17.28 4.8 17.28 13.92 0 8.8-6.24 15.04-18.56 15.04h-9.76v18.4h11.04c12.96 0 19.52 5.6 19.52 14.4 0 10.08-8.16 16-18.56 16-12.16 0-21.12-6.72-21.44-19.36H1c0 24 16.8 37.44 43.2 37.44 13.691 0 25.74-4.96 32.24-9.711" stroke="#BFBCB4" stroke-width="2"/></svg>